<?xml version="1.0" standalone="no"?>
<!DOCTYPE svg PUBLIC "-//W3C//DTD SVG 20010904//EN"
 "http://www.w3.org/TR/2001/REC-SVG-20010904/DTD/svg10.dtd">
<svg version="1.0" xmlns="http://www.w3.org/2000/svg"
 width="310.000000pt" height="310.000000pt" viewBox="0 0 310.000000 310.000000"
 preserveAspectRatio="xMidYMid meet">
<metadata>
Created by potrace 1.11, written by Peter Selinger 2001-2013
</metadata>
<g transform="translate(0.000000,310.000000) scale(0.100000,-0.100000)"
fill="#000000" stroke="none">
<path d="M1075 2974 c42 -119 30 -255 -33 -381 l-29 -57 -22 67 c-11 36 -21
73 -21 82 0 24 -14 18 -66 -27 -64 -57 -88 -83 -126 -143 -17 -27 -50 -78 -72
-112 l-41 -63 -6 40 c-11 78 -22 69 -98 -80 -27 -52 -65 -142 -84 -200 -45
-133 -91 -361 -83 -410 28 -153 28 -143 -4 -226 -35 -95 -70 -235 -70 -286 0
-33 3 -38 23 -38 12 0 35 -9 52 -20 l29 -19 13 31 c7 16 13 46 13 64 0 23 5
34 14 34 11 0 16 25 21 106 7 101 10 109 52 185 30 52 51 79 63 79 23 0 33 12
75 98 33 65 82 122 106 122 6 0 7 -9 4 -21 -6 -19 -4 -21 16 -16 13 3 62 27
109 52 l84 46 48 -21 c27 -11 65 -23 86 -25 20 -2 54 -7 75 -11 32 -6 39 -4
43 12 5 19 9 19 82 8 42 -6 98 -17 124 -24 45 -12 48 -11 70 13 17 18 28 23
39 16 19 -10 87 7 112 29 16 14 23 14 75 -2 31 -9 101 -38 156 -64 94 -44 99
-46 112 -28 7 10 15 23 16 28 2 5 48 -21 103 -58 56 -38 120 -73 145 -79 42
-11 49 -18 103 -99 40 -60 68 -92 91 -103 41 -19 46 -34 46 -136 l0 -77 25 16
c14 9 28 15 30 12 3 -3 0 -29 -5 -59 -9 -46 -6 -129 5 -129 2 0 17 14 33 30
41 40 76 39 120 -2 l34 -33 -7 68 c-10 103 -51 242 -99 342 -24 50 -57 135
-74 190 -32 102 -101 257 -121 269 -6 4 -16 26 -22 49 -6 23 -15 45 -20 48
-14 8 -42 168 -35 201 5 26 4 28 -15 17 -12 -6 -30 -31 -41 -56 l-20 -45 -26
39 c-15 21 -45 79 -68 130 -54 120 -146 257 -197 294 -22 16 -44 29 -49 29 -4
0 -8 -25 -8 -55 0 -30 -3 -55 -6 -55 -3 0 -15 11 -26 25 -30 39 -204 183 -279
231 -51 34 -167 84 -193 84 -2 0 -2 -36 1 -80 3 -44 3 -80 -2 -80 -4 0 -49 45
-101 99 -104 110 -210 188 -266 197 l-37 6 24 -68z"/>
<path d="M1743 1606 c-18 -8 -33 -19 -33 -24 0 -5 59 -9 131 -10 77 0 144 -6
161 -13 54 -22 39 -1 -19 27 -70 34 -187 44 -240 20z"/>
<path d="M782 1564 c-76 -49 -90 -69 -25 -36 41 21 196 47 214 37 5 -4 22 -4
37 0 l27 7 -24 19 c-18 14 -39 19 -90 19 -62 0 -71 -3 -139 -46z"/>
<path d="M1822 1368 c-18 -18 -14 -38 7 -38 10 0 21 -7 25 -15 7 -20 -29 -56
-49 -49 -12 5 -15 -3 -15 -46 0 -94 44 -153 99 -130 39 16 61 59 61 119 0 111
-79 208 -128 159z m118 -188 c0 -5 -9 -10 -20 -10 -11 0 -20 5 -20 10 0 6 9
10 20 10 11 0 20 -4 20 -10z"/>
<path d="M874 1336 c-18 -14 -18 -15 -1 -21 24 -10 23 -61 -3 -75 -10 -6 -25
-9 -32 -8 -21 5 -13 -111 10 -142 42 -56 118 -19 142 70 16 61 5 104 -39 150
-42 44 -48 46 -77 26z m95 -159 c13 -16 5 -27 -21 -27 -18 0 -25 20 -11 33 10
10 19 8 32 -6z"/>
</g>
</svg>
