<?xml version="1.0" standalone="no"?>
<!DOCTYPE svg PUBLIC "-//W3C//DTD SVG 20010904//EN"
 "http://www.w3.org/TR/2001/REC-SVG-20010904/DTD/svg10.dtd">
<svg version="1.0" xmlns="http://www.w3.org/2000/svg"
 width="310.000000pt" height="310.000000pt" viewBox="0 0 310.000000 310.000000"
 preserveAspectRatio="xMidYMid meet">
<metadata>
Created by potrace 1.11, written by Peter Selinger 2001-2013
</metadata>
<g transform="translate(0.000000,310.000000) scale(0.100000,-0.100000)"
fill="#000000" stroke="none">
<path d="M1066 3023 c4 -10 16 -52 27 -93 19 -72 20 -79 4 -172 -11 -66 -27
-119 -50 -164 l-34 -67 -15 39 c-9 22 -21 58 -27 82 -7 23 -15 42 -19 42 -23
0 -147 -141 -212 -243 -41 -64 -78 -117 -82 -117 -5 0 -8 12 -9 28 0 15 -4 35
-8 46 -7 17 -8 17 -23 -5 -66 -101 -136 -280 -180 -459 -33 -131 -39 -222 -24
-336 8 -56 5 -70 -27 -160 -34 -96 -49 -160 -62 -257 -6 -44 -5 -47 17 -47 13
0 36 -9 53 -20 l29 -19 13 31 c7 16 13 46 13 64 0 23 5 34 14 34 11 0 16 25
21 106 7 101 10 109 52 185 30 52 51 79 63 79 23 0 33 12 75 98 33 65 82 122
106 122 6 0 7 -9 4 -21 -6 -19 -4 -21 16 -16 13 3 62 27 109 52 l84 46 48 -21
c27 -11 65 -23 86 -25 20 -2 54 -7 75 -11 32 -6 39 -4 43 12 5 19 9 19 82 8
42 -6 98 -17 124 -24 45 -12 48 -11 70 13 17 18 28 23 39 16 19 -10 87 7 112
29 16 14 23 14 75 -2 31 -9 101 -38 156 -64 94 -44 99 -46 112 -28 7 10 15 23
16 28 2 5 48 -21 103 -58 56 -38 120 -73 145 -79 42 -11 49 -18 103 -99 40
-60 68 -92 91 -103 41 -19 46 -34 46 -136 l0 -77 25 16 c14 9 28 15 30 12 3
-3 0 -29 -5 -59 -9 -46 -6 -129 5 -129 2 0 17 14 33 30 39 38 76 39 115 3 l29
-28 -7 60 c-12 102 -51 236 -94 327 -23 48 -56 136 -75 195 -41 135 -66 192
-111 253 -19 26 -35 55 -35 63 0 8 -4 17 -8 19 -11 4 -42 155 -42 206 0 23 -5
42 -10 42 -16 0 -50 -62 -50 -92 0 -16 -4 -28 -9 -28 -5 0 -32 48 -61 108 -73
154 -98 200 -136 258 -42 63 -116 144 -132 144 -8 0 -12 -18 -13 -47 0 -27 -4
-57 -8 -67 -7 -17 -10 -16 -29 15 -23 38 -125 132 -228 210 -73 55 -167 104
-222 115 -32 6 -32 6 -22 -20 12 -32 13 -116 2 -133 -5 -8 -35 19 -87 79 -83
94 -194 186 -258 213 -48 20 -61 19 -51 -2z"/>
<path d="M1743 1606 c-18 -8 -33 -19 -33 -24 0 -5 59 -9 131 -10 77 0 144 -6
161 -13 54 -22 39 -1 -19 27 -70 34 -187 44 -240 20z"/>
<path d="M782 1564 c-76 -49 -90 -69 -25 -36 41 21 196 47 214 37 5 -4 22 -4
37 0 l27 7 -24 19 c-18 14 -39 19 -90 19 -62 0 -71 -3 -139 -46z"/>
<path d="M1822 1368 c-18 -18 -14 -38 7 -38 10 0 21 -7 25 -15 7 -20 -29 -56
-49 -49 -12 5 -15 -3 -15 -46 0 -94 44 -153 99 -130 39 16 61 59 61 119 0 111
-79 208 -128 159z m118 -188 c0 -5 -9 -10 -20 -10 -11 0 -20 5 -20 10 0 6 9
10 20 10 11 0 20 -4 20 -10z"/>
<path d="M874 1336 c-18 -14 -18 -15 -1 -21 24 -10 23 -61 -3 -75 -10 -6 -25
-9 -32 -8 -21 5 -13 -111 10 -142 42 -56 118 -19 142 70 16 61 5 104 -39 150
-42 44 -48 46 -77 26z m95 -159 c13 -16 5 -27 -21 -27 -18 0 -25 20 -11 33 10
10 19 8 32 -6z"/>
</g>
</svg>
