<svg version="1" xmlns="http://www.w3.org/2000/svg" width="960" height="960" viewBox="0 0 720.000000 720.000000"><path d="M351.6 45.5c-.9 2.6-.7 3.2.5 1.2.6-1 .9-2.1.6-2.3-.2-.3-.7.2-1.1 1.1zM348.7 53.2c-.9 2.3-1.5 4.3-1.3 4.5.2.2 1.1-1.5 2-3.8.9-2.3 1.5-4.3 1.3-4.5-.2-.2-1.1 1.5-2 3.8zM344.6 63.5c-.9 2.6-.7 3.2.5 1.2.6-1 .9-2.1.6-2.3-.2-.3-.7.2-1.1 1.1zM342 68.5c0 .8-1.3 2.9-2.9 4.7-1.5 1.8-3.3 4.3-4 5.5-.7 1.4-1.7 2-2.6 1.7-.9-.4-2.1-.1-2.8.5-1 .7-1.9.7-3.3-.3-1-.7-3.9-1.6-6.4-2-3.1-.4-3.7-.3-1.9.3 3.6 1.2 7.3 3.2 8.1 4.5 1.1 1.7-1.3 3.7-3.5 3-1.3-.4-1.7-.2-1.3.5.4.6.1 1.1-.8 1.1-2 0-3-1.7-1.4-2.3.9-.4 1-.6.1-.6-.6-.1-1.4.3-1.8.8-.3.6-2.2.5-4.9-.3-3.5-1.1-4.6-1.1-6.1 0-1 .8-1.6 1.7-1.2 2 .3.3-.7 1.7-2.4 3.1-1.6 1.4-2.9 3.3-2.9 4.2 0 2.3-.9 3.1-2.6 2.4-1.3-.5-1.2-.9.3-2.7 1.5-1.7 1.3-1.7-.9.3l-2.7 2.4-3.9-2.1c-2.2-1.1-5.1-3.1-6.5-4.4-5.1-4.6-9-7.2-11.5-7.4l-2.5-.3 2.9 3.1c3 3.3 7 7 14.2 13.3 2.3 2.1 4.2 4.1 4.2 4.6 0 .8-14.6.3-16-.6-.4-.3-1.4.3-2.3 1.3-1.5 1.6-1.4 1.8.6 1.7 1.3-.1 2.9-.5 3.6-.9 2.3-1.5 2.3.2-.1 2.6-1.3 1.2-2.2 2.5-2.1 2.8.2.8-3.8.4-6.1-.5-1.4-.6-2.5-.1-4.3 1.9-1.3 1.6-2.1 3.1-1.7 3.5.4.3.9 0 1.1-.7.6-1.7 3.3-1.5 3.3.3 0 .8-.6 1.2-1.4.9-.8-.3-1.7 0-2.1.5-.3.6-1.1.9-1.6.5-.5-.3-1.4.8-2 2.5-1.2 3.3-2.4 3.8-14.4 6.5-7.8 1.7-15.5 2.9-20 3.2-8.5.5-8.1.4-6.2 1.5 1 .6 7.8 1.1 15.1 1.2l13.4.2-1.6 4c-1.9 4.8-2.7 5.5-7.2 5.5-3.6.1-11.4 3.9-10.8 5.3.1.5-.5 1.3-1.4 1.8-2.5 1.4-2.2 2.7.7 4.1 1.6.7 2.5 1.9 2.5 3.4 0 1.2.3 2.4.8 2.7.4.2.2.3-.4.1-.7-.1-1.4.8-1.6 2.1-.4 1.6-.1 2.2.9 1.8.7-.3 1.3 0 1.3.5 0 1.2-1.9 2.6-3.5 2.7-.5.1-1.9.5-2.9 1-1.3.6-2.1.5-2.4-.3-.6-1.8-5.2 1.7-5.2 3.9 0 1.1-.1 1.9-.3 1.9-.1 0-1.6-.4-3.3-.9-2.9-.8-3-.7-2.6 1.5.3 1.8 0 2.4-1.4 2.5-1.8 0-1.7.1.1.8 1.1.5 2.5.6 3.2.4.6-.2 1.4.4 1.7 1.5.7 2.2 5.2 5.6 6.4 4.8.4-.3 1.4 0 2.2.5 1.1.8.6.9-1.8.6-1.8-.2-3.5 0-3.7.3-.4.7 5 1.9 9.8 2.3 1.6.1 2.5 1.7.9 1.7-.4 0-.8 1.4-.8 3.1-.1 1.7-.7 3.5-1.4 3.9-.8.5-.9 1-.1 1.4 1.2.8.3 3.6-3.5 11.1-2.1 4.1-2.2 4.6-.5 2.5l2.1-2.5v4.2c0 2.3.4 4.4.9 4.7.4.3.9 5.1.9 10.7.1 5.6.5 10.5 1 10.8.4.3 1.4 3.3 2.1 6.6 2.4 11.4 3.8 14.4 5.6 11.5.9-1.5 2.5-1.2 2.5.5 0 .8.5 1.5 1 1.5.6 0 1 .9 1 2 0 1.2-.5 1.7-1.4 1.4-.8-.3-1.7 0-2.2.7-.4.8-.3 1 .4.5.6-.4 2 .2 3.2 1.4 1.1 1.1 2 1.7 2 1.2 0-.4.5.1 1.1 1.1.5.9.7 2.2.4 2.7-.3.6.1 1 .9 1 .9 0 1.6.8 1.6 1.7.1 1 1 4.3 2.1 7.3s2.1 6.8 2.2 8.5c.1 1.6.8 3 1.5 3 .6 0 1.3.4 1.3 1 .1.5.8 1.9 1.5 3 .8 1.1 1.4 3.4 1.4 5.2 0 4 4 16.4 5 15.8.5-.3 1.1.1 1.4.7.3.7.4-1.6.1-5.2-1.1-13.1-.8-70.4.3-73 1.7-3.9 3.5-5.6 6.3-6.3 2.7-.7 10.6-10.1 11.2-13.4.2-1 .7-2.6 1.2-3.6.4-1 .5-2.1.1-2.4-.3-.3-.2-1.1.3-1.7 2.8-3.7 1.5-5.8-1.7-2.9-1.6 1.5-4.2 1.7-4.2.4 0-.5-.3-1.6-.6-2.5-.4-1.1 0-1.6 1.2-1.6s1.5-.3.8-.8c-1.7-1.1-.9-3.4 2.8-8.8 3.2-4.5 3.8-4.9 7.6-5 2.3-.1 4.2.3 4.2.8 0 .6-.7.8-1.5.5-1.5-.6-2.8.7-3.1 3.1-.2 1 .2 1 1.5-.2s2-1.3 2.9-.4c.7.7 1.2 1.7 1.2 2.3 0 .6-.3.6-.8-.1-.5-.8-1.2-.5-2.4 1-1.3 1.8-1.4 2.3-.2 2.3.8 0 1.4-.7 1.4-1.6 0-1.4.2-1.4.9-.2.8 1.2 1.1.9 1.6-1.2.4-1.5 1.3-2.7 2.1-2.7s1.4-.5 1.4-1.1c0-.5.4-.7 1-.4 1 .6 10.3-7.9 9.4-8.7-.3-.3 1.1-.9 3.1-1.2 1.9-.4 3.3-1 3.1-1.5-.8-1.2 5-.4 9.7 1.4 2.5.9 5.8 1.4 7.6 1.2 2.4-.4 3-.3 2.2.7-.7.8-.5 1.2.8 1.2 1.2 0 1.7-.6 1.4-1.6-.2-.8.2-.6.9.5 1.1 1.8 2.3 2.1 9.3 2 4.4-.1 9.3-.7 10.9-1.4 1.6-.6 3.6-.9 4.3-.7.8.3 1.1.1.8-.4-.6-1-.1-1.1 5.7-1.5 1.5-.1 3.5-.8 4.5-1.6 1.5-1.2 1.6-1.2 1 .4-.6 1.6-.3 1.5 2.5-.4 1.7-1.3 2.8-1.6 2.3-.8-.7 1.1-.6 1.2.7.2.8-.7 1.8-1 2.1-.7.3.4 2-.5 3.7-2 3.8-3.1 5.9-3.5 3-.4-1.1 1.2-1.7 2.4-1.4 2.7.3.3.9-.1 1.4-.9.6-.8 1-1.1 1-.6 0 .4 1.6-.6 3.5-2.3 2.8-2.5 4-2.9 5.4-2.1 1 .5 2.8.7 4 .5 1.1-.2 2.1 0 2.1.6 0 .5.3.8.8.8 2-.3 3.2.2 2.6 1.3-.4.6-.3.8.4.4.6-.3 3.8.7 7.1 2.3 3.6 1.7 6.3 2.5 6.7 1.9.4-.5 1.5-.1 2.8 1.1 1.2 1.2 2.5 1.9 2.8 1.6.3-.3 1.1.1 1.8 1 .7.8 1.8 1.5 2.6 1.5.7 0 1.6.5 2 1.2.5.7.2.9-.9.5s-1.4-.2-1 .8c.3.8.9 1.2 1.4.9.5-.3.9 0 .9.6s.4.8 1 .5c.6-.3.7.1.4.9-.3.9-.1 1.6.5 1.6s2.5 1.6 4.3 3.5c1.8 2.1 3.8 3.3 4.6 3 1-.4 1.2 0 .7 1.2-.4 1.3.4 2.7 3.2 5.1 2.1 1.8 3.1 3.1 2.3 3-.9-.2-1.4.3-1.1 1.2.2.8.4 2.1.4 2.7 0 .7.2 1.1.4.9.3-.3 3.2 2.2 11.1 9.8 1.8 1.7 3.5 4.1 3.8 5.3.4 1.3 1.1 2.3 1.7 2.3.6 0 .7.3.4.7-.4.3-.1 1.3.7 2.2 1.7 2 2.7 7.1 1.3 7.1-.5 0-.4.7.4 1.6 1 1.3 1 1.7-.1 2.4-1.2.7-1.1 1 .3 1.6.9.3 1.4 1 1.1 1.5-.3.5-1.5.2-2.7-.6-1.2-.8-3.1-1.5-4.2-1.5s-2.8-.7-3.8-1.5c-1.4-1-2.6-1.1-5-.3-1.8.6-3.6 1.5-4.2 2.1-.7.7-.4.8.8.4 1-.4 1.6-.3 1.2.2-.3.5.1 1.2.7 1.4.9.4.8.6-.2.6-.8 0-2.6-.6-4-1.4-2.8-1.6-4.4-1.9-3.6-.7.2.4-1.3.7-3.4.6-2.2 0-3.7.3-3.4.8.4.5-.2.9-1.2.8-1.1-.1-2.3-.1-2.9 0-.5.1-3.5.4-6.5.5-3 .2-6.6.5-8 .8-1.4.3-2.8.6-3.1.6-1.6.3-5 4.5-4.5 5.8.3.8.2 1.1-.3.8-.5-.3-1.3 0-1.7.6-.4.7-.3.9.4.5.6-.3 1.3-.2 1.6.3.4.6 1.8.6 3.6.1 1.6-.5 3.8-.6 4.8-.3 1.1.2 5.9-.3 10.8-1.2 4.9-.9 12.7-2.1 17.4-2.6 13.8-1.6 18-1.1 18 2.1 0 1 .6 2 1.4 2.3.8.3 1.2 1.6 1.1 3.1-.2 1.4.1 2.4.6 2 .5-.3.9.2.9 1.1 0 1-.5 1.3-1.2.9s-.4.3.7 1.5c1.1 1.3 1.9 3.2 1.7 4.3-.2 1 .1 2.5.6 3.1.5.7 1.5 5.2 2.2 10.2 1.5 11.2 3.1 14.5 2.3 5-.5-6.2-.2-7.7 2.2-13 1.6-3.3 2.7-6.4 2.6-6.8-.1-.5.3-.6.8-.3.5.4 1.3.1 1.6-.5.4-.5 1.3-.8 2.1-.5 2.1.8 5.3-4.4 4.3-7.1-.5-1.5-.2-2.8 1.2-4.4 1-1.2 1.9-3.1 1.9-4.1 0-1.1.5-1.6 1.1-1.3.6.4.8 2.1.4 3.8l-.6 3.2 1.7-3.5c.9-1.9 1.8-6.6 2-10.5.2-3.8.8-7.1 1.3-7.3.5-.2.7-1.5.5-2.9-.3-1.4 0-3.1.6-3.8.6-.8 1.2-3 1.3-4.9.3-5 1.7-4.5 1.7.5 0 2.6.4 3.8 1.1 3.3.6-.3.9-1.5.6-2.5-.3-1.2-.1-1.7.6-1.2.6.4.8-.2.5-1.5-.4-1.2-.2-2.2.3-2.2 1.1 0 .2 12.4-1.1 15.5-1.5 3.7-2.3 6-2.7 7.9-.2 1.1-.9 2.6-1.6 3.5-.9 1.1-.9 1.3 0 .8 2.9-1.8 7.7-15.2 8.7-24.7.4-3 1.1-5.7 1.7-6.1.8-.5.8-.8-.1-1.1-.6-.2-1.4-2.2-1.7-4.6-.4-3.3-.2-4.3 1.1-4.8 1.5-.6 1.5-.9.3-2.8-1.9-2.9-2.6-6.1-1.7-7.7.5-.8.1-3.1-1-5.4-1.6-3.4-1.6-4.1-.4-4.3.8-.2 1.2-.8.9-1.3-.4-.5-.4-.9-.1-.9 1.2 0 5.7 9 5.9 11.8.1 1.7.5 2.8.9 2.6.3-.2.9.2 1.2.8 1.9 4.5-1.3-6-3.5-11.5-2.3-5.4-2.5-6.7-1.3-6.7 2.3 0 1.3-3.4-1.1-3.8-2.8-.5-6.7-4.3-6-6 .2-.7 0-1-.5-.7-.6.3-1-.3-1-1.3 0-2 1.8-3.2 4.9-3.2 1 0 3.1-1.2 4.7-2.6 1.6-1.5 2.3-2.3 1.7-2-.7.4-1.3.2-1.3-.3 0-.6-.5-1.1-1.1-1.1-.5 0-.7.4-.4 1 1 1.6-9.1 1.2-10.4-.3-.6-.8-.7-1.8-.3-2.3.4-.5.3-.6-.2-.2-1.3 1.1-3.6-1.1-3-2.7.3-.7-.3-1.6-1.5-2-1.2-.3-1.8-1.1-1.5-1.7.4-.6-.1-1.7-1.1-2.4-1.1-.8-1.6-2.1-1.2-3.3.3-1.1 0-2.3-.7-2.6-.6-.3-.1-.3 1.2-.1 1.2.2 2 0 1.7-.4-.3-.5.3-1.5 1.3-2.2 3-2.1 3.9-4.3 1-2.4-2.6 1.7-4 1.3-3.1-1 .3-.8 0-2.1-.7-2.9-1.1-1.3-1-1.4.4-.9.9.3 1.6.1 1.6-.5s.7-1.1 1.5-1.1c3.9 0-.3-3.5-7-5.8-5.2-1.8-6.5-3-6.5-5.8 0-1.2-1-3-2.1-3.8-1.2-.8-2.2-2.5-2.3-3.7 0-1.2-.8-2.4-1.6-2.6-1.3-.4-1.3-.3 0 .6.8.5 1.1 1.3.7 1.7-1.1 1.1-3.1-1.3-3.3-3.9-.1-1.9-2.8-7.3-5.1-10.2-.4-.6-1-1.9-1.1-3-.2-1.1-1-2.7-1.8-3.6-.8-.9-1.2-2.3-.9-3.2.4-.8.1-1.8-.6-2.3-.8-.4-1-.3-.5.4 1.6 2.6-.7 3.2-2.9.7-1.3-1.4-3.5-2.5-4.9-2.5-3.1 0-5.6-.9-5.6-2.1 0-.5-.9-2.3-2-4.1-1.4-2.3-1.9-2.7-1.7-1.3.1 1.1.6 2.6 1 3.2.5.7.6 1.3.3 1.3-.7 0-8.6-7.5-8.6-8.2 0-1.1 8.4.3 10.7 1.8 2.5 1.6 4.3 1.8 4.3.5 0-.5-1.2-1.2-2.7-1.6-1.5-.3-3.2-1.4-3.8-2.2-1-1.3-3.3-1.7-11.1-1.7-9.7-.1-10 0-16.9 3.8-9.9 5.4-12.6 5.6-15.1 1.1-.8-1.4-2.3-2.1-5-2.2-7.1-.4-13.9-1.5-15.1-2.5-1.7-1.4-16.6-2-15.7-.7.4.7-.5 1-2.5.7-1.8-.1-3.5.2-3.9.7-.9 1.3-3.5 1.8-2.7.5.3-.5.2-1-.3-1-1.4 0-3.3 2.6-2.5 3.3.3.4.2.7-.3.8-.5 0-2 .3-3.4.5s-4.3.5-6.5.6c-5 .2-5.8-2-2-5.9 1.4-1.5 3.1-3.7 3.6-4.8.6-1.2.1-.9-1 .6-1.2 1.5-3.2 3.4-4.6 4.3-2.4 1.6-2.4 1.6-1.5-.9.5-1.4.6-2.5.3-2.5-.4 0-.2-.5.5-1.2 1.5-1.5 1.6-2.8.2-2.8-.5 0-1 .7-1 1.5zm-36 23.1c0 .4-1.2 1.7-2.6 3.1l-2.5 2.3.7-2.2c.7-2.2 2.1-3.8 3.7-3.8.4 0 .7.3.7.6zM264.5 120c-.3.5-1 1-1.6 1-.5 0-.9-.5-.9-1 0-.6.7-1 1.6-1 .8 0 1.2.4.9 1zM451 155.4c0 .2-.8 1-1.7 1.7-1.6 1.3-1.7 1.2-.4-.4 1.3-1.6 2.1-2.1 2.1-1.3zm-127 25c0 1.1-1.9 1.5-2.5.6-.3-.5.1-1 .9-1 .9 0 1.6.2 1.6.4zm183 36.3c0 2.2-.2 2.5-1 1.3-1.3-2-1.3-4 0-4 .6 0 1 1.2 1 2.7zm-20 38c-1 1.6-1.1 1.5-.6-.7.3-1.4.6-3.2.7-4 .1-.8.4-.5.6.7.2 1.2-.1 3-.7 4zm-40.3-4.1c-.3.3-1.2.4-1.9.1-.8-.3-.5-.6.6-.6 1.1-.1 1.7.2 1.3.5zm-214 3.6c-.3.7-.5.2-.5-1.2s.2-1.9.5-1.3c.2.7.2 1.9 0 2.5zm19.8 28.9c1.1 1.7-.1 2.1-1.5.4-.8-.9-.8-1.5-.2-1.5.6 0 1.4.5 1.7 1.1z"/><path d="M311.4 80.6c-1.8 1.4-1.8 1.4.6.3 3.1-1.4 3.6-1.9 2.4-1.9-.6 0-1.9.7-3 1.6zM457.2 83c.7 1.1 1.7 2 2.2 2 .5 0 .1-.9-.9-2s-2-2-2.2-2c-.2 0 .2.9.9 2zM214.5 131c.3.5 1 1 1.6 1 .5 0 .9-.5.9-1 0-.6-.7-1-1.6-1-.8 0-1.2.4-.9 1zM497 154.9c0 .5.5 1.3 1 1.6.6.3 1 .2 1-.4 0-.5-.4-1.3-1-1.6-.5-.3-1-.2-1 .4zM281.9 192.7c-1.3 1.6-1.2 1.7.4.4.9-.7 1.7-1.5 1.7-1.7 0-.8-.8-.3-2.1 1.3zM280 197.5c-1.1 1.3-1 1.4.4.9.9-.3 1.6-1 1.6-1.5 0-1.3-.6-1.1-2 .6zM285.6 252.3c-2.8 2.3-2.9 2.4-.8 2.9 1.2.4 2.4.3 2.7-.1.2-.4 2.3-.8 4.5-.9 4.6-.2 6-.8 6-2.4 0-.7-.6-.6-1.5.2-.8.7-1.5 1-1.5.6 0-.3-1.2-.1-2.7.4-2.5.9-2.6.9-1-.4 1.6-1.2 1.6-1.4.1-2-2.3-.9-2.6-.8-5.8 1.7zM317.8 250.9c1 .6.8 1-.9 1.4-1.3.3-2.8.3-3.3-.2-.6-.4-2.2-.4-3.6 0-1.7.5-1.9.7-.7.8 1 .1 1.6.5 1.3 1-.3.4-1.8.7-3.3.5-2.4-.4-2.5-.3-.8.5 3 1.4 6.7 1.3 6-.2-.4-.6-.1-.5.7.4 1.7 2 16.5 4.4 32.8 5.3 1.9.1 4.1.6 4.9 1 1 .6 1.2.5.7-.2-1-1.6.7-1.5 2.3 0 1 1.1 1.1 1 .5-.5-.5-1.3-.2-1.6 1-1.1 2.1.8 2-.4-.1-2.9-1.7-1.9-1.7-2 .5-.8 3.4 1.8 2.6.5-1.1-1.8-1.8-1.1-5.4-2.2-8.1-2.6-4.6-.5-4.8-.4-3.5 1.2 1.3 1.7 1.3 1.7-.5.3-1.6-1.3-3.9-1.7-12.1-2.2-1.1-.1-3.5-.1-5.4 0-2.7.2-3.2.5-2.7 1.9.6 1.4.2 1.2-1.7-.5-1.3-1.2-2.7-2.2-3.3-2.2-.5 0-.3.4.4.9zM406.1 253.6c0 1.1.3 1.4.6.6.3-.7.2-1.6-.1-1.9-.3-.4-.6.2-.5 1.3zM407.6 255.7c-.6 1.4-.5 1.5.5.6.7-.7 1-1.5.7-1.8-.3-.3-.9.2-1.2 1.2zM299.8 255.7c.7.3 1.6.2 1.9-.1.4-.3-.2-.6-1.3-.5-1.1 0-1.4.3-.6.6zM280 256.4c0 .9 4 1.3 4.6.5.3-.5-.6-.9-2-.9s-2.6.2-2.6.4zM421 261.8c0 .7-1.8 1.1-6.3 1.2-1.3.1-1.7.6-1.3 1.7.5 1.3.4 1.3-.7.4s-1.7-.7-2.8.6c-1.2 1.5-1.2 1.6.1.8.8-.4.2.5-1.5 2.2-4.2 4.2-6.7 7.4-6.2 7.9.2.2 1.2-.5 2.2-1.6 2-2.2 4-2.7 2.9-.8-.4.7.2.5 1.3-.5 1.1-.9 2.5-1.7 3.1-1.7.6 0 1.7-.9 2.5-2s1.7-1.7 2-1.3c.4.3.7.1.7-.5 0-.7.3-1.1.8-1 .4.1 2.1-.4 3.7-1.1 4.3-1.8 20-1 24.2 1.2 1.8 1 4.6 3.1 6.3 4.7 5 4.9 7.3 3 2.5-2.2-2.9-3.1-10.1-5.3-20-6.2-9-.9-10.3-1.1-11.1-1.9-1-.9-2.4-.9-2.4.1zM336 267.2c3.6.5 8.8 1.9 11.5 3.2 6.9 3.2 8.7 3.8 7.9 2.5-.3-.6-3.4-2.4-6.8-4-4.9-2.3-7.3-2.9-12.6-2.8l-6.5.1 6.5 1zM311.4 268.4c-5 1.2-9.7 4.1-10.1 6.2-.1.5 2.6-.4 6-2s8.5-3.5 11.2-4.2c4.5-1.1 4.7-1.2 1.5-1.2-1.9 0-5.8.5-8.6 1.2z"/><path d="M419.4 269c-3.5 1.7-13.2 10-11.7 10 .6 0 2.7-1.4 4.8-3 4.6-3.6 5.5-3.7 5.5-.6 0 2.9 3.5 7.4 6.5 8.6 5.9 2.2 12.5-2.8 12.5-9.5 0-2.3.3-2.5 2.2-1.9 2.7.8 4.9 2.9 4.1 3.8-.4.3-.1.6.5.6.7 0 1.2.9 1.2 2s.7 2 1.5 2c1.6 0 3.8 3.4 2.7 4.4-.3.4.2.4 1.1 0 1.1-.4 1.6-1.3 1.3-2.1-.5-1.1-.1-1.3 1.7-.7 1.2.3 1.9.3 1.5-.1-.4-.4.3-1.6 1.5-2.6l2.2-1.8-2.2-.1c-1.4 0-2.3-.6-2.3-1.6 0-.8-.4-1.3-1-.9-.5.3-2.8-.6-5.1-2.1-2.3-1.4-4.7-2.7-5.3-2.9-.6-.1-1.8-.5-2.6-.9-.8-.3-5.1-1-9.5-1.4-6.3-.6-8.7-.4-11.1.8zm4.6 4.5c0 .8-.7 1.5-1.5 1.5-1.6 0-2-1.2-.8-2.3 1.1-1.2 2.3-.8 2.3.8zm6.5.4c.7 1.2-1.2 2.4-2.5 1.6-1.1-.7-.4-2.5 1-2.5.5 0 1.1.4 1.5.9zM323 270.3c0 .5-.4.5-1 .2-.5-.3-1-.2-1 .2 0 .5-1.6 1.5-3.5 2.2-1.9.7-3.5 1.6-3.5 2 0 .5-1.5 1.5-3.2 2.2-1.8.7-3.7 1.7-4.3 2.1-.5.5-1.9 1.5-3 2.3-1.6 1.2-1.6 1.4-.2.9.9-.3 1.7-.1 1.7.5 0 1.3 4.9-1.2 10.1-5.2 4.3-3.3 4.9-3.3 4.9-.6 0 3.1 6.2 8.9 9.5 8.9 5.7 0 10.5-4.9 10.5-10.5 0-3.3 1.8-3.1 6 .5 1.9 1.6 4.1 2.9 4.8 3 .6 0 1.2.4 1.2 1 0 .5.6 1 1.3 1 .6 0-.1-1.2-1.8-2.5-1.6-1.3-4.2-3.5-5.7-4.9-1.4-1.4-3.8-2.8-5.2-3.2-3.8-.9-17.6-1-17.6-.1zm4.8 4.5c.2.7-.3 1.2-1.2 1.2-.9 0-1.6-.7-1.6-1.6 0-1.7 2.2-1.4 2.8.4zm6.6.1c.3.5-.1 1.1-.9 1.5-.9.3-1.5 0-1.5-.9 0-1.6 1.6-2 2.4-.6zM488.4 283.1c.2 3.7.9 7.5 1.5 8.5 1 1.6 1.1.8.7-4.2-.3-3.3-1-7.1-1.6-8.5-.8-1.9-1-1.1-.6 4.2zM405.8 285.7c.7.3 1.6.2 1.9-.1.4-.3-.2-.6-1.3-.5-1.1 0-1.4.3-.6.6z"/><path d="M443 285.9c0 .6.4 1.3 1 1.6.6.3.7-.1.4-.9-.7-1.8-1.4-2.1-1.4-.7zM476.1 300.6c0 1.1.3 1.4.6.6.3-.7.2-1.6-.1-1.9-.3-.4-.6.2-.5 1.3zM362.7 332.7c-2 2-.4 3.1 4.8 3.2 3 0 5.5-.2 5.5-.5 0-.7-6.6-3.4-8.3-3.4-.8 0-1.7.3-2 .7zM400.5 333.9c-5.2 2.1-8.8 4.2-8.2 4.7.2.2 1.7-.2 3.3-1 3.6-1.8 6.4-2.1 8.6-1.2 1.1.5 2.3.2 3.2-.7 1.3-1.3 1.2-1.6-.7-2.4-1.7-.8-3.3-.6-6.2.6zM258.4 341.6c-2.2.9 2.7 13 5.6 13.9 2.2.7 5 6.8 5 10.9 0 1.9.6 3.6 1.3 3.9 1.2.4 1.2-.4.1-5.1-.8-3.2-1.6-7.3-1.8-9.2-.2-1.9-1-5.6-1.6-8.2-1-3.8-1.7-4.9-4.3-5.7-1.6-.6-3-1.1-3.1-1-.1 0-.6.3-1.2.5zM397.3 346.6c0 .7.6 1 1.4.7.7-.3 1.3-.8 1.3-1.2 0-.4-.6-.8-1.3-.8-.8 0-1.4.6-1.4 1.3zM402.6 346.9c-.3.5.1 1.4.9 2.1 1 .9 1.5.9 1.5.1 0-.6-.5-1.1-1.1-1.1-.5 0-.7-.5-.4-1 .3-.6.4-1 .1-1-.3 0-.7.4-1 .9zM394 347.4c0 .2.8 1 1.8 1.7 1.5 1.3 1.6 1.2.3-.4s-2.1-2.1-2.1-1.3zM460.1 348.6c0 1.1.3 1.4.6.6.3-.7.2-1.6-.1-1.9-.3-.4-.6.2-.5 1.3zM400 348.4c0 .2.8 1 1.8 1.7 1.5 1.3 1.6 1.2.3-.4s-2.1-2.1-2.1-1.3zM464.2 351.5c0 1.6.2 2.2.5 1.2.2-.9.2-2.3 0-3-.3-.6-.5.1-.5 1.8zM410 352.9c0 .7-.4.9-1 .6-.5-.3-1-.4-1-.1 0 .3.9 1 1.9 1.6 1.5.7 1.9.7 1.7-.5-.3-1.9-1.6-3.2-1.6-1.6zM414 353.5c0 .8.2 1.5.4 1.5s.6-.7 1-1.5c.3-.8.1-1.5-.4-1.5-.6 0-1 .7-1 1.5zM418.7 354.4c-.4 1 .1 2 1.4 2.6 1.1.6 1.7 1.5 1.4 2.1-.4.5-.1.9.4.9 1.5 0 1.4-.5-.8-4-1.4-2.4-2-2.7-2.4-1.6zM425.7 357.1c.7.7 1.5 1 1.8.7.3-.3-.2-.9-1.2-1.2-1.4-.6-1.5-.5-.6.5zM427 359.4c0 .3.9 1 2 1.6 1.1.6 2 .8 2 .6 0-.3-.9-1-2-1.6-1.1-.6-2-.8-2-.6zM462.2 359.5c.4.4 0 1.3-.9 2-1.3 1-1.4 1.3-.2 2 .8.5 1.1.5.7 0-.4-.4 0-1.3.9-2 1.3-1 1.4-1.3.2-2-.8-.5-1.1-.5-.7 0zM459 365.7c0 .7.5 1.5 1 1.8 1.5.9 1.2 3.4-.5 5.1-.8.9-1.5 2.3-1.4 3.2 0 1.4.2 1.3.9-.3.7-1.7.9-1.6 1.1 1 .1 2.3.4 1.9 1.2-2.2.8-4.2.7-5.5-.7-7.4-.9-1.3-1.6-1.8-1.6-1.2zM408.4 369.2c-.3.5-1.1.8-1.7.7-.7-.1-5.2 0-10.2.1l-9 .3 10 .8c5.5.5 10.9 1 12 1.2 1.1.2 3.5 0 5.5-.5 3.9-1 6.5-1.5 9.5-1.7 1.6-.1 1.7-.3.5-1-1.9-1.2-15.9-1.1-16.6.1zM337.2 369.8c-.7.2-1.2.8-1.2 1.3 0 1 12.2 1 26.5-.1l10-.8-12.5.3c-6.9.1-14.6-.1-17.1-.4-2.5-.4-5.1-.5-5.7-.3zM385.5 371c-.3.5-.1 1 .4 1 .6 0 1.1-.5 1.1-1 0-.6-.2-1-.4-1-.3 0-.8.4-1.1 1zM270.4 376.5c-1.5 3.1 1.1 9.1 3.1 7.2.9-.8 1-1.7.3-3-.5-1-.7-2.5-.4-3.2.2-.7-.1-1.8-.7-2.4-.9-.7-1.5-.3-2.3 1.4zM455.2 377.8c-1 9.3-1 12.2-.2 11.7 1.3-.8 1.2.6-.1 2.5-.8 1.1-1.2 1.2-1.6.2-.8-1.9-2.1-1.4-2.5 1-.2 1.2-.9 2.3-1.7 2.6-.8.3-1.1 0-.8-.5.3-.5 0-1-.7-1-1.4 0-1 4.3.5 5.3.5.3.9 1 .9 1.6 0 .7-.4.7-1.3-.1-.8-.6-1.7-.8-2-.4-.4.3-.7-.5-.8-1.8 0-1.3-.3-1.8-.6-1.1-.2.6-.8 1-1.3.7-.4-.2-1.5.4-2.5 1.5-1.5 1.7-1.6 2.2-.4 3.7.8.9.9 1.4.3 1-1.2-.7-2.9 2-2.5 3.8.1.5-.3.4-1-.3-1.8-1.7-2.9-1.5-2.9.5 0 1.1-.3 1.4-.8.7-1.1-1.7-4.1-2.4-4.8-1.2-.4.6-.3.8.2.5.6-.3 1.5.2 2.1 1.2 1 1.5.9 1.8-.5 1.7-1 0-1.6.5-1.4 1.3.2 1.1-.3 1-2.3-.3-1.6-1-2.5-1.2-2.5-.5 0 .8-.6.7-1.7-.2-1.1-1-1.4-1-.9-.2.4.7.9 2.2 1.1 3.4.4 1.8.2 1.9-1.2.7-1.2-.9-1.5-.9-.9-.1.4.8.2 1.3-.4 1.3-.6 0-.8.5-.5 1 .4.7-.5.9-2.7.6-1.8-.3-2.7-.3-2 0 .6.3.9 1 .6 1.6-.3.5-1.5.2-2.7-.9-1.2-.9-1.7-1.1-1-.4.9 1 .9 1.8 0 3.3-1 1.5-.9 2 .3 2.8 1.3.8 1.3 1.1.1 2.2-.8.7-1.1.8-.8.2.4-.7 0-1.7-.8-2.4-1.5-1.2-1.6-1.1-1.9 1 0 .5-.4 1-.8 1-.5 0-1.7.9-2.8 2-1.2 1.2-2.5 1.8-3.1 1.5-.6-.4-.8.3-.6 1.7.2 1.2.2 1.7 0 1-.3-.7-.9-.9-1.5-.6-2.3 1.5-9.3 1.1-10.6-.5-.7-.9-1.2-1.2-1.1-.6.3 2.5-.3 2.6-2.1.2-1.9-2.4-4.1-3-4.8-1.3-.2.4 0 1.1.4 1.4.4.4.4.2.1-.5-.8-1.2 1.7-1.2 3 .1.4.4.3.7-.2.6-.6-.1-1.2-.1-1.5 0-2.1.8-4.6.7-5.7-.2-1.1-.8-1.2-.7-.7.7.5 1.3.4 1.6-.4 1.1-.7-.4-1.2-.2-1.2.3 0 .6-.5 1.1-1.1 1.1-.5 0-.8-.4-.5-.8.2-.4.1-1.4-.5-2.2-.6-1.1-.9-1.2-.9-.2 0 .7-.4 1-1 .7-.5-.3-1 0-1 .8s-.9 1.3-2.2 1.2c-1.3-.1-2.8.5-3.5 1.4-1 1.4-1.1 1.2-.7-.9.5-2 .3-2.2-.5-1-1 1.3-1.1 1.3-1.1 0s-.1-1.3-1 0-1 1.3-1 0c0-1.2-.2-1.2-.9-.1-.6.9-1 1-1.6.2-.4-.7-2-1-3.6-.7-1.6.2-2.9 0-2.9-.5 0-.6-.5-.7-1.2-.3-.8.5-.9.2-.4-1.1.5-1.5.4-1.6-.9-.5-.9.7-1.8 1-2.2.7-.3-.4-1.2-.2-1.9.4-.9.8-1.1.5-.7-1 .3-1.2 1-1.8 1.6-1.4.6.3.7.1.3-.5-.5-.9-1.5-.8-3.8.4-1.8.9-2.7 1.1-2.3.4.4-.7.2-2.3-.5-3.6-1-1.8-1.6-2.1-2.6-1.3-1.3 1.1-.8 4.3.5 3.4.4-.2.8.3.8 1.1 0 1.1-.7.8-2.4-1-2.7-2.9-3.4-3.1-5.2-1.4-.8.7-.6.1.3-1.4 2.1-3.2.5-4.8-2.2-2.2-1.6 1.7-1.6 1.8.3 1.1l2-.7-2 1.6c-1.1.8-1.9 2.1-1.7 2.9.1.7-.2 1.6-.8 2-.6.4-.7 0-.4-1 .5-1.1 0-1.8-1.5-2.2-1.4-.3-2-1.1-1.7-1.9.4-1.1-.2-1.3-2.5-.9-2.5.5-3 .3-2.6-1 .9-2.1-.7-1.9-2.8.5-1 1.1-2 1.8-2.3 1.5-.3-.3-1.2.1-2.1.8-.8.6-.5-.3.8-2 1.6-2.4 1.8-3.1.7-2.7-.9.4-2.4 0-3.3-.7-1.5-1.2-1.6-1.2-1 .3.4 1.2.2 1.5-.9 1.1-.7-.3-1.4-1.1-1.4-1.9 0-.8-.5-1.4-1.1-1.4-.5 0-.7.6-.4 1.2.4.7 0 .5-.8-.4-.8-1-1.7-1.5-2-1.2-.3.3-1-.4-1.7-1.5-.6-1.2-1.5-1.9-2.1-1.6-.5.4-.9.1-.9-.5 0-.7-.7-1-1.5-.6-.8.3-1.9-.3-2.5-1.4-.7-1.3-.6-2 .2-2.2.8-.3.5-1.1-.9-2.3-1.2-1-2-2.2-1.7-2.7.3-.4-.2-.5-1-.2-1.5.6-2.1-.6-1.7-3 .1-.5-.5-.4-1.3.4-1.4 1-1.6 1-1.6-.6 0-1.1-.5-2.6-1.1-3.4-1-1.3-1-1.3-.6 0 .2.8.1 2.4-.3 3.5s-.2 2.5.4 3.1c.6.7 2 2.4 3 3.8 2.1 2.9 3.2 3.3 3.9 1.3.2-.6.2-.1 0 1.1-.3 1.9 1.1 3.8 6.2 8.9 3.6 3.5 7 6.1 7.5 5.8.6-.3 1-.2 1 .4 0 .6.6.8 1.4.5 1.1-.4 1.3 0 .9 1.7-.4 1.4-.2 2 .5 1.5.6-.3 1.3.3 1.7 1.4.5 1.5 1 1.8 1.9 1.1.8-.7 1.7-.6 2.6.1 1.3.8 1.2.9-.2.5-1-.4-1.8.1-2.1 1.4-.3 1.3-.1 1.7.6 1.2.7-.4 2-.9 3.1-1 1.6-.3 1.5 0-.5 1.6l-2.3 1.9 2.7-.3c1.6-.2 3.4-.8 4.1-1.4.9-.8 1.8-.6 3.2.5 1 .8 1.4 1.3.8 1-.7-.3-1.8.2-2.5 1.1-1.2 1.5-1.2 1.6.1.8 2.8-1.7 9.3 0 6.9 1.7-1 .7-.8.8.8.5 1.5-.3 2-.1 1.6.9-.3.8 0 1.4.6 1.4s1.1-.4 1.1-.9c0-.6.9-.9 1.9-.8 1.1 0 1.8.4 1.6.7-.2.4 1.2 1.2 3.2 1.9 2.4.9 3.2 1.6 2.3 2.1-.9.5-.5.8 1.1.8 6.1.1 8.1.6 8.6 1.9.4 1 .9 1.1 1.9.2.8-.7 1.7-.9 2.1-.5.3.3 0 .7-.8.8-.8 0 .6.4 3.1.7 2.5.3 4.4 1.1 4.3 1.7-.2 1.1 4.2 1 7.9-.1.9-.3 1.9-.1 2.3.5.9 1.5 4.7 1.2 7.1-.5 2-1.3 2.1-1.3 1.6 1.1l-.5 2.5 2.9-2.6c2.4-2.3 2.9-2.4 3.4-1 .5 1.6.7 1.6 1.9.1.7-.9 1.8-1.6 2.4-1.6.6 0 .8.3.4.6-.3.3 0 1.2.6 1.9 1 1 1.8.6 4.4-2l3.2-3.3 1 2.7.9 2.6.2-3c.1-2.6.3-2.7 1-1 .5 1.1.9 1.6.9 1.1.1-.6.7-.1 1.5.9.8 1.1 1.2 2.4.8 2.9-.3.5.2.7 1.1.3 1.4-.5 1.7 0 1.7 2.8 0 4.1-1.5 5.3-3.9 3.1-1.6-1.5-1.8-1.4-1.6.6.1 1.5.8 2.2 1.8 2 1.3-.2 1.4.3.7 2.8-.5 1.6-.5 3-.1 3 1 0 4.4-6 3.4-6-.4 0-.2-.4.4-.8.7-.5 1.4-2 1.5-3.5.1-1.5.5-2.7.9-2.7.3 0 1.2-1.9 1.9-4.3 2.1-6.9 3.3-10 6-14.5 4.7-8.2 5.5-9.1 13-14.8 8.2-6.3 16.3-14.3 18.6-18.4.8-1.4 2.3-3.9 3.3-5.5 2.6-4.5 5.1-12.4 4.4-14.2-.4-1.1-.3-1.4.5-.9.7.4 1.2.3 1.2-.3 0-.5-.5-1.1-1.1-1.3-.6-.2-1.1-1.6-1.1-3.1 0-3-1.3-4.5-1.6-1.9zm1.3 7.6c0 1.4-.3 2.2-.7 2-.4-.3-.8-1.7-.8-3.1 0-3.2 1.3-2.2 1.5 1.1zM437 411.1c0 .6-.4.7-1 .4-.5-.3-1-1.1-1-1.6 0-.6.5-.7 1-.4.6.3 1 1.1 1 1.6zm-18.5 8.9c.3.5.1 1-.4 1-.6 0-1.1-.5-1.1-1 0-.6.2-1 .4-1 .3 0 .8.4 1.1 1zm-97.5 6.4c0 .2-.7.9-1.5 1.6-1.3 1.1-1.4 1-.9-.4.5-1.4 2.4-2.3 2.4-1.2zm34.2 10.8c-.8.8-.9.4-.5-1.3.4-1.3.8-1.8 1.1-1 .2.7-.1 1.8-.6 2.3zm54.9 10.5c-1.2 2-1.4 1.4-.5-1.2.4-.9.9-1.4 1.1-1.1.3.2 0 1.3-.6 2.3zm-1.7 5c-1.7 1.2-3.4.9-3.4-.7 0-.4 1.1-.7 2.5-.6 2.2.1 2.3.2.9 1.3z"/><path d="M449.6 385.2c.3.5 1 .6 1.5.3 1.3-.9 1.1-1.2-.6-1.2-.8 0-1.2.4-.9.9zM447.7 390c.3 1.1.9 2 1.5 2 .5 0 .4-.9-.2-2-.6-1.1-1.2-2-1.4-2-.2 0-.2.9.1 2zM451 389c0 .5.5 1 1 1 .6 0 1-.5 1-1 0-.6-.4-1-1-1-.5 0-1 .4-1 1zM277.1 393.1c1 4.3 2.6 7.9 3.5 7.9.3 0 .4-.6.1-1.3-.2-.6 0-2.1.5-3.2.9-1.9.9-1.9-.6-.1-1.4 1.8-1.6 1.6-2.2-2.3-.4-2.3-1-4.4-1.4-4.6-.4-.3-.4 1.4.1 3.6zM437.2 402c0 1.4.2 1.9.5 1.2.2-.6.2-1.8 0-2.5-.3-.6-.5-.1-.5 1.3zM436 406.1c0 .5.5.7 1 .4.6-.3 1-.8 1-1.1 0-.2-.4-.4-1-.4-.5 0-1 .5-1 1.1zM426.5 411c.3.5.8 1 1.1 1 .2 0 .4-.5.4-1 0-.6-.5-1-1.1-1-.5 0-.7.4-.4 1zM301.7 414.7c-.4.3-.7 1.1-.7 1.7 0 .6.5.5 1.2-.2.6-.6.9-1.4.7-1.7-.3-.3-.9-.2-1.2.2zM309 416.9c0 .8-.7 1.1-1.5.7-.8-.3-1.5-.1-1.5.4 0 .6.6 1 1.4 1 1.7 0 3.1-1.8 2.2-2.7-.3-.4-.6-.1-.6.6zM317.3 419.5c-1 1.1-.9 1.3.6 1.2 1 0 1.8-.7 1.8-1.4 0-1.7-.9-1.6-2.4.2zM325 420.5c-.9 1.1-1 1.9-.3 2.6.8.8 1.3.5 1.8-1.1.4-1.2.5-2.4.2-2.6-.2-.2-1 .3-1.7 1.1zM329 420c-.9.6-1 1-.3 1 .6 0 1.5-.5 1.8-1 .8-1.2.4-1.2-1.5 0zM333 425c0 .5.5 1 1 1 .6 0 1-.5 1-1 0-.6-.4-1-1-1-.5 0-1 .4-1 1zM345.8 426.7c.7.3 1.6.2 1.9-.1.4-.3-.2-.6-1.3-.5-1.1 0-1.4.3-.6.6zM258 456.9c-5 1.3-8.2 1.6-14 1-4.2-.4-10.1-.2-13.4.3l-5.9 1.1 2.7 1.6c2.9 1.7 3.4 3.1 1.1 3.1-.8 0-1.4-.5-1.2-1.1.4-2.2-2.2-2-3.5.3-2.9 5.3-4.6 10.6-3.5 11.7 1.2 1.2-3 6.4-4.5 5.5-1.1-.7-4.1 6.3-3.3 7.6.4.6.1 1-.4 1-.6 0-1.1.4-1.1 1 0 .5.6.7 1.4.4 1.9-.7 3.2 1.6 1.5 2.6-.7.5-1.7.6-2.1.4-.5-.3-1.1.2-1.4 1-.3.9-1 1.4-1.5 1.1-.4-.3-1.3.5-2 1.7-.6 1.3-2.1 3.3-3.3 4.6-1.7 1.9-1.7 2.2-.3 1.6.9-.3 1.7-.2 1.7.4 0 .5-.7 1.2-1.5 1.6-.8.3-1.5 1.1-1.5 1.7 0 .9.4.9 1.4 0 1-.9 1.6-.9 2.1-.1.4.6-.1 1.8-1.1 2.5-2.5 1.9-4.8 1.9-4 0 .3-.8.1-1.5-.4-1.5-.6 0-1 .6-1 1.2-.1 1.7-9.4 6-9.9 4.6-.6-1.6 3-3.9 5.1-3.2 2.2.7 2.4-1.1.2-2-2.5-1-9.2-.7-9.9.4-.3.5.3 1 1.4 1 2.4 0 2.5.3.9 2.9-1.2 1.9-1.2 1.9-3.6 0-1.3-1-2.9-1.6-3.4-1.3-.5.3-.1 1.2.9 2 1.7 1.2 1.6 1.3-.8 1.4-1.5 0-3.2.7-3.9 1.5-1 1.2-1 1.5 0 1.5.7 0-.4 1.3-2.4 2.9-2 1.6-3.7 3.3-3.8 3.8-.1 2.1-2.1 4.4-3.6 4.2-.9-.1-2.6.2-3.6.6-1.8.8-1.8.9-.3 1.4 1.5.6 1.6.9.5 2.4-.8 1-2.3 1.9-3.5 2-1.6.1-1.9.5-1.2 1.3.6.8.6 1.4.1 1.8-.6.3-1.2-.1-1.6-.9-.3-.8-1.1-1.5-1.8-1.5-1 0-14.5 12.7-23.6 22.2-.7.7-3.4 3.3-5.9 5.8-2.6 2.5-4.6 4.8-4.6 5.1.1.3-.9 1.2-2.2 1.9-1.4.7-2.5 1.7-2.5 2.2 0 .4-.8.8-1.7.8-1.5 0-1.6.2-.3.9.8.6 1.9.7 2.5.4.5-.4-.2.6-1.7 2.2-1.6 1.5-2.8 3.1-2.8 3.6s-.6.6-1.3.3c-.8-.3-2 .3-2.7 1.3-1.2 1.5-1.2 1.6 0 .5 2.5-2.2 3.2-1.3 1.2 1.5-3.1 4.5-3.6 5.7-2.4 4.9 1.7-1.1 1.5 1.9-.3 3.4-.8.6-2 .8-2.7.4-.7-.3-.3.3.8 1.6 2 2 2.3 2.1 5.1.7 1.9-1 3.4-1.2 4.5-.6 1.2.7 1.9.5 2.6-.8.5-.9 1.6-1.7 2.4-1.9 2.3-.3 1.7 2.6-.9 4.3-2.2 1.4-3.4 4.1-1.3 2.8.6-.3.7.1.4.9-.7 1.8 1.1 2.2 2.1.5.5-.7 1.5-.5 3.2.6 1.9 1.3 2.7 1.4 3.9.4 1.2-1 1.7-.9 2.7.1.9 1 .9 1.1 0 .6-.7-.4-2.1.6-3.4 2.4-1.3 1.6-2.9 3-3.6 3-1.6 0-1.7 1.2-.1 2.8 1.9 1.9 3 1.4 2.3-1-.6-2.2-.5-2.2.9-.4 1.5 1.8 3.6 1.4 3.6-.7 0-.7-.4-.6-1 .3-1.1 1.6-1.1 1.5-1.5-1.8-.2-2.1-.1-2.2 1.5-.7 1 .9 2.6 1.5 3.6 1.3 1.3-.2 1.9.3 1.9 1.7 0 1.1.4 2.5 1 3.2.5.7 1.6 1.9 2.3 2.8.7.8.8 1.5.3 1.5-.6 0-1.5-.8-2-1.8-.6-.9-1.1-1.2-1.1-.7-.1 3.6 5.7 4.6 8.5 1.5 1-1.1 2.3-2 2.9-2 .8 0 .8.2 0 .8-2.5 1.7-3.2 4.5-1.7 6.8.8 1.3 1.1 2.9.7 3.5-.4.7-.3.9.3.6.6-.4 1.5-.1 2.1.6.8 1 .5 1.2-1.6 1.1-1.5-.1-2.6-.7-2.4-1.3.1-.7-.2-1-.8-.6-.6.3-.8 1.1-.5 1.6.4.5.3 1.4-.1 2-.4.7-1.8-.1-3.9-2.1l-3.2-3.1-2.2 2.8c-1.3 1.5-1.9 2.1-1.5 1.3.4-.8 1.4-2.3 2.2-3.2 1.5-1.7.9-5.4-.6-4.4-1.4.8-7.4-5.5-6.8-7.1.3-.8.1-1.1-.4-.8-.5.3-2.8-.8-4.9-2.6-2.6-2-4.4-2.8-5.3-2.3-.8.5-.6-.2.4-1.8 1.3-1.9 1.5-2.9.6-3.4-.7-.5-.8-.3-.3.7.8 1.2.6 1.2-.8 0-1.8-1.5-2.3-2.6-.7-1.6.6.3 1 .2 1-.3 0-2-1.4-2-4-.2-1.6 1.1-3.2 2-3.7 2-.4 0 0-.5 1-1.1 1.7-1 1.5-1.4-2.2-4.6-4.4-3.7-5.1-5.3-2.3-5.4 1.6 0 1.6-.1 0-.7-1.7-.7-1.6-.9.2-4 1.1-1.8 2-4 2-5 0-.9 1.4-3.2 3.1-5 1.7-1.8 2.9-3.5 2.7-3.7-.9-.9-7.9 5.9-10.3 10-1.4 2.4-3.3 4.6-4.2 4.9-1.1.5-1.2 1-.5 1.9.8.9.6 2.1-.8 4.2-1.1 1.7-1.7 3.8-1.4 4.7.3.9-.3 2.5-1.3 3.5s-1.9 3-2.1 4.3c-.4 3.2-3.3 9.2-5.1 10.6-.8.6-1.2 1.7-.9 2.4.2.8 1.3-.1 2.7-2.3 1.2-2 2.5-3.7 2.8-3.7.3 0 1.4.9 2.4 2.1 1.4 1.6 1.6 2.6.8 4.6-1.1 2.9-.3 4.5 1.1 2.3.6-.9 2.5-1.5 5-1.5 3.2 0 3.7.2 2.5 1.1-.8.6-1.2 1.4-.9 1.7.8.7-1.5 3.1-3.7 3.9-2.8 1.1-6.2-3.3-5.3-6.8.7-2.6.6-2.8-.9-1.5-1.2.9-1.7 1-1.7.2 0-.9-.5-.9-2.1-.1-2 1.1-2 1.2-.2 3.3 1.8 2.2 1.8 2.2-.3.5-2.9-2.5-4-2.3-6 1.1-1 1.7-2.1 2.8-2.6 2.5-.4-.3-.5.2-.2 1 .3.9 1.2 1.2 2.2.9 2.9-1 3.3-1.4 2.6-2.5-.4-.6-1-.5-1.5.3-.6 1-.9 1-.9.2 0-2.5 2.1-2.2 4.9.8 1.7 1.7 3.6 2.9 4.3 2.6.8-.4.7-.6-.4-.6-2.3-.1-2.3-2.7-.1-3.5 1-.4 2.5.1 3.7 1.4 2 2 2 2.1.2 1.4-1.4-.5-1.7-.4-1.2.4.4.7.1 1.5-.8 1.8-.9.3-1.3 1.6-1.2 3.2.2 1.4-.2 3.1-.8 3.8-1.2 1.3-2.6.9-2.6-.7 0-.6.4-.8.9-.5 1 .7 2.3-1.9 1.4-2.8-.4-.3-1.3-.1-2 .6-2.1 1.7-5.3 1.7-5.3 0 0-1.2-.2-1.2-1.7-.1-1.5 1.2-1.6 1.2-1.1-.8.4-1.4-.1-2.9-1.3-4.2-1.8-1.9-1.9-2.3-.4-5.1.9-1.7 2.4-3.5 3.4-4.2 1.1-.6 1.7-1.8 1.4-2.5-.3-.8.2-1.3 1.3-1.3 1.6 0 1.6-.2.4-1-1.2-.8-1.1-1.3.8-3.9 1.2-1.7 2.3-3.9 2.5-4.9.1-1.1 1.1-3.2 2.2-4.8 1.1-1.6 2-3.1 2-3.4 0-.3.4-1.2.9-2s-.7.1-2.7 2c-1.9 1.9-3.7 4.1-3.9 4.9-.4 1.9-4 5.6-5.4 5.6-1.2 0-4.2 2.9-7.9 7.5l-2 2.5 2.5-2c1.4-1.1 3.7-3.3 5.1-4.9 2.6-3 2.6-3 3.2-.7.3 1.3.3 2.1 0 1.8-.3-.3-1.5.6-2.8 2.1-2.5 3.1-7.6 12.7-7 13.4.2.2-.7.5-2.2.6-1.7.1-2.3-.2-2-1.1.3-.6.9-2.1 1.3-3.2s-1.6.7-4.4 3.9c-2.9 3.3-5.2 6.6-5.2 7.4 0 .8-.9 3-2.1 4.8-1.1 1.9-1.8 3.8-1.4 4.4.3.5.2 1-.3 1-1.1 0-3.3 8-2.6 9.2.3.5.1 1.4-.4 2.1-1.4 1.8-5.4 13.9-4.8 14.5.3.3.1 1.1-.5 1.9-.6.7-.8 1.3-.4 1.3s.2.6-.4 1.4c-1.6 1.9-4.9 20.8-5.7 32.8l-.7 9.8h4.2c2.8 0 4.1-.4 4.1-1.4 0-.8.7-1.6 1.5-2 1-.3 1.5.1 1.5 1.2 0 1.5 1.2 1.8 7.9 2 6.1.2 7.9 0 7.7-1-.2-.7-.6-3.4-1-6-.5-3.1-1.4-4.8-2.5-5.1-1.3-.4-1.3-.5.3-.6 1.4-.1 1.7-.7 1.3-2.8-.3-1.8 0-3.1 1.1-4 1.6-1.1 1.5-1.2-.3-1.4-1.1-.1-2.4-.1-2.8 0-.5.1-.6-.2-.3-.7.8-1.4 1.1-11.4.3-13.7-1.3-4-1.5-7.5-.6-7.5.6 0 .8-.4.5-.8-.3-.5.8-.9 2.4-1 2.3 0 3 .4 3 1.8 0 1 .3 2.5.6 3.4.4 1-.3 1.9-2 2.7-1.4.7-2.6 1.6-2.6 2.1s.5.6 1 .3c1.3-.8.8 1.8-.5 2.7-.6.5-.5.8.3.8.7 0 1 .4.7 1-.3.5-.2 1 .4 1 .5 0 1.3-.5 1.6-1 .3-.6 1.1-1 1.7-1 .6 0 .9.2.6.6-.3.3-.2 2 .2 3.8.6 2.7.4 3.7-1.2 5-1 .9-1.6 2.2-1.2 2.8.5.7.2.9-.7.4-.8-.4-.5 0 .5.8 1.1.9 1.4 1.6.8 1.6-.7 0-1.2.5-1.2 1 0 .7.6.7 1.9 0 2.8-1.4 2.8-1.4 3.3 2.6.4 3 0 3.8-2.4 5.2-1.5.9-2.8 2.2-2.8 2.9 0 1.8.6 1.6 2.9-.8 1.4-1.5 2.1-1.7 2.6-.8.5.7.4 1-.2.6-.9-.6-1.7.9-2.2 4-.1.3 1.7.7 3.8.9 3.7.4 4 .2 3.8-2.1-.3-3.3 1.7-3.6 2.1-.3l.3 2.8h13c8.4 0 12.8-.4 12.4-1-.3-.5-.1-1 .4-1 .6 0 1.1.4 1.1 1 0 .5 2.3 1 5.1 1 4.4 0 5-.2 4.5-1.7-.6-1.7-.5-1.7.8-.1 1.1 1.5 2.9 1.8 10.5 1.8 5.9 0 9-.4 8.6-1-.3-.6-.1-1 .4-1 .6 0 1.1.4 1.1.9s7.5 1 17.1 1.1c15.1.1 17.1-.1 16.6-1.5-.5-1.1.1-1.5 2.1-1.6l2.7-.1-3-1.3c-1.6-.8-2.5-1.4-1.8-1.5.7 0 1-.6.7-1.4-.3-.7.7-2.1 2.1-3 2.1-1.4 2.9-1.5 4.1-.5.8.6 1.2 1.4.9 1.7-.2.3.3 1.1 1.3 1.8 1.6 1.2 1.6 1.4-.5 3.6-1.3 1.4-2.3 2.7-2.3 3 0 1.1 6.1.2 6.9-1 .7-1.1.9-1 1.4.2.5 1.2 2 1.6 5.7 1.6 2.7 0 5-.2 5-.5 0-.7-3.1-4.5-7.2-8.8-2.4-2.5-4.2-3.6-5-3.1-1.1.6-1.1.5 0-.8 1-1.3 1-1.7-.3-2.2-1.1-.4-1.4-.2-.9.6.4.7.3.8-.4.4-.6-.4-.9-1.3-.6-2 .3-.8.1-1.7-.5-2.1-2-1.2-1.2-2.6.9-1.5 1.6.8 2.2.7 3.2-1 1.7-2.7 2.3-2.5 4.8 1 1.6 2.3 1.9 3.4 1.1 4.4-.6.7-.8 1.6-.4 1.9.3.4 0 .7-.7.7s-1 .3-.6.8c.4.4 1.3.7 1.9.7.7 0 1.1 1 1.1 2.3-.2 2.4.6 2.8 2.3 1.1.9-.9 1.9-.4 3.9 1.6 2.2 2.2 2.5 3.1 1.7 4.5-1 1.5-.5 1.7 4.9 1.9 5.5.2 6 0 5.3-1.6-1.8-4.3-1.6-4.8 2-6.5l3.7-1.6 1 2.9c.5 1.6 1.4 2.9 1.9 2.9 1.5 0-.2 2.9-1.9 3.3-1 .3 8.1.5 20.1.6l21.8.1-.7-2.3c-.4-1.2-1-2.4-1.5-2.7-1.4-.9-1.6-7.5-.2-8.8 1.7-1.7 1.7-3.6 0-2.9-.9.3-1.4-.6-1.5-3.2-.4-5.8-1.1-7.1-4-7.2-2.3-.1-2.2-.3.8-.8 1.9-.4 4.8-.6 6.3-.5 2 0 2.6-.3 2.3-1.3-.3-.7-.1-1.3.3-1.3.9 0 2.1 2.3 2 3.6 0 .4.5 1.1 1.3 1.5 1.1.7 1.1.9 0 .9-.9 0-1.1.7-.7 2 .6 1.9-.3 2.6-2.9 2.1-.5-.1-1.3.4-1.7 1.1-.7 1.1-.9 1.1-.9 0 0-.7-.5-1-1.1-.7-.7.5-.5 1.3.6 2.5.9 1 1.3 2.5.9 3.6-.5 1.8-.5 1.8.9.1 1-1.2 1.7-1.4 2.2-.7.3.5 1.1.8 1.6.5.5-.4.9.5.9 1.9 0 2 .5 2.6 2.3 2.6 2.2.1 2.2.1.2 1.6-1.1.9-3.2 2-4.7 2.6-3.2 1.1-3.5 2.3-1.3 4.4 1.3 1.4 1.5 1.3 1.5-.6 0-1.4-.4-1.9-1.2-1.4-1 .5-1 .4-.1-.6 1.6-1.7 3.2-.4 2.6 2-.5 1.8 0 2 4.6 2s5.1-.2 5.1-2.3c0-1.7.2-1.9.9-.7.6.8.8 1.7.6 2.1-.3.3 6.1.7 14 .8 9.3.1 14.5-.2 14.5-.9 0-1.6-.4-2.5-1.1-2.3-.4.1-1.5-1.9-2.4-4.4-1.6-4.3-1.7-4.7-.2-5.8.9-.7 1.4-1.5 1-1.8-.3-.4-.1-.7.5-.7 1.6 0 1.5 2.3 0 3.9-1.1 1.1-1 1.2.1.6.9-.5 1.9-.1 2.9 1.1 1.3 1.8 1.4 1.7.8-.9-.8-3.2.1-3.6 1.3-.5.5 1.3.3 3.1-.5 4.7-.7 1.4-1.2 3.5-1 4.6.3 1.9 1.1 2 16.4 2.2 10.6.2 16.2-.1 16.2-.8 0-.6-.3-.8-.7-.6-.5.3-.9-1.6-1-4.1-.1-2.6-.6-4.8-1.1-5-.5-.1-.7-1.4-.4-2.7.2-1.4.1-3.3-.3-4.2-.5-1-.7-2.8-.6-4.1.2-1.3-.6-3.3-1.6-4.5-1-1.1-1.2-1.7-.5-1.3 1.6.9 1.6-2.3 0-6.1-.6-1.5-1-3.4-.9-4.1.1-.7-.9-1.2-2.6-1.2-1.5 0-3.5-.5-4.3-1.1-1.1-.8-.6-.9 2-.4s3.1.4 2-.4c-.8-.6-1-1.1-.5-1.1.6 0 1.7.6 2.4 1.3 1.1 1 1.3.8.7-1.3-.3-1.4-.6-3.1-.6-3.9 0-.8-.6-1.1-1.7-.7-1.7.6-1.7.5 0-.8 1.9-1.5 1.6-5.6-.7-8.5-.8-1.1-.8-1.3.1-.8.8.5.8-.2 0-2.8-.6-1.9-1.3-3.5-1.6-3.5-.3 0-.6-1.5-.5-3.2.1-3.9-2.2-12.4-4.2-15.6-.9-1.3-2.5-2.2-4.2-2.3-1.5 0-2.1-.3-1.4-.6 1.3-.5-1.9-3.3-11.8-10-4.5-3.1-9-6.9-9-7.8 0-.1.7-.2 1.5-.2s1.1.5.8 1.1c-.4.6.3.3 1.5-.8 1.2-1 1.9-2.3 1.6-2.8-.4-.6-1-.6-1.7.1-1.6 1.6-3.1 1.3-1.7-.4.6-.8.9-2.3.5-3.5-.5-1.4-.2-2 1-2 .9 0 1.3.4 1 1-.3.6.1.7.9.4.9-.3 1.6-1.3 1.6-2.1 0-1 .6-1.2 1.9-.8 1.6.5 2.2-.1 3-3.2 1.4-5.1 1.4-5.3-1-7.4-1.2-1-1.8-2.3-1.3-3 .4-.8.3-.9-.4-.5s-1.2.3-1.2-.3c0-.5.5-1.3 1-1.6.6-.3 1-1.1 1-1.7 0-.7-.6-.6-1.5.2-.8.7-1.5.8-1.5.3 0-.6-.9-2-2-3.3-1.1-1.3-2-2.7-2-3.3 0-.5.9-.7 2-.4 2.3.6 2.7-.8.5-1.7-2.1-.8-1.9-2.6.3-2.5 1.1 0 1.2.2.4.6-1 .4-.9.8.4 1.7 1.3 1 1.4 1.7.6 3.2-.7 1.3-.7 2.6-.1 3.5.5.7.9 1.2.9.9.1-.3.3-2.1.6-4.1.4-2.8-.2-5-2.6-9.5-1.7-3.3-2.8-4.9-2.5-3.7.6 2.2-.9 4.1-2 2.3-.3-.5-1.7-1-3.1-1-1.9 0-2.4-.5-2.4-2.6 0-2.4.3-2.6 3.4-2.2 3.3.4 3.3.3 2.3-2.2-1.6-3.7-2.4-4.4-5.5-4.5-2.2 0-2.8-.5-3-2.9-.3-2.6-.2-2.8 2.3-2.2l2.6.7-1.6-3.1c-.8-1.6-2-3.1-2.5-3.1-.6-.1-1.5-.2-2.1-.3-.7 0-1.5-1-2-2.1-1.2-3.1-1-3.9.6-2.5 1.8 1.5 1.9.1.1-2.2-.7-1-1.7-1.4-2.1-1-.5.4-.5.1-.1-.6.5-.9 0-1.9-1.3-2.8-1.2-.8-2.1-2.1-2.1-2.7 0-.7.4-.6 1.1.3 2.9 4.1-.4-1.9-6.9-12.6-12.6-20.6-31.3-45.1-33.5-43.7-2.1 1.3-5.8 1.4-7.3.2-2.7-2.2-.2-3 7.5-2.4l7.8.6 3.9-4.3c5.8-6.3 10.5-13.4 9.8-15.1-.3-.9.3-1.6 1.5-2 1.2-.3 2.1-1 2.1-1.6 0-1.4-.1-1.4-8 .8zm-32 8.7c0 .8-.5 1.2-1 .9-.6-.4-.8-1.1-.5-1.6.9-1.4 1.5-1.1 1.5.7zm7.1 2.1c.7 1 1 1.5.5 1.1-.5-.4-2.1-.1-3.7.7-3.4 1.8-5.3 0-2.4-2.2 2.5-1.8 4-1.7 5.6.4zm2.9 3.7c0 .2.2 1 .5 1.8.4.9-.3 1.4-1.9 1.6-1.4.1-3 .3-3.7.4-2.2.5-2-1.9.3-3 2.4-1.1 4.8-1.5 4.8-.8zm-11.1 11c0 .6-.3.5-.6-.2-.4-1-1.1-.8-2.9.9-2.4 2.3-2.4 2.3-2.1.2.1-1.2.9-2.9 1.7-3.8 1.3-1.6 1.5-1.6 2.7.1.7 1 1.3 2.3 1.2 2.8zm.8 7c-3.1 3.1-3.4 3.2-3.9.8-.2-.9.8-3 2.2-4.5 2.4-2.7 2.5-2.8 3.3-.8.7 1.5.4 2.5-1.6 4.5zm19.2-3.1c1.3 1.6.5 2.7-2.1 2.7-1.1 0-1.6.4-1.3 1 .3.5.2 1-.4 1-1 0-4.1-3.9-4.1-5.2 0-1.4 6.7-.9 7.9.5zm-12.9 6.2c0 .8-1.4 2.2-3 3-3.4 1.7-5.8 1.2-4.1-.9.6-.7.9-1.6.6-1.9-.3-.4-.2-.5.2-.2 1 .8 3.4-1.6 2.7-2.7-.4-.6.3-.5 1.5.1 1.1.7 2.1 1.8 2.1 2.6zm18 1.4c.8 1.6.5 2.1-2.2 3-4.9 1.7-8.3-2-3.5-3.9 3.4-1.3 4.5-1.2 5.7.9zm-32.5 1.3c-1.1.7-2.1 1-2.1.7-.1-.2-1.1.4-2.2 1.5-3 2.6-5.2 1.6-2.4-1.2 1.4-1.4 3.4-2.2 5.5-2.2 2.9.1 3 .2 1.2 1.2zm3.6 3.5c1.3 1.6 1.2 1.7-.3.4-1-.7-1.8-1.5-1.8-1.7 0-.8.8-.3 2.1 1.3zm14.9.2c1.4 2.7 1.4 2.8-2.2 4.5-3.3 1.7-4.6 2-3.5.9.4-.3-.1-1.2-1.1-2-1.3-1.1-1.4-1.6-.4-2 .7-.3 1.8-1.1 2.5-1.9 1.7-1.9 3.5-1.7 4.7.5zm-17.1.8c.5 1 .9 2.2.9 2.8-.1.5.8 1.5 1.8 2 2.5 1.3 3 5.4.6 5.4-.9 0-2.8.2-4.2.3-1.9.2-2.5-.2-2.6-1.7-.1-1.1-.2-2.5-.3-3.1-.1-.7-1-1.4-2.1-1.7-2.8-.7-2.5-2.4.8-4.1 3.5-2 3.9-1.9 5.1.1zm36.1 1.8c1.5 1.8 1.5 1.7-2.8 3.5-2.9 1.1-3.5 1.1-4.3-.1-1.3-2.1-1.1-2.5 1.4-3.7 3.1-1.5 4.3-1.4 5.7.3zm-14 7.7c0 1-.3 1.7-.7 1.7-.5-.1-1 0-1.3.1-1.6.6-5 .5-5-.1 0-.5-.8-.5-1.7-.2-1.6.6-1.6.5-.3-.8.8-.8 2.3-1.8 3.3-2.2.9-.3 1.7-1.3 1.7-2.2 0-1.3.3-1.2 2 .2 1.1 1 2 2.5 2 3.5zm19 .7c1.3 2.5 1.3 3.4 0 2.6-.5-.3-1-.2-1 .2 0 1.7-5.3 1.3-6.5-.4-1.9-2.5-.9-3.8 3-4 2.5-.2 3.7.2 4.5 1.6zm-51.2 3.3c.1.8-.9 2-2.3 2.6-2.2 1-2.7.9-3.2-.5-.4-1 .1-2.1 1.2-3 2.2-1.6 3.9-1.2 4.3.9zm10.6-1c-.5.8 0 .9 1.7.4 4.9-1.4 5.8-1.4 6.2-.2.3.7.1 1.9-.4 2.7-.5.8-.9 1-.9.5 0-.4-1.2-.1-2.6.9-2 1.3-2.8 1.4-4 .4-1.5-1.2-1.9-4.1-.7-5.2 1-1.1 1.5-.8.7.5zm20.1.8c-.3.5.1 1 .9 1s1.8-.5 2.2-1.1c.4-.8 1.2-.2 2.1 1.5 1.6 3 .4 5.6-2.4 5.6-.8 0-1.1.4-.8 1 .3.5 0 .7-.8.4-2.3-.9-3.9-5.2-2.7-7.5.6-1 1.3-1.9 1.6-1.9.3 0 .2.4-.1 1zm-39.4 3.5c.1.5.5 1.6 1.1 2.2.6.7.8 1.3.4 1.3-.8 0-4.6-3.8-4.6-4.6 0-1 3.1.1 3.1 1.1zm58.9-.1c0 .2-.7.7-1.6 1-.8.3-1.2.2-.9-.4.6-1 2.5-1.4 2.5-.6zm-60.9 2.3c1.2 1.5 1.2 1.6-.3 1-1.3-.4-1.8-.1-1.8 1.1-.1 1.5-3.2 6.2-4.2 6.2-1.3 0-.4-4.8 1.3-7.2 2.4-3.2 3.1-3.4 5-1.1zm14.7 1.4c.2 2.3-.3 2.8-2.9 3.4-4.4 1-5.7-1.3-2.3-4.1 3.4-2.8 5-2.6 5.2.7zm14.4-.9c3.4-.7 6.3 5 3.3 6.2-2.4.9 0 5 2.6 4.3 1.3-.3 2.3.2 3 1.5 1.3 2.4 1.1 2.6-3 3.8-2.6.7-3.3.6-4.2-1.2-.8-1.6-.8-2.2.2-2.9 1.7-1-.8-4.2-2.8-3.5-.7.3-1.9-.7-2.8-2.4-1.8-3.5-2-6.4-.3-5.4.8.5.9.1.5-1.2-.6-1.6-.5-1.7.5-.4.7.9 2.1 1.4 3 1.2zm36.6-1c.7.7 1.2 1.7 1.2 2.3 0 1.1-5.9 5-6.4 4.3-.2-.1-.8-1.3-1.5-2.5-.9-1.8-.8-2.4 1.1-3.7 2.7-1.9 4-2 5.6-.4zm-75.5 3.8c-.3 1.1-.9 1.7-1.4 1.4-1.4-.8-1-3.4.5-3.4.9 0 1.2.7.9 2zm59.7.2c0 .5-.4.7-.9.4-.4-.3-1.7.4-2.7 1.6-1.9 2.1-1.9 2.1.1 1.4 4.9-2 5.3-1.9 6.1 1.6.4 1.8.6 4.1.5 5.2-.2 1.1.2 1.6.8 1.1.6-.3 1.4.1 1.7.9.3.9.9 1.4 1.3 1.2.4-.3.8.5.8 1.6.4 4.2-5.8 6.4-7.7 2.9-1.4-2.6-1.3-2.8 1-3.4 2.4-.6 2.5-1.6.5-4.3-1.2-1.6-1.6-1.7-2.4-.4-.7.9-.6 1.9.2 3 .6.8.2.6-1.1-.4-1.2-1.1-2.2-2.7-2.2-3.7s-.5-2.1-1-2.4c-.6-.4-.8-1-.5-1.5.3-.5.1-1.1-.5-1.5-.6-.4-.8-1.1-.4-1.6.3-.5.9-.7 1.4-.4.4.3 1-.4 1.3-1.5.3-1.3 1-1.8 2.1-1.4.9.3 1.6 1 1.6 1.6zm-65 .8c0 .5-.5 1-1.1 1-.5 0-.7-.5-.4-1 .3-.6.8-1 1.1-1 .2 0 .4.4.4 1zm-2.1 4.1c2.3 1.9 2.3 2 .6 3.9-1.4 1.6-2.1 1.8-2.8.8-.6-.9-.7-.8-.3.5 1 3.1-1.5 6.3-7.4 9.8-5.5 3.2-5.7 3.4-3.8 4.7 1 .8 1.7 2 1.4 2.7-.2.7.2 1.6 1 1.9.9.3 1.2 1 .9 1.6-.9 1.4-2.1 1.2-3.9-.6-.9-.8-2-1.3-2.5-.9-.6.3-1.5-.4-2.1-1.5-.9-1.6-.8-2.2.5-2.6.8-.3 1.5-1 1.5-1.6 0-.5-.4-.6-1-.3-1.7 1.1-1.1-1.1.8-2.7.9-.8 2.7-1.3 4-1.2 2.3.1 3.1-2.1 1-2.8-1.7-.6 1.4-3.8 3.5-3.8.9 0 1.3-.7 1.1-1.8-.5-1.8 3-8.2 4.3-8.2.5.1 1.9 1 3.2 2.1zm82-.4c0 1.1-.3 1.3-.6.5-.2-.6-1-.9-1.5-.6-.7.4-.8.2-.4-.4 1.1-1.8 2.6-1.4 2.5.5zM217 528c.5 1 .6 2 .3 2.4-.3.3-.1.6.6.6s.9.5.5 1.1c-.4.8-.9.7-1.5-.2-.6-1-1.3-1-3.3-.1-2.1.9-2.7.9-3.5-.5-1.3-2.3.7-5.1 3.6-5.1 1.3 0 2.8.8 3.3 1.8zm-21.9 3.3c-1.5 1.5-2.4.2-1.6-2.4.7-2 .8-2.1 1.7-.5.7 1.2.7 2.1-.1 2.9zm73.4-3.5c1.7 1.2 1.6 3.9 0 4.6-.9.3-1.3 1.1-.9 1.7.4.8.3.9-.4.5s-1.8-.4-2.4 0c-1.8 1.1-4.8 1.2-4.8.2 0-.4.5-.8 1-.8.7 0 .7-.6 0-2-.9-1.6-.6-2.2 1.7-3.4 3.2-1.7 4.4-1.9 5.8-.8zm-27.2 4.9c-.7.2-1.9.2-2.5 0-.7-.3-.2-.5 1.2-.5s1.9.2 1.3.5zm-18.6 3.9c0 .8-.6 1.4-1.4 1.4-.7 0-1.3.4-1.3 1 0 .5.5 1 1.1 1 .5 0 .7.5.3 1.1-.5.8-.9.7-1.5-.3-.5-1-1.8-1.4-3.3-1.1-3.8.8-4-2.8-.1-4.8 3.2-1.6 6.2-.8 6.2 1.7zm47.8-2.6c.3.5.1 1-.4 1-.6 0-1.1-.5-1.1-1 0-.6.2-1 .4-1 .3 0 .8.4 1.1 1zm-72.9 3.7c-.2 1.6-1.1 2.9-2.5 3.4-1.1.5-2.1.4-2.1-.1 0-.4-.3-1.5-.6-2.3-.3-1 .4-1.8 2.3-2.5 1.5-.6 2.9-1.1 3-1.1.1-.1 0 1.1-.1 2.6zm69-.6c.1.5.2 1.3.3 1.9.1 1.1 3.3.1 4.3-1.4.4-.6 1-.8 1.3-.4 1.2 1.1 2.3 7.8 1.4 7.8-.5 0-.9-.8-.9-1.8 0-.9-.4-1.3-.8-.7-1.2 1.7-5.2 3.6-5.2 2.5 0-.5-.7-1-1.5-1-1.6 0-2-1.2-.7-2.4 1-1.1.9-3-.1-3.7-.5-.4-.6-1.2-.2-1.9.7-1.2 1.9-.6 2.1 1.1zm-81.1-.1c.3.5.1 1-.4 1-.6 0-1.1-.5-1.1-1 0-.6.2-1 .4-1 .3 0 .8.4 1.1 1zm-30.2.7c-2.1.8-1.5 2.3.9 2.3 2 0 2.1.2.7 1.5-1 1.1-2.5 1.3-4.8.9l-3.3-.7 2.9-2.3c1.5-1.3 3.3-2.3 3.8-2.3.6 0 .4.3-.2.6zm33.7 5.7c0 .6-.7.2-1.5-.8-.8-1.1-1.5-2.5-1.5-3 0-.6.7-.2 1.5.8.8 1.1 1.5 2.5 1.5 3zm51.6-2.2c.4 1.3.8 3.2.8 4.3.1 1.3.7 1.9 1.9 1.7 1-.2 1.7.3 1.7 1.2 0 1 .6 1.3 1.5 1 .8-.4 1.2-1 .9-1.5-.3-.5.3-.6 1.2-.2 1.3.5 1 1-1.7 2.4-1.9 1-2.7 1.9-1.9 1.9 1.2.1 1.2.3.1.7-1.1.4-.8 1 1 2.4 1.9 1.4 2.3 2.6 2.3 5.8-.1 3.1.3 4.2 1.7 4.6 1.1.4 2 1.2 2 1.8.1.7.3 2.5.5 4.2.2 2.1 0 2.5-.6 1.5-.5-.8-.6-1.8-.3-2.3.3-.5-.9-.7-2.6-.5-2 .2-3.5-.3-4.1-1.2-.6-.8-1-1-1-.3 0 .6-.9.9-2 .6-1.1-.3-2-1.3-2-2.2 0-1.3.2-1.3.9-.2s1.3.9 2.9-.7c1.1-1.1 2.2-2 2.4-1.9.2.1-.3-.3-1-1-1.1-.9-.9-1.2 1-1.6 1.8-.3 1.6-.5-.9-.6-1.7 0-3.5-.5-3.8-1.1-1.2-1.9-1.4-5-.2-4.7.6.1 1.2-.5 1.4-1.5.4-1.4-.1-1.5-3.1-.8-2.6.6-3.4.5-2.9-.4.4-.6.8-1.6.9-2.1 0-.6.2-1.5.2-2.2.1-.7.8-1 1.6-.7 1.1.4 1.3 0 .9-1.4-.3-1.3-1.1-1.8-2.3-1.5-2.3.6-6.6-3.7-4.8-4.9 2.7-1.6 6.6-.9 7.4 1.4zm6.4-.2c0 .5-.5 1-1.1 1-.5 0-.7-.5-.4-1 .3-.6.8-1 1.1-1 .2 0 .4.4.4 1zm-20.4 2.7c-.1 1.6.9 4.1 2.2 5.7 1.6 2 2.1 3.7 1.8 5.7-.2 1.6 0 2.9.6 2.9 2.1 0 3.6 2.6 2.6 4.5-.8 1.3-.7 2 .6 2.7 2 1.1 4.9 6.5 3.8 7.2-.4.2-1.4.1-2.2-.4-.7-.4-2-.6-2.7-.3-1.2.5-1.3-.2-.9-3 .5-3 .2-3.8-1.4-4.7-1.1-.6-2-.7-2-.3 0 .4-.5.1-1-.7-.6-1-1-1.1-1-.3 0 .7-.6 1.3-1.2 1.3-.7 0-.1-1.1 1.4-2.5 2.6-2.4 2.9-5.7.4-5.4-2.4.3-3.4-.2-3.9-2-.3-1.3.3-2.2 2-3 1.3-.6 2.1-1.6 1.8-2.1-.4-.6-1.1-.7-1.7-.4-.7.4-.8.2-.4-.4 1-1.6-.7-1.5-2.3 0-1 1.1-1.6.8-3.1-1.2-2.2-2.9-1.8-3.5 3-4.8 1.9-.6 3.5-1.1 3.6-1.1.1-.1.1 1.1 0 2.6zm-48.3.2c-.2.6.3 1.1 1.1 1.1s1.9 1.3 2.4 3c.6 1.6 2.2 4.5 3.5 6.2 3.6 5 3.7 5.4 1.4 5.5-1.2.1-3.1.3-4.2.5s-2-.2-2-.9c0-.6-.3-1.5-.7-1.9-1.1-1.1-1-4.2.2-4.9.6-.4.9-.3.8.2-.3.8.5 1.3 2.3 1.3.6 0 .4-.7-.5-1.5-.8-.8-2.1-1.5-2.8-1.5-1 0-.9-.3.2-1 1.2-.8.9-1-1.2-1-1.8 0-3.2-.8-4-2.3-1.9-3.5-1.7-4.3 1.1-4.1 1.4.1 2.5.7 2.4 1.3zm-25.9 1.8c1.7.5 3.1 1.6 3.4 2.4.3 1.2.2 1.2-.7-.1-.8-1.2-1.5-1.2-4.4-.2-1.8.7-4.3 1.2-5.4 1.2-1.2 0-2.3.7-2.7 1.5-.3 1 .1 1.5 1.4 1.5 3.4 0 3.1 1.9-.7 4.3-2.1 1.4-4.9 3.7-6.3 5.2l-2.5 2.7 2.5-.7c3.5-1.1 4.5-1.8 4.5-3.5 0-.8 1.2-1.9 2.7-2.4 2.3-.8 3.1-.6 4.2 1 1.2 1.5 1.2 2 .1 2.2-.9.2-.6 1 1 2.8 1.2 1.3 2.9 2.2 3.7 1.9.8-.3 2.2.3 3.2 1.4 1.7 1.9 1.7 2.1.2 2.7-.9.3-1.4.9-1.2 1.3.3.4-1 .5-2.8.3-3.4-.4-7.1-4.2-4.1-4.2.8 0 1.5-.5 1.5-1.1 0-.6-.8-.8-1.9-.4-1 .3-2.3-.1-3-.8-.6-.8-2.1-1.3-3.4-1.2-1.2.1-2.8.3-3.6.4-.8.1-1.1.7-.7 1.7.5 1.4.4 1.5-.8.5-1-.8-1.6-.9-2.1-.1-.3.5 0 1.2.7 1.5 5.7 2 6.8 2.6 6.6 3.7-.2.8 1 1.4 3.2 1.6 1.9.2 4.2 1 5.1 1.8.9.8 1.8 1.1 2.2.8.3-.3.3.3 0 1.4-.3 1.4-1.1 1.8-2.5 1.4-1.4-.3-1.9-.1-1.4.6.5.8.1 1-1.1.5-2.7-1-6.4-5.3-6.6-7.5-.1-1.5-.7-1.9-2.9-1.6-1.5.3-2.5.1-2.2-.4.8-1.2-.4-1-3 .7-2.3 1.6-3.5 7.5-1.5 7.5.6 0 .8-.4.5-.9-.7-1 6.1-.7 7.1.4.5.4 0 .5-1 .2-1.3-.5-1.7-.3-1.4.5.2.7 1.1 1.2 1.8 1 .9-.2.8.3-.4 1.6-.9 1-1.7 2.6-1.7 3.5 0 2-1.6 2.3-2.3.4-.3-.8-1-.6-2.1.8l-1.7 2 .9-2c.5-1.1.7-2.6.4-3.3-.3-1.1 0-1.2 1.9-.2 1.6.8 1.3.3-.9-1.6-2.3-1.8-3.2-3.3-2.9-4.5.7-2.5.3-2.4-2.9.6-2.3 2.2-3 2.4-4.1 1.2-1.1-1-1.1-2-.3-4.1.9-2.5 1.4-2.8 4-2.2 2.8.5 7-1.6 7-3.5 0-1.1-4-1.8-4.6-.8-.3.5-1 .9-1.7.9-.6 0-.2-.6.8-1.4 1.1-.8 2.3-1.2 2.8-.9.4.2.6.1.5-.4-.5-1.7 2.3-5.1 4.7-5.7 1.9-.5 2.5-1.1 2-2.4-.3-1.2.4-2.6 2-4 1.4-1.2 2.5-2.7 2.5-3.3 0-1.5 6.3-7 7-6 .3.4 1.8 1.2 3.4 1.8zm108.1 3.4c-.3.4-2.3.7-4.5.7-3.2.1-4-.3-4-1.8 0-1.1 1-2 2.5-2.4 1.6-.4 2.3-1.1 2-1.9-.4-.7.5.1 1.9 1.7 1.4 1.7 2.3 3.3 2.1 3.7zm-61.2-2.1c.4 1.7-1.6 4-3.5 4-.9 0-.6-4.5.4-5.7 1.3-1.6 2.4-1 3.1 1.7zm19.1-1.1c.3.5-.5 1.1-1.9 1.3-2 .4-2.3.3-1.4-.8 1.3-1.6 2.5-1.8 3.3-.5zm53.4 2.9c.8.1 1.1-.2.8-.7-.8-1.2 2.5-2.4 3.6-1.3.5.5 1.1 2.2 1.4 3.8.2 1.6.7 3.5.9 4.1.2.7 0 1.3-.5 1.3-.6 0-1-.7-1-1.6 0-1.5-.2-1.5-2.5 0-3.2 2.1-4.2 2-4.8-.5-.4-1.4-1-1.8-1.9-1.3-.9.5-.8.2.2-1 .8-1.1 1.4-3.1 1.3-4.5-.2-2.1-.1-2.2.5-.6.4 1.1 1.3 2.1 2 2.3zM160.5 547c-.3.5-1.2 1-1.8 1-.7 0-.6-.4.3-1 1.9-1.2 2.3-1.2 1.5 0zm-3.5 4.6c0 .8.7 2.2 1.5 3 .8.9 1.5 2 1.5 2.5 0 1.9-3.7.8-6.4-2-2.2-2.3-2.4-3-1.2-3.4 1-.4 1.3-.1.9.9-.3.9.1 1.4 1.2 1.4 1.2 0 1.5-.5 1-2-.4-1.1-.2-2 .4-2 .6 0 1.1.7 1.1 1.6zm42 .8c0 .3-.4.8-1 1.1-.5.3-1 .1-1-.4 0-.6.5-1.1 1-1.1.6 0 1 .2 1 .4zm-26 3.6c2 3.2 1.2 5-2.3 5-2.5 0-3.6-.6-4.4-2.3-.7-1.5-.7-2.5 0-3.2 1.6-1.6 5.6-1.2 6.7.5zm32 0c-.9.6-.8.9.6 1.2 1.5.3 1.3.5-.8.9-2.4.5-2.5.4-1.6-1.7.6-1.3 1.5-2.1 2.1-1.7.5.3.4.9-.3 1.3zm15-1c-.8.5-1.9 1-2.5 1-.5 0-.3-.5.5-1s2-1 2.5-1c.6 0 .3.5-.5 1zm43 .1c0 .4.3 1.4.6 2.3.4 1.2 0 1.6-1.5 1.6-3.2 0-2.5 2 .9 2.6 1.7.4 3.2 1.5 3.6 2.6.7 2.4.2 3-3.3 3.4-3.1.3-5.7-2.4-4.1-4.3 1.2-1.4.2-3.3-1.6-3.3s-2.9-4.2-1.4-5.1c1.5-1 6.8-.8 6.8.2zm-61.8 2.4c-.5 2.7-2.5 3.7-3.5 1.9-1.2-2.2 0-4.6 2-4.2 1.2.2 1.7 1.1 1.5 2.3zm8.8.8c0 .5-.4.5-1 .2-.5-.3-1-1.4-1-2.3 0-1.5.2-1.5 1-.2.5.8 1 1.9 1 2.3zm-57-.9c0 .3-.4.8-1 1.1-.5.3-1 .1-1-.4 0-.6.5-1.1 1-1.1.6 0 1 .2 1 .4zm125.3 1c3.1-.2 3.2 0 3.2 3.6 0 3.1-.3 3.6-2 3.4-1.4-.1-2.1.4-2.2 1.7-.1 1.2.3 1.7.9 1.3.7-.5.8-.2.3.6-.6 1 0 1.2 2.3.8 2.8-.4 3.1-.1 4.2 3.5.6 2.1.9 4.2.6 4.5-.3.3-.6-.3-.6-1.2 0-1.4-.6-1.6-3.1-1.1-2.5.6-3.1.4-3.6-1.4-.3-1.2-1.3-2.1-2.2-2.1-1 0-1.2-.3-.5-.8 1.2-.8-.2-7.6-1.4-6.8-.5.3-.7-.7-.6-2.2.3-4.4.5-5.8 1-4.7.2.6 1.9 1 3.7.9zm-39.9 1.7c-.8 1.4-2.1 1.1-2.1-.5 0-.8.6-1.2 1.4-.9.7.3 1 .9.7 1.4zm46.1.9c-.3.5-1.2 1-1.8 1-.7 0-.6-.4.3-1 1.9-1.2 2.3-1.2 1.5 0zm-96.5 1.2c0-2.1 1.4-1.3 3.9 2.3 1.9 2.9 2.1 3.8 1.1 5-1.1 1.3-1 1.5.6.9 1.6-.5 1.6-.4.4.5-1.9 1.3-4.3 1.4-3.5.1.3-.6-.1-.7-1-.4-1.5.6-5.5-2.1-5.5-3.7 0-.4 1-1.1 2.2-1.5 2-.6 2-.8.5-1.9-.9-.6-1.4-1.5-1-1.9.4-.3 1-.1 1.5.6.6 1 .8 1 .8 0zm-22 2.3c3 3.2 1 3.3-2.7 0-2-1.7-2.3-2.4-1.2-2.5.8 0 2.6 1.1 3.9 2.5zm58-1.1c0 .2-.7.7-1.6 1-.8.3-1.2.2-.9-.4.6-1 2.5-1.4 2.5-.6zm-62 2.7c0 1.1-2.9 1.9-3.4 1-.3-.5-.3-1-.1-1.3.8-.7 3.5-.5 3.5.3zm34-.7c0 .3-.4.8-1 1.1-.5.3-1 .1-1-.4 0-.6.5-1.1 1-1.1.6 0 1 .2 1 .4zm6 3.2c0 2.1-.4 3.3-1 2.9-1.7-1-1.1-6.5.7-6.5.2 0 .3 1.6.3 3.6zm52.4-2.1c-.4.8-.8 1.5-1 1.5-.2 0-.4-.7-.4-1.5s.4-1.5 1-1.5c.5 0 .7.7.4 1.5zm-15.4 1c0 .8-.2 1.5-.4 1.5s-.6-.7-1-1.5c-.3-.8-.1-1.5.4-1.5.6 0 1 .7 1 1.5zm-61 1.6c1.2 2.1.4 4.2-.8 2.3-.4-.6-2-1.8-3.7-2.7l-3-1.6 3.2-.1c2.3 0 3.6.6 4.3 2.1zm-53-.7c0 1.1-1.9 1.5-2.5.6-.3-.5.1-1 .9-1 .9 0 1.6.2 1.6.4zm104 1.1c0 .9-.9 1.5-2.2 1.4-1.7-.1-1.9-.2-.5-.6.9-.2 1.7-.9 1.7-1.4 0-.5.2-.9.5-.9s.5.7.5 1.5zm-54.5 2.8c.1.1.7 1 1.4 2 1.3 1.6 1.2 1.8-1.4 1.3-1.5-.3-2.8-.6-2.9-.8-.1-.2-.8-1.2-1.6-2.2-1.4-1.8-1.3-1.9 1.5-1.2 1.6.4 3 .8 3 .9zm91.2.1c-.4-.8.2-1.1 1.8-1 1.7.1 2.8.9 3.4 2.8 1 2.7.9 2.8-3 2.8-2.1 0-4-.3-4-.8-.8-4.4-.6-5.2.9-4 1 .8 1.3.9.9.2zm7.7.2c.3.8.2 1.2-.4.9-.6-.3-1-1-1-1.6 0-1.4.7-1.1 1.4.7zm15.9-.3c.3.8-.1 1.4-.8 1.4-.7 0-1.1-.6-.8-1.4.3-.7.6-1.3.8-1.3.2 0 .5.6.8 1.3zm-52.4 2.6c.8 1.3.6 1.8-.5 1.8-.8 0-1.3-.6-1-1.4.3-.7.1-1.3-.4-1.3-.6 0-1-.5-1-1.1 0-1.4 1.8-.2 2.9 2zm-73.1-.5c3.9 2.4-1.8 5.2-6.5 3.2-2.4-.9-3.1-2.6-1.2-2.6.5 0 .8-.4.5-.8-.6-1 5.6-.8 7.2.2zm90.3-.5c1.3-.7 2-.5 2.7.7.6 1.1 1.7 1.5 3.1 1.1 1.1-.3 2.3-.2 2.6.2.2.4-2.1.9-5.2 1-3.1.1-5.9.2-6.2.3-2.6.2-3.1-.3-1.9-2.2.8-1.2 1.6-1.6 2.2-1 .5.5 1.6.5 2.7-.1zm5.9.1c0 .5-.5 1-1.1 1-.5 0-.7-.5-.4-1 .3-.6.8-1 1.1-1 .2 0 .4.4.4 1zm-60.3 5.4c-.2.6-1.6 1.4-3.2 1.9-2.4.8-3.1.6-4.8-1.4-1.7-2.1-1.7-2.4-.3-2.7.9-.2 1.6-.7 1.6-1.2s.8-1 1.8-1.3c1.8-.4 5.4 3.1 4.9 4.7zm41.4-3.9c.1 1.7-1.8 1.7-2.5 0-.4-1.1-.1-1.5 1-1.3.8.2 1.5.7 1.5 1.3zm-12.5 1.3c-1 .2-2.2 0-2.8-.6-.6-.6 0-.7 1.9-.4 2.1.5 2.3.7.9 1zm72.3.5c0 .9-.2.8-.6-.1-.2-.6-1-.9-1.5-.6-.7.4-.8.2-.4-.5.9-1.3 2.6-.5 2.5 1.2zm-89.2.9c-.3.8-.6.5-.6-.6-.1-1.1.2-1.7.5-1.3.3.3.4 1.2.1 1.9zm-7.8 1.5c0 2.5-.1 2.6-.9.8-1.2-2.7-1.2-3.5 0-3.5.6 0 1 1.2.9 2.7zm79.8-2.1c-.3.3-1.2.4-1.9.1-.8-.3-.5-.6.6-.6 1.1-.1 1.7.2 1.3.5zm-6 1c-.3.3-1.2.4-1.9.1-.8-.3-.5-.6.6-.6 1.1-.1 1.7.2 1.3.5zm-159.6 1.7c1.5 1.1 1.5 1.5-.6 3.9-1.3 1.5-2.5 2.4-2.8 2.2-.3-.3-1.4-.1-2.6.5-1.7 1-1.9.8-1.6-1.1.4-2 4.2-6.8 5.4-6.8.3 0 1.3.6 2.2 1.3zm53.7 4.1c1.1 2.6.7 3.6-1.5 3.6-.8 0-1.1-.5-.7-1.2.4-.7.3-.8-.4-.4-.6.4-.9 1.3-.6 2.1.4.8 1 1.2 1.5.9.5-.3.8 0 .7.8-.2.7.6 1.3 1.7 1.4 3.9.2 4.3.4 5.4 3.4.8 2.5.7 3-.5 3s-1.3.4-.3 2.1c.9 1.7.8 2-.3 1.3-.7-.5-1.6-.9-2-.9-1 0-4.5-4.8-5.3-7.5-.4-1.4-2.1-4.4-3.6-6.7-2.8-4-2.8-4.2-.9-4.8 1.1-.4 1.7-1.1 1.4-1.7-.4-.5.5-.3 1.8.6 1.4.9 3 2.7 3.6 4zm-19.1-2.8c.4 1.1 1.4 1.4 3.2 1 1.4-.3 2-.3 1.4 0-1 .4-1 1.1 0 3.2 1.4 2.9 1.2 6.6-.4 5.6-.5-.3-.7-.9-.5-1.3.3-.4-.5-.8-1.6-.8-1.1-.1-2.6-1-3.4-2.1-.8-1.2-2.3-1.8-4.3-1.7-1.7.1-2.8-.2-2.5-.7.4-.5 1.3-.7 2.1-.4 1.8.7 5.3-1.1 5.3-2.7 0-.7-.4-.6-1 .3-.8 1.3-1 1.2-1-.3 0-2.1 1.9-2.3 2.7-.1zm29.8.6c.1.2 1 1.7 1.9 3.5.9 1.8 3.2 4.7 5.1 6.6 3.3 3.2 3.4 3.5 1.5 4-3.2.8-5.7-.3-6.9-3-1-2.2-.9-2.5.4-2 1.7.7 1.8.5.9-1.7-.3-.9-1-1.4-1.5-1.1-.4.3-1.3-.4-1.9-1.5-.6-1.1-1.4-1.9-1.8-1.6-.4.2-1.5-.8-2.4-2.4l-1.6-2.8 3 .9c1.7.4 3.2 1 3.3 1.1zm67.8-.5c1.1 1-1.3 3.2-2.9 2.6-2-.8-1.7-3.3.4-3.3 1 0 2.2.3 2.5.7zm-110.5 2.1c.6 1.8-1.5 1.4-2.2-.4-.4-1-.1-1.4.6-1.2.6.2 1.4 1 1.6 1.6zm-12.6 1.9c.9.8 1.4 2.2 1.1 3.1-.5 1.1-.3 1.3.6.7 1-.6 1.1-.3.2 1.4-1.3 2.4-2.3 2.8-1.5.6.4-.8.1-1.5-.4-1.5-.6 0-1.3.9-1.7 2-.7 2.3-2.5 2.2-4.3-.3-1.3-1.7-1.5-1.7-4-.2-2.1 1.4-2 1 .8-1.6 3.6-3.5 5.7-7.6 2.5-4.9-1.3 1.1-1.5 1-.9-.4.8-2 4.8-1.4 7.6 1.1zm64.8-.2c1.3 1.4 2.1 2.5 1.8 2.5-.2 0-1.5-1.1-2.8-2.5-1.3-1.4-2.1-2.5-1.8-2.5.2 0 1.5 1.1 2.8 2.5zm70.3 0c1.7 2.4 1.6 4.5-.4 4.5-1.7 0-4.9-4-4.3-5.5.9-2.2 2.6-1.8 4.7 1zm13.2-1.5c.2.3-.9.7-2.5.8-1.6.1-3.2-.2-3.5-.8-.4-.7.5-1 2.5-.8 1.7.1 3.3.5 3.5.8zM145 592.2c0 1.6-.4 2.8-.8 2.8-1.4 0-5.3-4.6-4.5-5.3.3-.4 0-.7-.7-.7s-1-.3-.7-.7c.4-.3 1.6.2 2.7 1.2s2 1.3 2 .7c0-.6-.4-1.4-1-1.7-.5-.3-1-1.4-1-2.3.1-3 4 3 4 6zm-26.2-3.7c-.3.3-.9-.2-1.2-1.2-.6-1.4-.5-1.5.5-.6.7.7 1 1.5.7 1.8zm95.2 2c0 1.7-.2 1.7-1 .5-.5-.8-1-2.4-1-3.5 0-1.7.2-1.7 1-.5.5.8 1 2.4 1 3.5zm60-2c1.4 1.9 1.4 1.9-.2.6-1-.7-1.8-1.8-1.8-2.4 0-.6.1-.8.3-.6.1.2.9 1.3 1.7 2.4zm19.2.3c.7.7 1.9 1.2 2.8 1.2 3 0 6.4 4.7 6.3 8.6-.3 9.4-13.1 11.9-16.7 3.2-1.5-3.5-.8-6.8 2.1-10 1-1.1 1.2-1.8.5-1.8s-1.2-.6-1.2-1.3c0-1.6 4.6-1.5 6.2.1zm-55.6 2.2c.2 2.6-.2 3-2.5 3l-2.6-.1 2.4-1.9c1.8-1.5 1.9-2 .7-2-.9 0-1.6.5-1.6 1.1 0 .5-.4.7-1 .4-1.8-1.1-1-2.4 1.8-2.8 1.5-.2 2.7-.5 2.7-.6 0 0 .1 1.2.1 2.9zm8.4-.9c1.1 1.9 1 2-1 .9-1.1-.6-1.8-1.5-1.5-2.1.9-1.3 1.3-1.1 2.5 1.2zm34.2-.4c2.3 2.7 2.8 7 .9 7.6-.9.3-2.3.8-3.3 1.2-1.6.7-1.7.5-3.3-5.5-.5-1.9-.4-2.1.4-1 .9 1.2 1.1 1.2 1.7-.3.3-.9 1-1.4 1.5-1.1.5.3.9.1.9-.5 0-.5-.6-1.2-1.2-1.4-.8-.3-.8-.6-.2-.6.6-.1 1.8.7 2.6 1.6zm-142.6 4.5c-.4-.6-.2-1.2.3-1.2 1.4 0 1.4.4-.4 4.6-1.5 3.6-1.3 5.4.6 5.4.6 0 .7-.5.4-1-.3-.6.5-1 1.9-1 2.5 0 6.6 4.4 5.2 5.7-.3.3-.1 1.2.5 1.9s.6 1.4.1 1.8c-.6.3-1.6-.2-2.3-1.1-1.2-1.4-1.2-1.6 0-.8 1 .5 1.2.4.7-.3-.5-.8-1.3-.9-2.6-.2s-1.9.6-2.4-.5c-.3-.8-1-1.5-1.6-1.5-.6 0-.8.4-.5 1 .3.5.2 1-.4 1-1.6 0-2.2-1.8-.9-2.3.9-.3.7-1.1-.7-2.7s-1.6-2.4-.7-2.7c.6-.3 1.2-.9 1.2-1.5s-.8-.5-1.7.4c-1.9 1.5-5.2 1.3-5.4-.3-.5-3.6-.2-5.4.8-5.4.7 0 1.8-.6 2.5-1.3 1.1-1.1.9-1.2-.7-.7-1.6.6-1.7.5-.5-.4 1.1-.8 2.2-.4 4.4 1.7 1.6 1.5 2.6 2.1 2.2 1.4zm124-1.2c1.8 1.6 2.9 3.2 2.4 3.5-1.7 1.1 1.1 4.3 3.4 3.8 1.8-.3 1.8-.2-.2.7-1.3.5-2.3 1.8-2.1 2.7.3 3.5-.1 3.5-3.3.3-2.8-3-3-3.4-1.3-4 1.9-.7 3.2-5 1.5-5-.6 0-1 .8-1.1 1.7 0 1.4-.2 1.3-.9-.5-.5-1.2-1.3-2.2-1.9-2.2-.5 0-1.1-.9-1.4-2-.7-2.8 1-2.5 4.9 1zm-44.2-.4c.3.8.2 1.2-.4.9-.6-.3-1-1-1-1.6 0-1.4.7-1.1 1.4.7zm35.6 2c0 .8-.9 1.4-2 1.4s-2-.5-2-1.1c0-.5.4-.8.9-.5.5.4.7-.4.3-1.6-.5-2.1-.4-2.2 1.1-.9.9.7 1.7 2 1.7 2.7zm-53.6-2c.9.3 1.3 1 1 1.5-.3.5.1.9.9.9 2.1 0 2.9 2.7.9 2.7s-4-1.4-5.3-3.9c-1-1.9-.3-2.3 2.5-1.2zm31.5 4.2c1 2.1 1 2.3-.1 1.5-.7-.6-2.5-1.3-4-1.7-2-.4-2.5-1.1-2.1-2.5.4-1.7.9-1.8 2.8-.9 1.2.6 2.8 2.2 3.4 3.6zM109.5 594c.3.5.1 1-.4 1-.6 0-1.1-.5-1.1-1 0-.6.2-1 .4-1 .3 0 .8.4 1.1 1zm53.3.8c-.1.4.3 1.7 1 2.9 1.1 2 1 2.3-.3 2.3-.9 0-2.6-.8-3.9-1.7-2-1.5-2.1-1.9-.8-3.4 1.4-1.6 4.4-1.6 4-.1zm-10.4.7c.3.8.1 1.5-.4 1.5-.6 0-1-.7-1-1.5s.2-1.5.4-1.5.6.7 1 1.5zM101 597c-.6 1.1-2 2-3.3 1.9h-2.2l2.3-.9c1.2-.5 2.2-1.4 2.2-2 0-.5.5-1 1-1 .7 0 .7.6 0 2zm157.5-1c.3.5.1 1-.4 1-.6 0-1.1-.5-1.1-1 0-.6.2-1 .4-1 .3 0 .8.4 1.1 1zm-108.2 1.5c.4.8 1.5 1.2 2.7 1 1.1-.2 1.8 0 1.5.6-.4.5-1 .7-1.5.4-.5-.3-.8 1.5-.7 3.9.2 3.5-.1 4.2-1.1 3.4-.7-.6-1-1.3-.8-1.6.3-.2-.5-1.3-1.7-2.3-2.1-1.8-2.1-2-.4-3 1.4-.8 1.6-1.4.6-2.5-.7-.8-.7-1.4-.1-1.4.5 0 1.2.7 1.5 1.5zm43.7.5c0 .5-.7.7-1.5.4-.8-.4-1.5-.8-1.5-1 0-.2.7-.4 1.5-.4s1.5.4 1.5 1zm21.8.8c1.7 1.5 1.9 2.1.9 3.2-1 1-.8 1.2.8.6 1.4-.5 1.7-.4.9.4-1.2 1.2-4.4.3-4.4-1.2 0-.6-.8-.4-1.7.3-1.6 1.2-1.5 1.1 0-.8 1.1-1.2 1.6-2.7 1.2-3.2-.9-1.6-.1-1.3 2.3.7zM99 600.4c0 .2-.7.7-1.6 1-.8.3-1.2.2-.9-.4.6-1 2.5-1.4 2.5-.6zm97.6 3.2c-.3.8 0 1.3.6 1.1.7-.1 1.4.6 1.6 1.7.2 1.1 0 1.6-.7 1.2-.6-.4-1.1-.1-1.2.6 0 1-.2 1-.6 0-.2-.6-1.1-1.2-1.8-1.2-1.2 0-5.1-4.9-4-5.1.3-.1.9-.2 1.4-.3.5 0 1.3-.4 1.7-.8 1.1-1.1 3.6 1.3 3 2.8zM209 607c0 1.2-.6 1.7-1.7 1.5-1-.2-2.1-.4-2.4-.4-.4-.1-.9-.9-1.3-1.9-.3-.9-.9-2.2-1.2-2.9-.3-.6.3-1.3 1.3-1.6 2.1-.5 5.3 2.7 5.3 5.3zm-106.9-4.1c1.4-.7 1.7-.6 1.3.5-.3.8 0 1.7.5 2.1.6.3.8 1.1.5 1.7-.5.7-.2.8.5.3.9-.5 1.2-.2.9 1.1-.2 1.1-.9 2-1.6 2-.6.1-1.9.2-2.8.3-.9.1-1.2.6-.8 1.3.5 1 .4 1-.6.1-1.1-1-1.7-1-2.9 0-1.4 1-1.4 1-.3-.4 1-1.3.9-1.9-.3-2.9-1.4-1.2-1.3-1.5.5-3.5 1.1-1.2 1.9-2.4 1.7-2.7-.2-.3.1-.2.6.3.6.4 1.8.4 2.8-.2zm127.9.2c0 .8.4.8 1.3 0 1.1-.8 1.7-.3 2.9 2.3 1 2.1 1.3 3.8.7 4.7-.7 1.1-.9 1-.9-.4 0-2.2-4.1-2-4.8.2-.3.9 0 1.1.8.6.8-.5 1.1-.4.6.3-.3.6.2 1.6 1.3 2.2 1.4.7 2.2.7 2.7-.2.9-1.5 2.4 2.2 3.1 7.7.2 2.1.7 4.4 1.1 5 1.1 1.7.9 8.6-.2 7.5-1.3-1.3-4.6-1.3-4.6 0 0 .5.5 1 1 1 .6 0 1 .6 1 1.2-.1.7-1.2 0-2.5-1.7-2.6-3.2-2.9-6.9-.7-8.7 1-.9 1.6-.9 2.1.1.6.9 1 .7 1.4-.8.2-1.1-.1-2.8-.7-3.7-1.1-1.4-1.4-1.5-2.7-.1-1.4 1.3-1.7 1.3-2.7-.3-.6-1-1.4-4.2-1.7-7.2-.4-2.9-1-5.5-1.4-5.8-.3-.3-.6-1.2-.6-2s-.4-1.8-1-2.2c-.5-.4.2-.8 1.8-.8 1.5 0 2.7.5 2.7 1.1zm9.4.5c.3.8.2 1.2-.4.9-.6-.3-1-1-1-1.6 0-1.4.7-1.1 1.4.7zm18-.5c.5.5.9 4.6.7 7.8-.1 1.8-.4 2.1-1.4 1.2-.8-.6-1.7-.8-2-.4-.4.3-.7.1-.7-.5s.8-1.3 1.8-1.5c.9-.3 0-.5-2-.6-2.3-.1-3.8-.6-3.8-1.4 0-.6-.3-2.3-.7-3.6-.6-2.2-.4-2.3 3.6-1.8 2.3.2 4.3.6 4.5.8zm-150.9.9c.3.5-.1 1-1 1s-1.3-.5-1-1c.3-.6.8-1 1-1 .2 0 .7.4 1 1zm78.3 1.7c1.7 3.9 1.7 4-3.2 4.1-3.1.2-4.7-.3-5.7-1.5-1.3-1.7-1.3-1.7.5-.3s1.9 1.4.7-.8c-1.6-3-.7-4.2 3.2-4.2 2.5 0 3.5.6 4.5 2.7zm101.7.3c1.8 2 1.8 2.1-.1 3.4-1.4 1.1-2.4 1.1-3.9.4-2.9-1.6-3.3-2.2-.9-1.6 1.7.4 2 .1 1.6-1.8-.5-2.9.9-3.1 3.3-.4zm-117.1 1.2c.9 1.2 1.6 2.6 1.6 3 0 1.4-5.7-2-6.3-3.7-1-2.4 2.9-1.8 4.7.7zm-7.1.7c.3 1.4.1 1.8-.9 1.4-.8-.3-1.4-1.1-1.4-1.9 0-2.1 1.7-1.7 2.3.5zm120 4.5c.3-.4.2.7-.2 2.2-.6 2.2-1.3 2.8-3 2.7-1.8-.3-2 0-1.1 1.6.5 1.1 1 2.6.9 3.3-.1 2.2-2.9-4.9-3.5-9-.3-2-.7-4.3-.9-5-.3-.8 1.2 0 3.4 1.7 2.1 1.7 4.1 2.8 4.4 2.5zm-164.9-2.8c.3.8.2 1.2-.4.9-.6-.3-1 0-1 .7 0 .9-.3.9-.8.2-.8-1.3-4.4-1.5-3.6-.2.3.5.9.6 1.4.3 1.2-.7 2 4.8.8 6.2-.7.9-.7 1.3.1 1.3.7 0 .9.5.5 1.2s.1.6 1.2-.3c1-.9 3.3-2.4 5-3.3 2.8-1.4 3.3-1.4 4.4-.1.7.8 1 1.5.6 1.5-1.4 0-2.2.2-3.8 1.1-1.7.9-1.7 1 0 2.9.9 1 2.2 2.5 2.8 3.2 2 2.2 5.4 4.8 6.5 4.8.5 0 .8.4.5.9-.4.5.5 2.3 1.9 3.9 1.3 1.6 2.2 3.1 2 3.4-.3.2 1.1.4 2.9.3 2.7 0 3.2.2 2.5 1.2-1.7 1.9-.1 3.7 1.9 2.1 1.5-1.1 1.5-1.1.4.3-1 1.4-.7 2.2 2.3 5.4 3 3.4 3.6 3.7 5.1 2.4 1.6-1.3 1.6-1.2.6.8-1 1.9-.7 2.7 3.4 7 2.5 2.6 4.3 4.3 4 3.7-.3-.6.1-1.1.8-1.1.8 0 1.2.6.9 1.4-.4 1.1 4.8 8.7 8.1 11.8 1.6 1.5 8.6 10.3 8.6 10.8 0 .9-5.1.4-5.7-.6-.4-.6 0-.8 1-.4 1.1.4 1.7.1 1.7-.8 0-2.3-1.5-2.5-3.3-.5-1.6 1.9-1.5 2.1.8 3.6 1.4.9 2.2 2.1 1.8 2.8-.3.6.6 0 2-1.3l2.7-2.4 2.6 2.8c2.2 2.4 2.4 3.2 1.5 4.7-1.4 2.2-1.4 2.8 0 2.8.5 0 .8-.4.4-.9-.9-1.6.9-2 2.3-.5 1.1 1.2 1 1.4-.3 1.4-.8 0-1.5.7-1.5 1.5s.5 1.5 1 1.5c.6 0 1 .5 1 1.2 0 .6-1.2.1-2.7-1.3-1.4-1.3-2.3-1.8-1.8-1 .5.8-.3.6-2.1-.5-5.1-3.3-6.7-5.2-6.1-7.3.3-1.2.1-2.1-.4-2.1-1.2 0-3.1-1.5-6.9-5.2-2.2-2.1-3-2.5-4.1-1.5-.7.7-.6.3.4-.9 2.1-2.5 2.2-3.5.3-2.8-.7.3-1.6-.2-2-1.2-.5-1.4-.4-1.5.9-.4 1.2 1 1.6.9 2.1-.4.3-.9 1.1-1.3 1.6-1 .6.4.5 1-.3 1.5s-.9.9-.3.9c.6 0 1.7-.6 2.3-1.4 1-1.2.6-1.8-1.8-3.2-1.6-1-2.7-2.2-2.4-2.8.3-.6-.3-.2-1.4.9-1.1 1.1-1.9 2.2-1.7 2.5.1.3-.6.6-1.7.6-1.2 0-1.8-.5-1.5-1.3.3-.7-.2-1.3-1-1.3s-1.3.4-.9.9c.3.5.1 1.2-.4 1.6-.6.3-.8-.4-.6-1.6.3-1.3 0-2.8-.6-3.5-.7-.8-.7-1.4.1-1.9.5-.3 1-1.5 1-2.7 0-1.6.3-1.8 1.3-.9 1 .8 1.4.7 1.4-.4 0-.8-.4-1.2-.9-.9-.4.3-.8-.1-.8-.9 0-2.4-2.5-4-3.9-2.3-.9 1-.8 1.6.4 2.6 1.7 1.4 2.1 3.5.5 2.5-.5-.3-1-.1-1 .5s-1 .2-2.2-.9c-1.1-1.1-2.6-1.7-3.2-1.4-.6.3-.8.2-.3-.2.4-.5 0-1.7-1-2.7-1.6-1.7-1.7-1.7-3.7-.1-2.1 1.8-2.1 1.8-.5-.2 2.6-3.3 3.2-4.6 1.7-4.3-1.6.4-2.3-4.1-.9-5.5.8-.8 1.1-.5 1.1 1.1 0 1.7.5 2.1 2.5 2 2.5-.2 3.2-1.2 1.6-2.2-.5-.4-1.1 0-1.4.6-.2.7-.8.9-1.3.5s-.2-1.2.6-1.7c1.2-.8 1.1-1-.5-1.1-1.1 0-1.4-.3-.7-.6.6-.2 1-.9.7-1.3-.3-.5-1.7.2-3.2 1.6-2.9 2.7-5.3 3.1-5.3 1 0-.8-.4-1.6-.8-1.8-.4-.2-2-1.9-3.5-3.9-2.1-2.8-2.4-3.8-1.4-4.8 1-1.1.8-1.1-1-.2-1.2.6-2.4.7-2.7.3-.3-.5-1.9-.7-3.5-.6-1.7.1-3.1.1-3.1 0 0-.2.9-1.3 2-2.6 2.1-2.5 2.7-4.5.9-3.4-.6.3-2.8-1.1-5-3.2-2.9-2.9-3.9-3.4-3.9-2 0 .9-.4 1.5-.9 1.1-.5-.3-1.2-.1-1.5.4-.4.5.2 1.1 1.1 1.3 1.2.2 1.4.6.7 1.1-.7.4-1.7 0-2.4-.8-.9-1.1-.6-1.8 1.4-3.6 2.8-2.4 3.5-4.4 1.2-3.6-.8.3-1.7.3-2 0-.8-.8 2.5-5.4 3.5-4.7.5.3.9 0 .9-.5 0-1.4-1.7-1.4-2.5-.1-1.1 1.8-6.5 5.2-5.9 3.7.3-.8-.2-2.1-1-3-.8-.8-1.2-1.7-.9-2.1.4-.3.1-.6-.5-.6-.7 0-1.2-.5-1.2-1.1 0-.7 1-.9 2.5-.7 1.4.3 2.8.1 3.1-.3.3-.5 0-.9-.7-.9-3.1 0 .6-1.4 4.2-1.6 2.2-.1 4.3-.5 4.6-.8.9-.9 1-.8 1.7 1zm41.1.5c-.4.5 0 .9.7 1 1.1 0 1.1.2 0 .6-1 .4-.9.9.4 2.4 1.5 1.7 1.5 1.9.1 1.9-1.5 0-4.7-3.5-4.7-5.2 0-.5.7-.8 1.6-.8.9 0 1.2-.5.8-1.2-.4-.7-.3-.8.5-.4.6.4.9 1.2.6 1.7zm61.1 1.1c1 1.2 1.3 1.8.7 1.4-.7-.4-1.3-.2-1.3.3 0 .6.7 1.1 1.5 1.1s1.5.8 1.5 1.7c0 1.3-.3 1.4-1.2.5-.7-.7-2-1.2-3-1.2s-1.8-.3-1.8-.8c0-.4-.3-1.7-.6-3-.8-2.9 1.6-3 4.2 0zm-125 .3c-.1.8-.5 1.7-.8 2.1-.5.4-.4-1.6.1-3.4.3-.9.9.1.7 1.3zM152 614c1.4 1.9 1.7 3 .9 3-.8 0-.5.7.7 1.6 1.4 1.2 1.1 1.1-1.1-.2-3.4-2-6.5-5.5-5.8-6.6.9-1.6 3.3-.7 5.3 2.2zm38.5 2.2c1.4 3.5.2 6-2.4 5-1-.4-1.3-.1-.8 1.2 1.1 2.7-.9.9-3.1-2.8l-2.1-3.5 2.1-.6c1.3-.5 1.8-1.3 1.5-2.6-.8-3.1 3.2-.3 4.8 3.3zm100.5-1.6c0 .2-.9 0-2-.6s-2-1.3-2-1.6c0-.2.9 0 2 .6s2 1.3 2 1.6zm-87.6.6c2.2 3.1 2 3.9-.9 3.5-2.6-.3-6-3.9-4.8-5.1 1.3-1.3 4.3-.5 5.7 1.6zm66.2.8c.4 1.6.9 2.8 1.3 2.6.4-.3.7.3.7 1.3 0 1.2-.6 1.6-2.2 1.3-3.2-.6-4.5-8.2-1.3-8.2.5 0 1.2 1.3 1.5 3zm-12.6-1c0 .5 1.1 1 2.5 1s2.5.5 2.5 1.1c0 .5-.4.8-.9.5-1-.7-1.8 4.5-1.3 8.6.3 2.5.8 2.8 3.8 2.8 1.9 0 3.3.4 2.9.9-.3.5-1.7.7-3.1.5-2.4-.4-2.6-.3-2 2.3.5 2.4.5 2.5-.5 1-.6-1.1-1.2-2.4-1.3-3-.1-.7-.7-2.1-1.3-3.2-.5-1.1-.8-2.6-.6-3.3.3-.6-.2-1.2-.9-1.2-.8 0-2.2-1.6-3.1-3.5-1.4-3-1.5-3.5-.2-3.5.8 0 1.5-.5 1.5-1 0-.6.5-1 1-1 .6 0 1 .4 1 1zm-46.5 3.6c.1 1.3-.1 2.4-.2 2.4-.7 0-2-4.5-1.6-5.3.8-1.3 1.8.3 1.8 2.9zm7.8-.1c-.7 2.1-1.2 1.9-1-.4 0-1.1.5-1.8.9-1.5.4.3.5 1.1.1 1.9zm73.7-1c.7.9.8 1.5.2 1.5-.5 0-1.2-.7-1.6-1.5-.3-.8-.4-1.5-.2-1.5s.9.7 1.6 1.5zm-146.3 1.6c.2 1.6-.1 1.9-.9 1.1-.5-.5-.7-1.5-.4-2.1 1-1.5 1.2-1.4 1.3 1zm31 .6c.7 1.5 1.1 2.9.8 3.1-.3.3-.5 0-.5-.7s-.4-1-.8-.7c-.4.2-1.4 0-2.2-.5-1.3-.8-1.3-1-.1-1.8 1.1-.7 1-1-.5-1.4-1.8-.4-1.8-.5.1-.6 1.3 0 2.5.9 3.2 2.6zm112.3-2.3c0 .3-.4.8-1 1.1-.5.3-1 .1-1-.4 0-.6.5-1.1 1-1.1.6 0 1 .2 1 .4zm-119 1.2c0 .8-1.9 1.3-2.4.6-.3-.5.1-.9.9-.9s1.5.2 1.5.3zm77.3 1.7c.4-.3.7-.4.7 0 0 1.8-2.1 1.4-3-.5-1-2.1-1-2.1.3-.6.8 1 1.7 1.5 2 1.1zm38.2.2c0 1.1.4 2.7 1 3.5.8 1.3.7 1.3-.8.1-1.5-1.1-1.7-1.1-1.7.2 0 2.7 1.2 5 2 3.7.5-.8.9-.7 1.3.4.5 1.1.1 1.6-1.3 1.6-1.1 0-2 .4-2 .8 0 .5-.7.9-1.5.9-.9 0-1.9-1.5-2.5-3.6-.8-3-.7-3.7.8-4.5.9-.6 2-1.1 2.5-1.1.4 0 .7-.3.7-.8 0-2.9-.1-3.1-.8-2.2-.9 1.3-3.2 1.8-3.2.7 0-1.4.9-1.9 3.3-1.8 1.5.1 2.2.7 2.2 2.1zM162.4 625c2.7 2.8 4.6 5 4.3 5-.3 0-1.3-.7-2.2-1.6-2-2-3.3-1.1-1.5 1.1 1.6 2 .3 1.9-1.7-.1-.9-.8-2.2-1.3-3.1-.9-1.2.4-1.2.3-.3-.9.9-1 .8-1.5-.2-1.9-.8-.3-1.7-1.4-1.9-2.5-.4-1.6-.2-1.9 1-1.5 1 .4 1.3.2.8-.5-1.3-2.2-.1-1.2 4.8 3.8zm4.6-1.9c0 .6-.4.7-1 .4-.5-.3-1-1.1-1-1.6 0-.6.5-.7 1-.4.6.3 1 1.1 1 1.6zm55-.1c2.1 1.8 2.2 2.3 1 4.5-.9 1.7-1.6 2.1-2.1 1.4-.4-.6-1.1-.9-1.7-.5-.6.3-1.3-.7-1.7-2.4-.4-1.9-1.1-2.8-1.8-2.3-.7.4-.6-.1.2-1 1.8-2.2 3.3-2.1 6.1.3zm47.5 0c-.3.6.1 1.3.9 1.6.9.3 1.3 1 1 1.6-.3.5-1.2.1-1.9-.9-1.2-1.6-1.1-3.3.1-3.3.3 0 .2.5-.1 1zm-62.8 1.6c1.5-.5 2.3.2 3.6 2.9 1.6 3.4 1.4 4.3-1 3.9-.7-.1-1.7-.2-2.3-.3-1.1-.1-4-5.4-4-7.3 0-1 .2-1 .9.1.5.8 1.7 1.1 2.8.7zm92.3.6c.9 1.9.8 2-.2.6-1.1-1.5-1.3-1.5-2.3-.1-1 1.3-1.4 1.3-2 .3-.5-.8-.4-1.1.2-.7.6.4 1.3 0 1.7-.8.8-2.1 1.3-1.9 2.6.7zm-107.6 0c-.5.8.9 1.2 3.1.9.9-.1 6.5 9.8 6.5 11.3 0 .2-.9.2-2-.1-1.1-.3-1.8-.8-1.6-1.2.2-.3-.2-1.1-.9-1.8-1.1-1-1.4-1-1.8 0-.3.8-1 .6-2.5-.7-1.2-1-1.9-2.2-1.7-2.7.3-.4.1-1.1-.5-1.4-.6-.4-.8-1.6-.4-2.7.4-1.5.3-1.8-.6-1.3-.8.5-1.1.4-.7-.2.3-.5 1.3-1 2.1-1s1.3.4 1 .9zm99.6-.2c0 .5-.5 1-1.1 1-.5 0-.7-.5-.4-1 .3-.6.8-1 1.1-1 .2 0 .4.4.4 1zm-137 1.5c0 .8-.7 1.5-1.5 1.5-1.3 0-1.4-.3-.3-1.5 1.6-1.8 1.8-1.8 1.8 0zm121.7 2.1c1.1 5.2.9 5.9-1.9 5.6-1.6-.2-2.8.2-2.8.9 0 .6.7.8 1.7.5 1.6-.6 1.6-.6 0 1.1-1.1 1.3-1.3 2.3-.7 3.3.9 1.3 1 1.3 1 0 0-1.2.2-1.2.9-.1.6.9 1.1 1 1.5.2 1-1.6 2.6-1.4 2.6.4 0 .9 1 1.5 2.3 1.6 1.6.1 1.8.2.5.6-2.1.5-2.4 2.3-.5 2.3.9 0 .9.2 0 .8-1.6 1-2.8 6.2-1.4 6.2.6 0 1.1 1.1 1.1 2.5s.6 2.5 1.3 2.5c.8 0 .7.4-.3 1-1.2.8-1.3 1.1-.1 1.9.8.5.9 1.1.3 1.5-1.1.7-.5 6.9.7 7.4.5.1.6 1.4.3 2.8-.4 2.4-.5 2.4-1.8.5-.8-1.1-1.3-2.4-1.2-2.8.1-.4-.3-1.8-1-3.1-.7-1.2-1-2.7-.7-3.2.3-.6-.1-.7-.9-.4-.9.3-1.7.1-1.7-.5-.2-1.6-.4-2.2-1.7-5.4-.8-1.9-.9-3.4-.2-4.5.8-1.4 1-1.1 1 1.3.1 1.6.4 2.5.6 1.8.3-.7 1.1-1 1.9-.7.7.3 1.6 0 2.1-.7.5-.8.3-1-.6-.4-1 .6-1.2 0-.8-2.4.2-1.7.3-3.1.2-3.1-.2 0-1.4.4-2.8 1-2.1.8-2.7.6-3.6-1-.6-1.1-.7-2-.3-2 .4 0-.2-.7-1.3-1.6-1-.8-1.3-1.3-.6-.9.6.3 1.2 0 1.3-.7.2-2.8-.3-7.3-1-7.8-.3-.3-.6-2-.6-3.9 0-2.5.5-3.5 1.8-3.7 1.1-.1 2.2-.5 2.5-.8 1-1.1 2.5-.1 2.9 2zM104 628c0 .5-.5 1-1.1 1-.5 0-.7.5-.3 1.1.3.6.9.7 1.3.2 1.5-2.1 7.1 1.2 7.1 4.2 0 .8.3 1.5.8 1.5 1.2 0 6.8 5.4 8.1 7.8.6 1.1.8 2.9.4 3.9-.6 1.6-.5 1.7 1.2.3 1.5-1.2 1.7-1.2 1-.1-.6 1.1-.3 1.3 1.3.9 1.5-.4 2.3 0 2.8 1.4.6 1.9 13.4 15.4 13.4 14.1 0-.4.6.2 1.4 1.2.8 1.1 1.3 2.3 1 2.6-.5.9 5.5 6.3 6.3 5.6.3-.4.1-.7-.6-.7s-.9-.5-.6-1c.3-.6 0-1-.7-1-1 0-.9-.3.2-.9 1.8-1.2 3.1-.5 2.4 1.3-.3.7.2 1.9 1 2.6.9.7 1.3 1.7.9 2.4-1.2 1.9-1.2 3.6 0 3.6 2.7.1 14.3 13.2 13.2 15-.3.5 0 .7.8.4.8-.3 2.6.9 4.2 2.8 1.6 1.8 2.3 3.4 1.6 3.6-.6.2-1.1 1-1.1 1.8s-.6 1.1-1.5.8c-.8-.4-1.5-.1-1.5.5s.4 1.1.9 1.1 1.1 1 1.4 2.2c.5 1.8-.3 1.4-3.4-2-4.5-4.8-5.2-5.1-4-2 1 2.7.1 5.4-1.6 5.2-.7-.1-2.4-.2-3.7-.3-2-.1-2.4-.7-2.8-4.2-.2-2.3.2-4.8.8-5.7 1.1-1.5 1.4-1.5 3.3.2 1.8 1.6 2.1 1.7 2.1.3 0-.9.5-1.9 1.2-2.3.7-.5.8-.2.3.7-.5 1-.5 1.1.2.4.6-.6 1.4-2 1.7-3.2.6-1.8.3-2.2-1.3-2-1.1 0-1.8.4-1.6.7.2.3-.2 1.3-.9 2.2-1.2 1.6-1.8 1.3-6.1-3.3-4.2-4.4-4.7-5.3-3.4-6.3.9-.6 1.6-1.9 1.6-2.8 0-1-.2-1.6-.5-1.4-.6.7-3.1-1.8-2.5-2.6.2-.4-.3-.5-1.1-.2-.9.3-1.6 1.3-1.6 2.1s.4 1.1 1 .8c.5-.3.7 0 .4.9-.4 1.1-1.7.4-5.1-3-4.4-4.2-4.5-4.5-2.9-6.3 1.2-1.3 1.4-2.1.6-2.6-.5-.3-.7-1.1-.4-1.7.4-.6-.1-.8-1.2-.6-2.6.5-2.5 3.4.1 3 1.6-.2 1.7-.1.5.7-1.5 1-5.4-1.8-8.8-6.2-1.1-1.4-1.7-1.5-3.5-.6-2.1 1.2-2.1 1.1-.4-.8.9-1.1 1.4-2.3 1-2.8-.5-.4-.3-.5.4-.2.6.4 1.8.1 2.6-.7.8-.8 1.7-1.3 2.1-1.1.3.3.4.2.2-.1-.2-.3-.7-.5-1.1-.4-.4.1-1.5-.8-2.5-2-1.6-1.8-2.2-2-4-1-1.8 1-2.6.8-4.4-.9-2.4-2.3-4.2-2.8-3-.9.4.7.3.8-.5.4-.6-.4-1.7-.4-2.4.1-.7.4 0-.3 1.6-1.7 1.9-1.7 2.6-3.1 2.2-4.3-.9-2.1-6.4-3.7-8.7-2.5-1.2.5-1.8.5-1.8-.2 0-.5.5-1 1-1 .6 0 1-.5 1-1.1 0-.6-.9-.8-2.2-.3-2.2.6-2.2.6.2-1.5 1.4-1.3 2-2 1.4-1.7-1.4.7-4.7-2.8-3.7-3.9.5-.4-.7 0-2.5 1.1-4.4 2.5-5.5 3.9-4.8 6.1.9 2.7 6.1 5.4 7.7 3.9 1.1-.9 1.1-.8 0 .6-.7.9-1 2.2-.6 2.8 1.4 2.3-1.5.8-4.9-2.5-3.8-3.6-7.2-5-4.2-1.6 1.7 1.8 1.7 1.9-.1 2.3-4.1.8-9.3-4.5-5.7-5.9 1.1-.4 1.2-.9.4-1.8-.8-1-.8-1.9.1-3.3 1-1.6 1.7-1.8 4-1 1.9.7 2.6 1.5 2.3 2.6-.5 1.5-.4 1.5.8.1.7-.8 2.1-1.8 3.2-2.2 1.5-.6 1.6-1 .6-2.2-.7-.8-1.6-1.2-2.1-1-.4.3-.6-.3-.4-1.4.2-1.1-.3-2.5-1.1-3.2-1.3-1.1-1.1-1.4 1.3-2.5 3.6-1.6 4.3-1.6 4.3-.4zm10.1 1.3c-1 .9-1.1.8-.5-.6.3-1 .9-1.5 1.2-1.2.3.3 0 1.1-.7 1.8zm138.2 1.3c-.3.8 0 1.4.6 1.4s1.1.4 1.1 1-.9.6-2.5 0c-1.4-.5-2.5-.6-2.6-.2-.1 1-1.7-3-1.8-4.5-.1-.9.6-.9 2.8-.2 2 .7 2.8 1.5 2.4 2.5zM146 629c0 .5-.4 1-1 1-.5 0-1-.5-1-1 0-.6.5-1 1-1 .6 0 1 .4 1 1zm6.9 6.1c-.6 1.2-.5 1.9.4 2.3.6.4.2.4-1 .2-1.3-.2-2.6.1-3 .6-.3.6-.1.8.5.4.6-.3 1.3-.2 1.6.3.4.5-.2.8-1.1.7-.9-.2-1.9-.8-2.1-1.4-.5-1.6-1.8-1.5-3.6.4-1.5 1.4-1.6 1.4-1.6 0 0-.9.7-1.6 1.5-1.6 1.3 0 1.3-.4.3-2.3-.7-1.2-1.5-2.4-1.8-2.7-.3-.3-.6-1.1-.8-1.9-.3-1.2 0-1.2 1.2-.2s1.9 1 3.8-.3c2.2-1.6 2.4-1.5 4.5 1.1 1.6 1.9 1.9 3.1 1.2 4.4zM181 629c.5 0 1.4.9 2.1 2.1.8 1.6.8 2.4-.2 3.3-.9.8-1 .8-.4-.3s.4-1.3-.8-.8c-1.1.4-2.1-.3-3.1-2.4-1.4-2.8-1.4-3 0-2.5.9.3 2 .6 2.4.6zm117.9 5.4c-.5.6-.2 1.7.9 2.9 1.2 1.4 1.3 2.1.5 2.4-.7.2-.9 1.1-.6 1.9.3.9-.1 1.4-1.3 1.4-1.1 0-1.5-.4-.9-.8 1.2-.8 1.3-4.2.2-5.9-.4-.6-.3-1.4.3-1.8.6-.4.8-1.1.4-1.6-.4-.6-1.1-.5-2 .2-1.1.9-1.8.9-2.6.1-.9-.9-.9-1.2.1-1.2 1.1 0 1.1-.3 0-1.8-1.3-1.6-1.3-1.6.5-.2 1.8 1.4 1.9 1.3 1.3-.5-.5-1.3 0-1 1.7 1 1.5 1.8 2.1 3.4 1.5 3.9zm-234.3-2.7c-2.7 4.9-3.8 6.1-3 3.3.6-2.3 3.1-6 4.1-6 .2 0-.3 1.2-1.1 2.7zm91.4-2.3c0 .2-.8 1-1.7 1.7-1.6 1.3-1.7 1.2-.4-.4 1.3-1.6 2.1-2.1 2.1-1.3zm145 1.6c0 .5-.2 1-.4 1-.3 0-.8-.5-1.1-1-.3-.6-.1-1 .4-1 .6 0 1.1.4 1.1 1zm5.1 1.1c.6 1.3.7 1.9.1 1.5-.6-.3-1.2 0-1.5.6-.2.7-.4.1-.4-1.5-.1-3.3.3-3.4 1.8-.6zm-230.9 2.8c-1.3 3-2 3.7-2.9 2.9-1.4-1.1-1.8-5-.6-6.1.3-.4 1.6-.7 2.9-.7 2.2 0 2.2 0 .6 3.9zm96-1.2c3.5 3.4 3.5 5.4 0 7.1-3.9 1.9-6.1 2.6-3.9 1.2 2.1-1.3 2.2-3 .3-3-.8 0-1.9-1.4-2.5-3.1-1.3-3.9-1.4-4.9-.1-2.9.8 1.3 1.1 1.3 2.2.1 1.1-1.1 1.1-1.3-.1-.6-.9.5-1.2.4-.7-.3 1-1.7 1.7-1.5 4.8 1.5zm49.9.4c.5.1 1.4.3 1.9.4.6.1 1.5.3 2.1.4.6 0 .9 1 .6 2.1-.3 1.1-.1 2 .4 2 1.6 0 1 1.7-.8 2.4-1 .3-2.5.9-3.3 1.3-1.3.5-1.3.4-.1-1.1 1.2-1.4 1.2-1.6-.1-1.1-1.7.7-2.8-2.2-2.7-7 .1-1.7.3-2.2.6-1.3.2 1 .9 1.9 1.4 1.9zm67.9-1.7c0 .3-.4.8-1 1.1-.5.3-1 .1-1-.4 0-.6.5-1.1 1-1.1.6 0 1 .2 1 .4zm-221.1 2.8c-.5.9-.9 2.1-.8 2.5.1.4.1 1.7 0 2.8-.1 1.7-.3 1.8-1.1.5-.6-1-1-1.1-1-.3 0 .7-.4 1.3-1 1.3-1 0-.9-1.4.4-6.2.5-1.7 1.4-2.6 2.6-2.5 1.4.1 1.6.5.9 1.9zm172.1.9c0 .4-.7.6-1.5.3-.8-.4-1.5-1-1.5-1.5 0-.4.7-.6 1.5-.3.8.4 1.5 1 1.5 1.5zm11.1 1.9c.6 0 .7-.6.3-1.3-.6-.9-.5-.9.8 0 .8.7 1.9.9 2.3.5.5-.4.5-.2.2.4-.4.7-.1 1.4.7 1.7.7.3 1.3 2 1.4 3.7.1 2.5-.2 3-1.1 2.1-1.5-1.5-5-1.4-4.2.1.4.7 0 .5-.8-.4-.8-1-1.6-1.6-1.8-1.4-.2.3-.2-1.9 0-4.7.3-2.9.7-4.2.9-3 .2 1.3.8 2.3 1.3 2.3zm35.4-2c-.3.5-.1 1.2.5 1.5.6.4.9.1.8-.7-.2-.7.7-1.3 2.2-1.5 1.4-.1 1.7.1.8.3-2 .6-2.5 3.4-.6 3.4.9 0 .9.3 0 1.2-.7.7-1.2 2.6-1.2 4.2 0 1.7-.4 2.6-.8 2.1-.4-.6-1.4-1-2.2-1-1 0-1.4-1.1-1.3-4 0-2.2-.3-4.7-.8-5.7-.7-1.3-.5-1.5 1.1-1.1 1.1.3 1.8.9 1.5 1.3zm16 .8c-.3.3-1.1 0-1.8-.7-.9-1-.8-1.1.6-.5 1 .3 1.5.9 1.2 1.2zm-26 .2c.3.5.1 1-.4 1-.6 0-1.1-.5-1.1-1 0-.6.2-1 .4-1 .3 0 .8.4 1.1 1zm-192.8 3c-.4 3.3-2.6 7.2-3.7 6.5-.4-.3-1-.2-1.3.2-.2.5-.2.2-.1-.5.2-.6-.2-1.2-.8-1.2-.6 0-.8-.3-.5-.7.4-.3.2-1.2-.4-2-.8-.9-.8-1.3-.1-1.3.6 0 1.3-.9 1.7-1.9.4-1.2 1.4-1.8 3.1-1.7 2 .1 2.4.5 2.1 2.6zm157.3-.8c0 .5.4.7.9.3.5-.3 1.3-.1 1.6.5.4.6.1.9-.6.8-.7-.2-1.4.4-1.5 1.2-.4 4.7-.4 4.6-1.4 3-.8-1.2-1-1-1 .9 0 1.6.4 2.2 1.5 1.7.9-.3 1.5 0 1.5 1 0 .8-.4 1.2-1 .9-.5-.3-1-.1-1 .4 0 .6.7 1.1 1.5 1.1s1.5.9 1.5 2 .6 2 1.3 2c.9 0 .8.3-.2.9-.8.5-1.2 2-.9 3.9.3 2.3.1 2.9-1.1 2.7-.9-.2-2-.4-2.6-.5-.5 0-.2-.5.8-1.1 2-1.2 2.3-4.1.3-3.3-2.1.8-5.6-1.4-5.6-3.6 0-1-.6-2.1-1.2-2.3-.7-.3-.1-.6 1.4-.6 2.9-.1 4.5-1.6 2.8-2.6-.6-.4-.8-1.1-.5-1.6.9-1.3-.9-1.1-2.3.3-.9.9-1.1.7-.7-1 .2-1.2 0-2.4-.6-2.7-1.3-.9-1.1-5.3.3-5.7 1.9-.7 6.8.4 6.8 1.4zm-77.9 7c.6 1.1.5 1.9-.3 2.4-.7.5-.8.3-.3-.5.4-.8-.4-.6-1.9.4-2.9 1.9-3.3 1.6-7.5-4.3l-2.2-3.2 2.5 1c2.1.8 2.6.7 2.6-.6 0-.8-.4-1.3-.9-.9-.5.3-1.3 0-1.7-.6-.4-.7-.3-.9.4-.5.6.3 1.4.1 1.8-.6.7-1.1 5.2 3.3 7.5 7.4zm40.7-5.6c1 1 1.8 3 1.9 4.4 0 1.4-.1 1.9-.4 1.2-.3-.8-1.5-1.1-3.6-.7-2.8.5-3.4.2-4.9-2.2-1.5-2.7-1.5-3 0-3.9 2.3-1.5 4.9-1.1 7 1.2zm44.2-.5c0 1.4-1.7 1-2.3-.5-.4-1-.1-1.3.9-.9.7.3 1.4.9 1.4 1.4zm68.8-1.4c-.1.5.3 1.8 1 3.1.8 1.4 1 2.8.4 3.9-.8 1.3-.9 1-.9-1.2 0-1.5-.6-3.1-1.3-3.5-.7-.4-.9-1.3-.6-1.9.8-1.2 1.7-1.5 1.4-.4zm-104.8.7c0 .3-.4.8-1 1.1-.5.3-1 .1-1-.4 0-.6.5-1.1 1-1.1.6 0 1 .2 1 .4zm-21.5 5c.8 1.6 1.5 2.9 1.5 3.1 0 .1-1.5.2-3.2 0-2.6-.2-3.5-.9-4.5-3.3-1.2-3-1.2-3 1.8-2.8 2.1.2 3.4 1 4.4 3zm-114.7 2.1c-.2 4.7-2.4 5.3-3.3.8-.4-2.5-.2-3.8.6-4.4 2-1.2 2.8-.1 2.7 3.6zm169.9-2.9c-.3.3-1.2.4-1.9.1-.8-.3-.5-.6.6-.6 1.1-.1 1.7.2 1.3.5zm49.7 2.4c-.5.5-1.6.5-2.4-.1-1.3-.9-1.2-1 .3-.5 1.1.4 1.7 0 1.8-1.2 0-1.2.2-1.3.6-.4.3.8.1 1.8-.3 2.2zm17.3-.5c5 3.3 5.3 10.8.6 14.5-7.9 6.2-18.5-4.5-12.7-12.8 2.9-4.2 7.3-4.8 12.1-1.7zm-134.3 1.4c-.2.3-1.2-.3-2.2-1.3-1.6-1.7-1.6-1.8.5-.5 1.2.7 2 1.5 1.7 1.8zm43.7-1.5c.5-.3.9-.1.9.4 0 .6 1.1 1.3 2.4 1.6 2.7.7 4.5 5.4 2.5 6.7-1.2.7-5.5.6-6.3-.2-.2-.2-.6-2.7-.9-5.4-.3-2.8-.3-4.4 0-3.7.3.6.9 1 1.4.6zM67.4 650c-.1.8-.3 2.8-.4 4.5-.1 2.6-.3 2.7-.9 1-.7-1.8-1-1.6-2.4 1.8-1 2.2-2.1 3.6-2.7 3.2-.8-.5-.8-1.1 0-2 .8-.9.8-1.5 0-2-.6-.4-.9-2.3-.8-4.2.2-2.9.8-3.8 3-4.7 1.5-.6 2.8-1.5 2.9-2.1 0-.5.4-.1.8 1 .5 1.1.7 2.7.5 3.5zm111.3 0c-.1 2.1-2.4 2.2-3.3.1-1.5-3.5-1.3-4 1.1-2.9 1.3.6 2.3 1.8 2.2 2.8zm24.8-1.1c.3 1.1 1.4 1.8 2.8 1.7 1.5-.1 2.2.4 2.1 1.6-.1 1 .2 1.8.7 1.8 2 0 .7 3.6-1.6 4.7-2.3 1-2.7.9-4-1.8-.8-1.5-1.6-4-1.7-5.4-.1-1.4-.6-2.5-1-2.5s-.8-.5-.8-1c0-1.8 2.8-1.1 3.5.9zm85.5-.5c0 .3-.4.8-1 1.1-.5.3-1 .1-1-.4 0-.6.5-1.1 1-1.1.6 0 1 .2 1 .4zm2.8.7c-1.5.8-1.5 1.3-.5 2.3.6.8 1.7 1.1 2.2.8.6-.3.4.2-.4 1.2-1.2 1.4-1.2 1.9-.1 2.9 1 1 1.1.9.6-.3-.4-.8-.1-.6.8.4.8 1 1.3 2.3.9 2.9-.3.5-.9.3-1.4-.4-.7-1.1-.9-1-.9.4 0 1-.7 2.9-1.6 4.2-1.5 2.3-1.5 2.5 0 2.5.9 0 1.7-.8 1.7-1.8.1-1.6.2-1.6.6.1.2.9.8 1.5 1.1 1.3 1.4-.8.4 6.5-1.2 8.9-1.2 1.8-1.3 2.4-.4 2.3.8-.2 1.2.5 1 1.5-.2.9.1 1.7.5 1.6 3.4-.6 4 .2 3.9 4.5-.1 2.9-.5 4.1-1.1 3.6-.6-.5-1.7-.5-2.4-.1-1.8 1.1-.5 5.2 1.4 4.4.8-.3 1.2-.9.9-1.4-.3-.5-.1-.9.4-.9 1 0 4.2 7.1 4.2 9.3 0 1.8-2.4 6.7-3.2 6.7-.5 0-.8-.9-.8-2s-.4-2-.8-2-1.3-1.4-2-3.2c-1.2-3.3-.5-4.7 2.6-4.8.6 0 1.2-.5 1.2-1 0-.7-.6-.7-1.9 0-1.1.5-2.2 1-2.4 1-.6 0-3.2-9.3-2.9-10.3.1-.4-.2-.7-.6-.7-.5 0-.6-1.9-.2-4.3.4-3 .2-4.7-.6-5.5-1.8-1.7-1.5-12.2.3-11.5.7.3 1.3-.2 1.3-1 0-1-.7-1.3-1.9-1-1.5.4-2-.2-2.4-2.4-.7-3.3-.6-6.5.1-5.8.3.3 1.1-.4 1.9-1.5.8-1.1 2-2 2.6-2 .7 0 .4.5-.5 1.1zM83 651.4c0-1.4 3.8-1.5 4.6-.2.4.7.2.8-.4.4-.6-.4-2.1-.2-3.1.4-1.7.8-1.9 1.5-1.1 3.5.6 1.6.6 2.7-.1 3.1-.8.4-.7 1 0 1.7.6.6 1.1 1.9 1.1 2.9s.7 1.8 1.5 1.8 1.3.6 1 1.2c-.4 1.2-1.4 7.7-1.7 10.5-.1.7-.5 1-1 .7-.4-.3-.3-1.4.3-2.5 1-1.9.8-2-2-1.6-3 .5-3.1.4-3.1-3.3 0-3 .5-4 2-4.5 1.2-.4 2-1.5 2-2.7 0-1.2-.3-1.9-.6-1.5-.4.3-1.3 0-2.1-.8-1.7-1.8-3.9-1.9-4.9-.3-.4.7-.3.8.4.4.8-.5 1.2 0 1.2 1.3 0 1.4-.6 2.1-1.8 2.1-1.4 0-1.8-.7-1.7-2.3.3-3.4 1.6-5.7 3.2-5.7.8 0 1.1.5.7 1.2-.4.7-.3.8.4.4s1.2-2 1.2-3.7c0-1.6.5-2.9 1.1-2.9.5 0 .7-.6.4-1.3-.4-.6.1-.3.9.7.9 1.1 1.6 1.5 1.6 1zm34.4-.8c.3.8.2 1.2-.4.9-.6-.3-1-1-1-1.6 0-1.4.7-1.1 1.4.7zm50.8 2.9c.7.1 1.2.7 1 1.4-.1.7.2 1 .7.7 1.2-.8 3.4 2 2.6 3.4-.3.5-1.5 1.4-2.5 2-1.5.8-2.4.5-4.4-1.6-2.2-2.5-2.6-6.1-.5-4.8 1.5.9 1-1.3-.6-2.6-.8-.7-1.2-1.7-.8-2.2.3-.6 1.2 0 1.9 1.3s1.8 2.4 2.6 2.4zm91.1-.7c.7 3.8-.1 5-3.4 4.7-2.2-.2-2.9.1-2.5 1.1.3.7.1 1.6-.4 1.9-.5.3-1-.5-1.2-1.7-.2-1.4-1.3-2.5-2.8-2.9-2.5-.7-2.5-.7-.2-.8 1.8-.1 2.3-.6 2-2.3-.2-1.8.3-2.4 2.7-2.8 4.1-.8 5.2-.3 5.8 2.8zm-97.3-1.9c0 .6-.4 1.2-.8 1.5-.5.3-.9-.1-.9-.9s.4-1.5.9-1.5c.4 0 .8.4.8.9zm161.8 1.6c-.3.3-.9-.2-1.2-1.2-.6-1.4-.5-1.5.5-.6.7.7 1 1.5.7 1.8zM96 652.2c0 .4-.7.8-1.5.8s-1.5-.4-1.5-.8c0-.5.7-.9 1.5-.9s1.5.4 1.5.9zm-.1 5c.1.3-.8.4-1.9.1-1.1-.3-2.1-.1-2.1.3-.8 5.1-.6 5.4 2.2 5.4 1.6 0 2.9.5 2.9 1.1 0 .5.4.8.9.4.5-.3 1.2-.1 1.5.4.3.5-.1 1.1-.9 1.5-.8.3-1.5 1.3-1.5 2.3 0 1-.9 2.4-2.1 3.1-1.2.8-1.8.9-1.4.3.3-.6.2-1.1-.3-1.1s-1.3-1.5-1.7-3.3c-.4-1.7-.9-3.7-1.1-4.2-1-3.2-1.6-8.6-1-10 .5-1.5 1-1.4 3.5.7 1.7 1.3 3 2.6 3 3zm99.5-2c1.6 3 2.2 6.7 1 5.5-.3-.3-1.7-.2-3 .3-2.1.9-2.6.6-3.9-2.6-2-4.9-2-5.1 1.6-4.6 2.2.3 3 .1 2.5-.7-.4-.6-.5-1.1-.2-1.1.2 0 1.2 1.4 2 3.2zm28.9 1.5c-.4 1.1-.3 1.4.5.9 1.1-.7 1.7.6 1.3 2.7-.1.5.2.6.7.3 1.5-.9 2.9.9 3.6 4.6.6 3.3.5 3.6-1.4 3.1-1.1-.3-2 0-2 .6s.5 1.1 1 1.1c.6 0 1 1.1 1 2.5s.5 2.5 1.2 2.5c.6 0 .8.3.5.6-.3.4 0 1.6.8 2.6.7 1.1 1.1 2.7.8 3.4-.7 1.9-4.9 1.8-5.7-.2-1-2.5-.7-5.4.5-5.4 1.6 0 .2-5.2-1.8-6.7-2-1.6-2.8-14.3-.8-14.3.3 0 .1.7-.2 1.7zm-114.9.6c1.2.9 1.7 2.3 1.4 4.2-.2 2.4-.8 2.9-3.5 3.1-2.1.2-3.7-.4-5-1.9-1-1.1-1.2-1.7-.5-1.3.8.5 1.2-.1 1.2-1.8 0-3.5 3.2-4.6 6.4-2.3zm78.1-.3c.3.6-.1.7-.9.4-1.8-.7-2.1-1.4-.7-1.4.6 0 1.3.4 1.6 1zm-71.5 1.5c-1 1.2-1 1.5 0 1.5.8 0 1.1.3.7.6-.3.3-1.1.3-1.7-.1-.8-.5-.8-1.1.1-2.1.6-.8 1.4-1.4 1.6-1.4.3 0 0 .7-.7 1.5zm4-.1c0 .3-.4.8-1 1.1-.5.3-1 .1-1-.4 0-.6.5-1.1 1-1.1.6 0 1 .2 1 .4zm7 1.1c0 .8-.4 1.5-1 1.5-.5 0-.7-.7-.4-1.5.4-.8.8-1.5 1-1.5.2 0 .4.7.4 1.5zm25.1.2c1.3 1.6 1.2 1.7-.3.4-1.7-1.3-2.2-2.1-1.4-2.1.2 0 1 .8 1.7 1.7zM270 659c0 .5-.2 1-.4 1-.3 0-.8-.5-1.1-1-.3-.6-.1-1 .4-1 .6 0 1.1.4 1.1 1zm-204.5 1c-.3.5.1 1 .9 1 1.2 0 1.4.7.9 3.2-.7 4.1-1.3 4.8-4.9 5.4-1.6.2-3.5.7-4.1.9-.7.2-1.3 0-1.3-.5 0-.6 1-1 2.1-1 1.8 0 2.1-.5 1.7-3.1-.4-2.3.1-3.4 2-5 2.7-2.1 3.6-2.4 2.7-.9zm28.5.6c0 .8-.5 1.2-1 .9-.6-.4-.8-1.1-.5-1.6.9-1.4 1.5-1.1 1.5.7zm114.5-.7c.3.5.2 1.2-.3 1.5-.5.3-.9-.1-.9-.9 0-1.7.3-1.9 1.2-.6zm48.5.1c0 .5-.2 1-.4 1-.3 0-.8-.5-1.1-1-.3-.6-.1-1 .4-1 .6 0 1.1.4 1.1 1zm3 0c0 .5-.4 1-1 1-.5 0-1-.5-1-1 0-.6.5-1 1-1 .6 0 1 .4 1 1zm-117.5.9c.3.5.2 1.2-.3 1.5-.5.3-.9-.1-.9-.9 0-1.7.3-1.9 1.2-.6zm32.1 1.1c0 1.2-.4 1.6-.9 1.1s-.6-1.4-.3-2c1-1.5 1.2-1.4 1.2.9zm121.5.7c1.3 1.6 1.2 1.7-.3.4-1-.7-1.8-1.5-1.8-1.7 0-.8.8-.3 2.1 1.3zm-35.4.7c.1.1.5 3.1.8 6.6.3 3.6.6 7.1.7 7.7.1.7 1.1 1.4 2.2 1.4 1.7.1 1.8.2.4.6-1.3.3-1.8 1.5-1.8 4.4 0 3.8-1.2 5.1-2.6 2.7-.4-.7-.3-.8.4-.4s1.2.2 1.2-.3c0-1.5-2.7-1.4-3.3.1-.3.9-1.1.5-2.6-1.1-2.5-2.8-2.9-8.1-.6-8.1 1.4 0 1.9-1.1 1.6-3.8-.3-2 .7-1.4 2.4 1.5.9 1.6 1.3 1.9 1 .8-.4-1.1-.8-2.7-1-3.5-.2-.8-.4-1.6-.4-1.8-.1-.2-.7 0-1.3.5-2 1.2-3.7 1.2-4.5 0-1-1.6-1-5.8-.1-6.3.5-.3.6-.9.3-1.4-.4-.7 6.2-.3 7.2.4zm62 .2c-.3.3-1.2.4-1.9.1-.8-.3-.5-.6.6-.6 1.1-.1 1.7.2 1.3.5zm-77.5 5.1c-.2 2.4.2 6.8.9 9.9 1.4 6.2.7 7.5-3.5 6.7-2.5-.5-4.6-4-4.6-7.4 0-1.6.5-1.9 2-1.4 1.2.4 2 .2 2-.5 0-.6.5-.8 1-.5.6.4.5-.4-.1-1.9-.7-1.4-1.6-2.3-2.2-1.9-.5.3-.4.9.3 1.3.9.5.9.9.1 1.4-.6.4-1.1.2-1.1-.4 0-.6-.5-.8-1.2-.4-.9.5-.9.3.1-.9 1.1-1.4 1.1-1.8-.3-2.3-.9-.4-1.6-1.8-1.6-3.4 0-2.6.2-2.8 4.2-2.6l4.3.1-.3 4.2zm29.8-.2c.7 1.3 1 2.8.6 3.3-.9 1.5-5.5-.9-6.2-3.1-.4-1.4-1.3-1.8-3-1.4-1.3.2-2.1 0-1.8-.4.3-.5 1.4-.9 2.5-.9 1 0 1.9-.4 1.9-1 0-1.7 4.7 1.1 6 3.5zm27.7-2.3c.1 1.3-.1 1.8-.5 1.2-.4-.6-1.5-1-2.5-.8-.9.1-1.5-.2-1.1-.7.3-.5.9-.7 1.4-.4.5.3 1.1.1 1.5-.5.9-1.4 1.1-1.3 1.2 1.2zm16.3-.3c0 1.3-3.7 2.9-4.9 2.1-.9-.5-1-1-.2-1.4.6-.4 1.1-.2 1.1.4 0 .6.5.8 1.1.5.6-.4.8-1.3.5-2.1-.3-.8 0-1.1 1-.7.7.3 1.4.8 1.4 1.2zm-196.6 3c-.4.3-.9 0-1.1-.7-.3-.6-.9-1-1.4-.6-.5.3-.9-.3-.9-1.2 0-1.6.2-1.6 2 .1 1.1 1 1.7 2.1 1.4 2.4zm57.5-2c.6 1 .7 2.2.3 2.6-.4.5-.2.5.5.1 2-1.1 2.6 1.5.7 2.9-1.1.8-2.2 1.5-2.6 1.5-.9 0-4.6-3.9-5.9-6.2-.7-1.3-.5-1.5 1-1.1 1 .3 2.2 0 2.5-.6 1-1.6 2.4-1.3 3.5.8zm33.2 1.3c.5 1.9.3 2.8-.8 3.3-1.8.6-1.6.8-3.3-2.4-1-1.9-1-2.5.1-3.2 2-1.3 3.2-.6 4 2.3zm-14.9.2c2.2.1 3.3.6 3.3 1.6.1.8.6 1.4 1.1 1.3.6-.1.9.8.7 2-.4 1.8-1.2 2.3-4.4 2.5-2.4.1-3.8-.1-3.5-.7.4-.5.1-1.5-.6-2.3-.7-.7-1.4-2.7-1.5-4.3-.2-2.1 0-2.6.7-1.6.5.8 2.3 1.5 4.2 1.5zm109.5-1.7c-.9.2-1.4.9-1.1 1.5.4.7.2.8-.5.4-1.5-1-.4-2.6 1.7-2.5 1.5.1 1.5.2-.1.6zm2.6 2.3c-.9 1.1-1.9 1.7-2.1 1.5-.6-.6 1.8-3.5 2.9-3.5.5 0 .1.9-.8 2zm-23.6-.4c-.3.3-1.2.4-1.9.1-.8-.3-.5-.6.6-.6 1.1-.1 1.7.2 1.3.5zM54.8 672c-.1 1.6-.6 3-1 3-.9 0-1-.7-.2-3.8.9-3.1 1.5-2.7 1.2.8zm167.6-.4c.5 1.3.2 1.6-2.6 1.8-.7.1-1.6.5-2 1.1-.5.6-.8.6-.8-.1 0-.6.7-1.7 1.5-2.4s1.2-1.6.9-2.1c-.3-.5.2-.6 1-.3s1.7 1.2 2 2zm79-1.4c-.3.4-.9.8-1.5.8-.5 0-.9-.4-.9-.8 0-.5.7-.9 1.5-.9s1.2.4.9.9zm3.1-.2c.3.5.1 1-.4 1-.6 0-1.1-.5-1.1-1 0-.6.2-1 .4-1 .3 0 .8.4 1.1 1zm-240.6 2.9c-.3.6-1 .7-1.8.2-.7-.5-1-1.4-.6-2.1.9-1.4 2.9.2 2.4 1.9zm2.8-.9c-.1 1.2-.5 1.6-1 1.1s-.6-1.4-.3-2c1.1-1.6 1.5-1.3 1.3.9zm10.8.9c.1 1.7-.3 2.7-.9 2.4-.5-.4-.7.1-.3 1 .3.8 0 2-.7 2.6-.9.8-1.3.1-1.5-3-.1-2.4.2-3.8.7-3.5.6.3 1.2-.1 1.6-.9.8-2.2 1.1-1.8 1.1 1.4zm31.5-1.4c.1-1.8.1-1.9 1.1-.2.5.9.7 2.2.4 2.8-.9 1.4-3.5-.9-3.4-3 0-1.2.2-1.1.9.4l.9 2 .1-2zm17.6 8.8l.2 9.6-2.5-1.6c-2.3-1.6-2.4-1.7-.6-2.7 1.7-1 1.7-1.5.6-4.6-.7-2.3-1.2-2.8-1.3-1.5 0 1.2-.3 1.6-.8.9-.4-.6-1.5-1.3-2.4-1.7-1.4-.5-1.7-1.5-1.4-3.9.3-1.8.5-3.5.5-3.8.1-.3 1.8-.5 3.9-.5l3.7.1.1 9.7zm170.6-8.1c-.7.7-1.2.8-1.2.2 0-1.4 1.2-2.6 1.9-1.9.2.3-.1 1.1-.7 1.7zM256 674c0 1.1-.4 2-.9 2-.7 0-.8-1.7-.2-3.8.4-1 1.1.2 1.1 1.8zm18 1c1.2.8 1 .9-.7.7-1.2-.2-2.6-.6-2.9-1-1.1-1.1 1.9-.8 3.6.3zm25 2.3c0 2.3-.2 2.2-1.9-1-1-1.9-.9-2.2.4-1.7.8.4 1.5 1.5 1.5 2.7zm5.8-.8c-.1 1.3-.4 2.2-.7 2-.2-.3-1 0-1.8.7-.7.6-1.6.8-2 .4-.3-.3-.1-.6.6-.6s.9-.5.5-1.2c-.5-.7-.3-.8.5-.4.8.5 1.4 0 1.8-1.3.7-2.8 1.3-2.7 1.1.4zm-191.6 3.4c3.7 3.3 3.4 4.2-1.7 4.8-3 .3-3.7 0-4.5-2.2-2.4-6.2.8-7.5 6.2-2.6zm24.9-1.2c1.3 1.6 1.2 1.7-.3.4-1.7-1.3-2.2-2.1-1.4-2.1.2 0 1 .8 1.7 1.7zm52.1 1.8c1.3 2.5 1.4 3.6.5 4.2-2 1.5-3.3 1-6.3-2.7-1.6-1.9-2.4-3.1-1.8-2.7.6.3 2 0 3-.8 2.6-2 2.7-1.9 4.6 2zm11.7.5c0 1-.3.8-.9-.5-1.2-2.7-1.2-4.3 0-2.5.5.8.9 2.2.9 3zm74.5-3c1.6.6 2.6 1.7 2.6 2.9 0 1.1.6 2.2 1.3 2.4.6.3 0 .6-1.5.6-2.1.1-2.8.6-2.8 2.2 0 1.1.5 1.7 1 1.4.6-.3 1 .4 1.1 1.7.1 2.3.1 2.3.8-.2.7-2.2.9-1.9 1.6 2.2.8 5.4.2 6.8-2.8 6.6-1.2 0-2.9.1-3.7.3-.9.3-1.6-.4-1.8-1.9-.2-1.4-.8-2-1.5-1.6-.8.5-.8.2.1-.7.6-.7 1.2-2.8 1.2-4.5 0-1.8.5-3.6 1.1-4 .8-.5 1 .1.7 2-.6 2.9.8 4.4 2.4 2.8.6-.6.6-1.2-.1-1.6-.6-.4-1.1-1.6-1.1-2.7 0-1.3-.6-1.9-1.7-1.7-1.2.2-1.9-.6-2.4-2.9-.9-4.5.3-5.3 5.5-3.3zm-190.2 2c1.5 0 1.8.9 1.8 5.5 0 3-.4 5.5-.9 5.5s-.7-.9-.4-2c.5-1.8.2-1.9-1.8-1.1-2.5.9-3.1 2.8-1.7 4.7.5.7.3 1.4-.6 1.7-2.2.9-3.4-12.2-1.2-13.8.9-.7 1.4-1.4 1.2-1.7-.1-.3.2-.2.8.3.5.5 1.8.9 2.8.9zm14.6 1.3c1.6 4.4 1.6 4.5-1 4.9-1.2.2-2.3.8-2.5 1.5-.4 1.2 1.4 1.2 3.3.1.6-.4 1.1-.1 1.1.7 0 .8-.6 1.6-1.4 1.9-.7.3-1.3.1-1.3-.5s-.5-.7-1-.4c-1.1.7-3.1-3.5-2.3-4.8.7-1.2-1.2-.8-2.5.5-.9.9-1.5.9-2.4-.1-1.1-1.1-1-1.3 0-.7.6.4 1.9 0 2.8-.8 1.4-1.5 1.4-1.7 0-2.2-.9-.3-2.3-.1-3.1.6-1.3 1.1-1.4 1-.9-.4.4-1.2 1.4-1.6 2.8-1.4 1.2.3 2.8-.1 3.4-.9 2.1-2.2 3.7-1.5 5 2zm221.1-1c0 .9-.2.9-.5 0-.3-.7-1.3-.9-2.2-.6-1.4.4-1.4.3-.2-.5 1.6-1.2 3-.7 2.9 1.1zm-266.5-.2c-.3.6 0 1.5.7 2 1.2.7 1.2.9 0 .9-.7 0-1.1.6-.8 1.5.4.8.2 1.7-.2 1.9-.5.3-.6 1.7-.3 3.1.2 1.4-.1 3.2-.9 4.1-1 1.2-1 1.5.2 1.2 1-.2 1.5.8 1.7 3.4.2 2.9 0 3.8-1.2 3.8-2.1 0-2 1 .2 2.6 1.5 1.3 1.4 1.3-1 .4-2.2-.7-2.9-.6-3.7.8-.6.9-1.1 1.2-1.1.7 0-.6-.5-.3-1 .5-.8 1.2-1 1.1-1-.7 0-1.5.7-2.3 2.2-2.5 2-.3 2.3-1 2.6-6.3.1-3.3.6-6.2 1-6.5 1.1-.8 1.3-3 .2-3-1.5 0-1.2-4.3.6-6.8 1.5-2.2 3.1-3.2 1.8-1.1zm150.1 1c-.4.5-.2.9.4.9.5 0 1.3.9 1.6 2 .4 1.1 1 1.8 1.4 1.5.5-.2.6.7.3 2.1-.2 1.4-.7 2.3-.9 2-.3-.2-1.8 0-3.5.6-2.5.9-3.2.8-4-.5-.5-.9-.9-1.9-.9-2.2 0-.2-.4-1.8-.9-3.5s-.5-3.2.1-3.5c.5-.4.9.1.9 1 0 1.2.5 1.5 1.6 1.1.9-.3 1.8-.6 2-.6.2 0 .4-.7.4-1.6 0-.8.5-1.2 1-.9.6.4.8 1.1.5 1.6zm14.6 2.7c.5-.7.9-.8.9-.2 0 .5-.6 1.9-1.4 2.9-1.3 1.8-1.4 1.7-2.9-.6-.8-1.3-1.8-3.5-2.2-4.9-.6-2.3-.4-2.2 2.1.8 2 2.6 2.9 3 3.5 2zm32.4-3.8c.3.5.1 1-.4 1-.6 0-1.1-.5-1.1-1 0-.6.2-1 .4-1 .3 0 .8.4 1.1 1zm56.1.2c.4.7.3.8-.4.4s-1.2-.3-1.2.3-.7.8-1.6.4c-1.3-.5-1.3-.7-.2-1.4 1.8-1.2 2.6-1.1 3.4.3zm-169.4 5.3c.7.7.9.3.6-1.1-.3-1.3 0-2.1.8-2.1.7 0 1.3.3 1.2.6-.2 2 .5 3 2.3 3.6 1.7.6 1.9.9.8 1.6-1.1.7-1.2 1.2-.1 2.9 1.2 2 .6 2.6-2.1 2.1-.5-.1-.6.3-.3.8.4.5.2 1.2-.3 1.6-.5.3-1.4-.2-1.9-1.2-.9-1.4-1.3-1.5-2.6-.4-.9.7-1.6 1.2-1.7 1-.9-7.3-.9-8.9 0-8.9.6 0 1.1-.5 1.1-1.1 0-.5-.4-.7-1-.4-.5.3-1 0-1-.9 0-2 2.4-2.6 2.8-.7.2.9.9 2 1.4 2.6zm23.2.4c-.6.6-4.4-3-4.4-4.2 0-.5 1.1.1 2.4 1.4 1.4 1.3 2.3 2.6 2 2.8zm107.3-4.3c-.3.3-1.2.4-1.9.1-.8-.3-.5-.6.6-.6 1.1-.1 1.7.2 1.3.5zm33 2.6c-.3.7-.5.2-.5-1.2s.2-1.9.5-1.3c.2.7.2 1.9 0 2.5zM124 682.6c0 .8-1.9 1.3-2.4.6-.3-.5.1-.9.9-.9s1.5.2 1.5.3zm197 .8c0 .2-.7.7-1.6 1-.8.3-1.2.2-.9-.4.6-1 2.5-1.4 2.5-.6zm-243.5 7.1c-.3 2.6-.9 4.5-1.1 4.2-1.2-1.2-1.4-7-.3-8.3 1.8-2.2 2.2-1 1.4 4.1zm53.9-3.3c-.3.4-.9.8-1.5.8-.5 0-.9-.4-.9-.8 0-.5.7-.9 1.5-.9s1.2.4.9.9zm191.6-.8c0 .2-.7.7-1.6 1-.8.3-1.2.2-.9-.4.6-1 2.5-1.4 2.5-.6zm-272.3 3.7c-.1 1.9-.2 1.9-1.4.3-.7-.9-1-2.1-.7-2.6.9-1.4 2.3.1 2.1 2.3zm114.8-1.1c1 1.1 1.6 2 1.3 2-.3 0-1.3-.9-2.3-2-1-1.1-1.6-2-1.3-2 .3 0 1.3.9 2.3 2zm81.7.9c.5 9.3.5 12.7 0 13.6-1.2 1.9-1 3.5.4 3.5 1 0 1.4 1.2 1.4 4s-.4 4-1.4 4c-2.4 0-4.6-1.2-4-2.1.3-.5 0-.9-.5-.9-.6 0-1.1-1.3-1.1-3 0-2.2.4-2.8 1.5-2.4.9.4 1.6 0 1.6-.7.5-5.8.4-6.4-1.9-6.7-1.2-.2-2-.7-1.7-1.2.3-.5.1-1.1-.5-1.5-1.5-.9-1.2-4.1.6-5.5 1.2-1.1 1.5-1.1 1.2.1-.2.8-.7 1.7-1.3 2.1-.6.5-.5.8.3.8.7 0 1.5-.7 1.8-1.5.4-.8 1-1.2 1.5-.9.5.3.5-.5 0-1.9-.7-1.8-.6-2.4.5-2.4.8 0 1.5 1.1 1.6 2.6zm-13 .5c.7-.4.6 0 0 1.3-.6 1.1-.8 2.9-.5 4.1.3 1.2.1 2.2-.5 2.2-1.4 0-2.9-2.1-3.7-5.3-.6-2.1-.4-2.7.9-2.7.9 0 1.7-.6 1.7-1.3.1-.6.3-.4.6.6.2.9.9 1.4 1.5 1.1zm67.6.1c-.3.3-.9-.2-1.2-1.2-.6-1.4-.5-1.5.5-.6.7.7 1 1.5.7 1.8zm29.6-.8c.4 1 .4 1.4 0 1-.4-.4-1.3-.2-1.9.3-.9.8-1.4.6-1.9-.5-.3-.9-.2-1.3.3-1 .5.3 1.2.1 1.6-.5.9-1.4 1.2-1.3 1.9.7zm-245.5 0c-.3 2 .2 3.4 1 2.9.5-.3 1.1.4 1.5 1.7.8 3.1.7 7.7-.1 7.6-1.9-.3-3.3.2-3.3 1.2 0 .5.4.8.9.5.5-.4.7.3.4 1.5-.4 1.6-.8 1.7-1.4.7-.6-.9-.9-.4-.9 1.5 0 2.5.2 2.6 2 1.5 1.1-.7 2-1.7 2-2.3.1-1.8 2.2 2.6 2.7 5.6.3 2-.1 3.1-1.1 3.5-.9.3-1.6 1.2-1.6 2s-.3 1.4-.7 1.4c-2.2-.1-3.2-2.3-4.2-9.8-.6-4.5-1.5-9.1-2.1-10.2-.8-1.6-.6-2.2 1.5-3.6 1.4-.9 2.2-2.1 1.8-2.8-1.3-2-1.2-3.6.3-3.6.8 0 1.3.3 1.3.7zm18.6 3.3c.8 0 1.1.7.8 2.1-.3 1.2-.1 2.4.6 2.8.8.5.6 1.4-.9 3.1-1.1 1.3-2 1.8-2 1.2 0-.7-.4-1.2-1-1.2s-.9.3-.9.7c.4 2.2-.2 4.3-1.2 4.3-.6 0-.9-.9-.6-1.9.3-1.2-.1-2.2-.9-2.5-.8-.3-1.4-2-1.4-4.1 0-2.9.4-3.5 2-3.5 1.1 0 2.4-.8 2.7-1.7.4-1.1.8-1.2 1.1-.5.2.7 1 1.2 1.7 1.2zm26.3.6c1.2.8 2.3 1.8 2.3 2.2.7 3.5.4 5.1-1.2 6-1.5 1-1.7.8-1.3-1.3.3-1.9.1-2.3-1.1-1.9-.8.4-1.5 1.1-1.5 1.7 0 2.6-2.9-2.1-3.6-5.7-.6-3.7-.6-3.8 1.7-3.1 1.3.4 3.4 1.3 4.7 2.1zm175.7-.8c-.3.3-1.1 0-1.8-.7-.9-1-.8-1.1.6-.5 1 .3 1.5.9 1.2 1.2zm-193.5.4c0 .9.4.8 1-.2.9-1.3 1.2-1.2 2.5.4 1.2 1.6 1.2 2.2.2 3.5-1 1.2-.9 1.4.6.8.9-.3 1.7-.2 1.7.3 0 .6-.6 1-1.4 1-.8 0-2.1.3-2.9.6-1 .3-1.7-.3-2.1-1.9-.3-1.4-.9-3.2-1.2-4.1-.3-.9-.1-1.6.5-1.6s1.1.6 1.1 1.2zm57.4 0c-.3.4-.9.8-1.5.8-.5 0-.9-.4-.9-.8 0-.5.7-.9 1.5-.9s1.2.4.9.9zm24.5.4c.4-.3.8.1.8.9 0 1.1-.4 1.2-1.4.4-.7-.6-1.3-1.7-1.2-2.3 0-.7.2-.6.6.2.2.6.8 1 1.2.8zm13.6 1.4c-.2 1.1 0 2 .6 2 .5 0 .9-1 .9-2.3 0-2 .2-1.9 1.6.8.9 1.6 1.7 3.6 1.8 4.3.1.8.7 1.7 1.3 2 1.4.9-.4 2.6-3.2 3-1.1.2-2.3.8-2.6 1.4-.7 1.1-3.6-3.1-3.9-5.8-.4-3.6 0-5.5 1-4.9.6.3 1-.3 1-1.5s.4-1.9.9-1.5c.6.3.8 1.4.6 2.5zm14.2-.9c.6.6.9 1.8.6 2.5-.3.8 0 1.4.6 1.4s1.1.6 1.1 1.4c0 2.6-3.2 1-4.6-2.3-.8-1.8-1.4-3.5-1.4-3.7 0-.9 2.7-.3 3.7.7zm68.8 4c.9 1.6 1.1 2.9.6 2.9-1.3 0-4.1-4-4.1-5.8 0-1.9 1.8-.5 3.5 2.9zm-137-2.2c.3.5.2 1.2-.3 1.5-.5.3-.9-.1-.9-.9 0-1.7.3-1.9 1.2-.6zm18.9.7c.9 2.4.4 2.4-1.8.3-1.6-1.6-1.7-1.9-.4-1.9.9 0 1.9.7 2.2 1.6zm132.3.6c-.3.8-.6.5-.6-.6-.1-1.1.2-1.7.5-1.3.3.3.4 1.2.1 1.9zm12.6 3.8c-.7.8-2.2-2.4-1.6-3.4.4-.5 1-.1 1.3 1 .4 1 .6 2.1.3 2.4zm-240.6 5.2c-.2 1.3-.4.3-.4-2.2s.2-3.5.4-2.3c.2 1.3.2 3.3 0 4.5zm156-3c-.3.7-.5.2-.5-1.2s.2-1.9.5-1.3c.2.7.2 1.9 0 2.5zm41.2-1.7c.1-1.6.3-1.7 1.1-.5.6.9.5 1.7-.3 2.2-2 1.3-2.7.9-2.6-1.5 0-2.1.1-2.1.9-.2l.9 2v-2zm-158.3 2.4c-.3.4-.1 1.3.5 2.1.7 1.2.9 1.1 1-.5 0-1.1.3-1.4.6-.8.2.7 1.2 1.3 2.2 1.3 1.3 0 1.8 1 1.9 4 .2 3.1-.1 4-1.4 4-.9 0-1.4.6-1.1 1.3.3.8.1 2-.4 2.8-.6 1-.9.6-.9-1.5 0-2.3-.3-2.6-1.4-1.7-2 1.7-2.6.2-3.1-7.5-.3-5.6-.2-6.4 1-5.4.8.7 1.3 1.5 1.1 1.9zm28.4-1.3c0 1.4-.3 1.4-1.5.4-.8-.7-1.5-1.4-1.5-1.6 0-.2.7-.4 1.5-.4s1.5.7 1.5 1.6zm167.7.2c-2.6 2.9-2 3.4 1.6 1.2s6.2-2.7 3.4-.6c-1.4 1.1-1.5 1.5-.5 2 .7.3 0 .2-1.6-.1-2.2-.5-2.7-.3-2.1.7.5.8.4 1.1-.3.6-.6-.3-1.5.1-2 1.1-.8 1.3-1 .8-.9-2 .1-1.9.4-3.4.8-3.1.4.2 1 0 1.4-.6.3-.5.9-1 1.2-1 .3 0-.1.8-1 1.8zM179.5 704c.3.6-.1.7-.9.4-1.8-.7-2.1-1.4-.7-1.4.6 0 1.3.4 1.6 1zm-76 1c-.3.5 0 1 .7 1 1.5 0 3.6 4 3 5.8-.2.7-.9.9-1.5.5-.7-.4-.7 0 .1.9 1.1 1.4 1 1.8-.7 2.8-1.4.7-2.1.7-2.1 0 0-.5-.8-1-1.9-1-1.1 0-2.1-.9-2.5-2.3-1-3.7-.7-4.7 1.4-4.7 1.3 0 2-.7 2-2 0-1.1.5-2 1.1-2 .5 0 .7.4.4 1zm30 3c-.6.9-1 .9-1.6-.1-.6-1-.9-1-.9-.2 0 1.9 1.7 2.4 3.3.9 1.3-1.3 1.6-1.2 2.6 1 .6 1.4 1.1 2.6 1.1 2.7 0 .2-1.6.4-3.6.5-2 .2-3.3-.1-3-.7.3-.5.1-1.1-.4-1.3-1.8-.6-1.8-4.2-.1-4.9 2-.8 3.6.5 2.6 2.1zm17.7.7c3.2 3 2.8 4-2 4.5-3.7.3-5.2-1.2-5.2-5.4 0-2.2.4-2.6 2.2-2.3 1.2.3 3.4 1.7 5 3.2zm84.9-2c1 1.1 1 1.4.2.9-.9-.5-1.3.2-1.3 2.5 0 4-.5 3.5-1.4-1.4-.7-4 .3-4.8 2.5-2zm43.3.5c.6 3.3.3 6.7-.6 6.2-.4-.3-1.6 0-2.7.6-2.3 1.2-3.1-.4-2.9-5.5.1-2.6.5-3.1 2.9-3.3 2.3-.2 2.9.3 3.3 2zm-224.3.1c.8.7 1.8 2 2.2 3 .4 1.1 1.2 1.5 1.9 1.1.6-.4.3.5-.8 1.9-1 1.5-2.4 2.7-3.1 2.7-.7 0-1.7.8-2.3 1.7-.8 1.4-1 .2-.8-5 .1-3.7.5-6.7.8-6.7.3 0 1.2.6 2.1 1.3zM182 707c0 .5-.2 1-.4 1-.3 0-.8-.5-1.1-1-.3-.6-.1-1 .4-1 .6 0 1.1.4 1.1 1zm113 4.6c0 4.3-.9 5.4-3.8 4.3-1.8-.7-2.8-.6-3.4.3-.4.8-.8-.8-.8-3.9 0-4.6.3-5.2 2.3-5.5 2.8-.5 5.7 1.9 5.7 4.8zm-79-3.6c0 .5-.5 1-1.1 1-.5 0-.7-.5-.4-1 .3-.6.8-1 1.1-1 .2 0 .4.4.4 1zm37.4.5c-.4.8-.8 1.5-1 1.5-.2 0-.4-.7-.4-1.5s.4-1.5 1-1.5c.5 0 .7.7.4 1.5zm-43 1.1c.9 2.4.2 2.6-1.2.4-.7-1.1-.8-2-.3-2s1.2.7 1.5 1.6zm18.4 1c.2 2.2 0 2.4-1.2 1.4-.8-.6-1.2-1.8-.9-2.6.8-2.2 1.8-1.6 2.1 1.2zm-43.3.4c1 1.1 1.6 2 1.3 2-.3 0-1.3-.9-2.3-2-1-1.1-1.6-2-1.3-2 .3 0 1.3.9 2.3 2zm67 .8c-.3.3-1.1 0-1.8-.7-.9-1-.8-1.1.6-.5 1 .3 1.5.9 1.2 1.2zm-91 .2c.3.5.1 1-.4 1-.6 0-1.1-.5-1.1-1 0-.6.2-1 .4-1 .3 0 .8.4 1.1 1zm-25 2.9c.3.5 0 1.3-.6 1.7-.7.4-.9.3-.5-.4.3-.5 0-1.3-.6-1.5-.9-.4-1-.6-.1-.6.6-.1 1.4.3 1.8.8zm17.2 1.3c-.3.8-.6.5-.6-.6-.1-1.1.2-1.7.5-1.3.3.3.4 1.2.1 1.9zm154.9-.3c0 1.1-.4 1.7-.8 1.5-.4-.3-.8-1.2-.8-2s.4-1.4.8-1.4.8.9.8 1.9zm6.4-1.4c0 .2-1 .9-2.2 1.5-2.2 1.1-2.2 1-.4-.4 2.1-1.7 2.6-1.9 2.6-1.1zm4 .5c0 .5-.2 1-.4 1-.3 0-.8-.5-1.1-1-.3-.6-.1-1 .4-1 .6 0 1.1.4 1.1 1zm10.6.3c.4.3-.4.4-1.6.2-3-.6-4-1.6-1.2-1.2 1.2.2 2.4.6 2.8 1zm-3.8 3.2c-.3.3-.9-.2-1.2-1.2-.6-1.4-.5-1.5.5-.6.7.7 1 1.5.7 1.8z"/><path d="M216.7 503.7c-1.2 1.1-.8 2.3.8 2.3.8 0 1.5-.7 1.5-1.5 0-1.6-1.2-2-2.3-.8zM145.7 563.6c.6 1.6 1.9 1.8 2.7.5.3-.5-.3-1.1-1.3-1.4-1.4-.3-1.8-.1-1.4.9zM292.5 595c-.3.5.1 1 1 1s1.3-.5 1-1c-.3-.6-.8-1-1-1-.2 0-.7.4-1 1zM296 598.6c0 .8.5 1.2 1 .9.6-.3 1-1 1-1.6 0-.5-.4-.9-1-.9-.5 0-1 .7-1 1.6zM289.5 599c-.3.5-.2 1 .4 1 .5 0 1.3-.5 1.6-1 .3-.6.2-1-.4-1-.5 0-1.3.4-1.6 1zM293 602c0 .5.4 1 .9 1 .6 0 1.3-.5 1.6-1 .3-.6-.1-1-.9-1-.9 0-1.6.4-1.6 1zM149.5 600.1c-.4.6-.5 1.2-.2 1.5.2.3.7-.2 1-1.1.7-1.7.1-2-.8-.4zM98.7 604.7c-.4.3-.7 1.1-.7 1.7 0 .6.5.5 1.2-.2.6-.6.9-1.4.7-1.7-.3-.3-.9-.2-1.2.2zM122 617c-1.2.7-1 .9.7.7 1.2 0 1.9-.5 1.7-.9-.6-1-.6-1-2.4.2zM121.5 625c-.3.5-.1 1 .4 1 .6 0 1.1-.5 1.1-1 0-.6-.2-1-.4-1-.3 0-.8.4-1.1 1zM122 627.5c0 .5.5 1.7 1 2.5s1 1 1 .5c0-.6-.5-1.7-1-2.5s-1-1.1-1-.5zM120.5 635c-.3.5.1 1 .9 1 .9 0 1.6-.5 1.6-1 0-.6-.4-1-.9-1-.6 0-1.3.4-1.6 1zM129.5 638c-.8 1.3 1.4 4.2 2.6 3.4 1.5-.9 1-2.4-.7-2.4-.8 0-1.2-.5-.9-1 .3-.6.4-1 .1-1-.3 0-.8.5-1.1 1zM278.6 665.3c.3 1 .9 1.5 1.2 1.2.3-.3 0-1.1-.7-1.8-1-.9-1.1-.8-.5.6zM107.4 637.5c.3 2.2 1.3 2.7 1.9 1.1.3-.8 0-1.7-.8-1.9-.7-.3-1.2 0-1.1.8zM111.5 638c.3.5 1.1 1 1.6 1 .6 0 .7-.5.4-1-.3-.6-1.1-1-1.6-1-.6 0-.7.4-.4 1zM117.5 645c-.8 1.3-.1 2.4 1.4 1.9.6-.3.7-1 .2-1.8-.6-1-1-1-1.6-.1zM138.5 666.9c-.3.6.3.9 1.4.8 1.1 0 1.7-.5 1.5-.9-.7-1.1-2.2-1-2.9.1zM142.3 671.5c0 .8.4 1.2.9.9.5-.3.6-1 .3-1.5-.9-1.3-1.2-1.1-1.2.6zM149 675c0 .5.5 1 1.1 1 .5 0 .7-.5.4-1-.3-.6-.8-1-1.1-1-.2 0-.4.4-.4 1zM156.6 692.5c-.8 2.2-.8 2.2.8 2.8 1.1.4 1.3 0 1.1-1.5-.6-2.8-1.1-3.2-1.9-1.3zM304 650.5c0 1.8 1.6 2 2.3.2.4-.9.8-.9 1.5.2 1.1 1.5 3.6.6 2.7-1-1-1.6-6.5-1.1-6.5.6zM304.2 654.9c.2.7.7 1.2 1.1 1.2 1.2-.1.9-1.5-.3-2-.7-.2-1.1.2-.8.8zM308.5 654.9c-.6 1.1.9 2.3 1.9 1.4.9-.9.7-2.3-.3-2.3-.6 0-1.2.4-1.6.9zM277.5 709c-.3.5-.1 1 .4 1 .6 0 1.1-.5 1.1-1 0-.6-.2-1-.4-1-.3 0-.8.4-1.1 1zM404.3 459.5c0 1.4.2 2.5.6 2.5 1 0 1.1-3.9.2-4.5-.5-.2-.8.7-.8 2zM400.6 469.9c-.3.5.1 1.1.9 1.4.9.4 1.2.1.8-.9-.6-1.6-1-1.7-1.7-.5zM399.5 472.8c-1 .7-1.8 3.2-1 3.2.2 0 .9-.9 1.5-2 1.2-2.2 1.1-2.4-.5-1.2zM401.5 475c-.3.6.1.7.9.4 1.8-.7 2.1-1.4.7-1.4-.6 0-1.3.4-1.6 1zM411.1 481c-.6 2.8-1.1 6.8-1.1 8.9 0 3.9 3.2 14.4 5 16.6.5.7 3.7 7.2 7.1 14.6 6.3 14 10.9 27.3 10.9 32 0 1.5 1 5.8 2.1 9.5 1.7 5.5 2.3 6.5 3 4.9 1.3-3.5 1-18.9-.6-24.1-1.7-5.7-1.8-6.7-.6-6 2.1 1.4 6.1 11 9.1 22.1 1.7 6.6 3.3 12.2 3.6 12.4.2.2.7-.7 1.2-2 .8-1.9 1-1.5 1.6 2.9.4 2.9.4 5.7.1 6.2-.3.6-.2 1 .3 1s1.4-2.6 1.9-5.8l1-5.7.8 4.3c.4 2.4 1.4 4.9 2.1 5.7.8.7 1.4 1.8 1.4 2.4 0 .6.4 1.9.9 2.9.5.9 2.1 4.3 3.6 7.4 3.1 6.5 5.9 7.9 4.8 2.5-.3-1.7-1-4-1.5-5s-.7-2.1-.4-2.5c.3-.3.6 0 .6.6s.8 1.3 1.8 1.6c1 .3 2.6 2.1 3.7 3.8 2.5 4.3 5.5 6.7 8.3 6.8 1.2 0 2.2.5 2.2 1.1 0 .6-.8.9-1.8.7-1.6-.5-1.2 1 2.5 9.1 2.3 5.3 4.3 10.1 4.3 10.7 0 .6 1.1 2.3 2.5 3.8s2.5 3.1 2.5 3.7c0 .5.5.9 1.1.9.6 0 .9-.6.6-1.4-.3-.8-.9-3.2-1.3-5.3l-.7-3.8 2.8 2.5c1.5 1.4 3.8 4.4 5.1 6.6 1.4 2.3 3.3 4.4 4.2 4.6 1.2.4 2.4 2.6 3.5 6.7 1.1 3.8 2.2 6.1 3.1 6.1 1.6 0 2.6 4 2.2 8-.2 1.4.3 3.9 1 5.5.7 1.7 1.2 5.2 1.2 7.8 0 2.6.4 5.3 1 6 .5.7 1 3.2 1.1 5.6.1 2.4.9 6 1.6 7.9.8 1.9 1.5 5.4 1.5 7.8 0 2.4.4 4.4.9 4.4s1.2 1.2 1.6 2.7c.5 2.1.8 2.4 1.5 1.3 1.1-1.7 2.3-.7 2.5 2 .1 1.1-.4 2-1.2 2-.7 0-1.3.4-1.3 1 0 .5-.4 1-.9 1-.4 0-1.6-2.5-2.6-5.5-.9-3-2.1-5.5-2.5-5.5-.8 0 .1 3.6 4.4 16 1.6 4.6 2.4 6.3 2.3 4.3-.4-4.1 1.1-4.3 2-.3l.6 3h9.2c8.8 0 9.3-.1 8.8-2-.3-1.1 0-2 .6-2s1.1.9 1.1 2c0 2 .7 2 45.1 2h45l-.7-2.3c-1-3.3-7.6-17.9-13.9-30.5-3-6.2-5.5-11.7-5.5-12.1 0-3.4-7.3-22.3-13.9-36.1-4.4-9.1-9-19.4-10.4-23-7-18.5-8.3-21.5-11.3-25.3-1.8-2.3-4.8-5.1-6.6-6.1-2.8-1.6-14.3-10.9-15.8-12.7-.3-.3-2.5-1.8-5-3.4-2.5-1.5-6.5-4.6-9-6.9-4.8-4.5-15.9-13.3-21.6-17.2-6-4.1-23.6-12.1-36-16.4-14.9-5.2-34.8-11.8-39.4-13-2.8-.7-4.8-2.6-9-8.2-6.1-8-19.5-22.8-25.2-27.7l-3.6-3.2-1.1 5.1zm41.7 46.1c-.6.4-1.7.5-2.2.2-.6-.4-.5-.8.2-1.1.7-.2.9-.9.5-1.5-.4-.7.1-.6 1.1.2 1.3 1.1 1.4 1.6.4 2.2zm6.2 7.8c1.3 2.5 1.3 3.1-.2 3.1-1.4 0-4.8-3-4.8-4.2 0-1.6 4-.8 5 1.1zm4.6 8.9c.6.4 1.4 1.7 1.8 2.9.6 1.8.4 2-1.4 1.6-1.1-.3-2-.9-2-1.3 0-.5-.3-1.5-.6-2.4-.6-1.7.4-2.1 2.2-.8zm4.5 11.8c1.1 1.3 1.1 1.5-.2 1.3-.7-.2-2.5.3-3.9 1l-2.5 1.3 2.5-2.5 2.6-2.6c.1-.1.7.6 1.5 1.5zm-9.6 7.4c.3.5.1 1-.4 1-.6 0-1.1-.5-1.1-1 0-.6.2-1 .4-1 .3 0 .8.4 1.1 1zm5 6c-.4.6-1.1.8-1.6.5-.5-.4-.9 0-.9.7 0 1.8-2-1.2-2-3.1 0-1 .3-1.1 1.4-.2 1.1.9 1.2.6.9-1.6l-.4-2.8 1.6 2.8c.9 1.5 1.3 3.2 1 3.7zm-.5 5.1c0 .6-.4.7-1 .4-.5-.3-1-1.1-1-1.6 0-.6.5-.7 1-.4.6.3 1 1.1 1 1.6zm4-.7c0 .3-.4.8-1 1.1-.5.3-1 .1-1-.4 0-.6.5-1.1 1-1.1.6 0 1 .2 1 .4zm-1.3 5.8c-.3.8-.6.5-.6-.6-.1-1.1.2-1.7.5-1.3.3.3.4 1.2.1 1.9zm5.8 3.8c.3.6-.1.7-.9.4-1.8-.7-2.1-1.4-.7-1.4.6 0 1.3.4 1.6 1zm5.5 8c1.2 1.2 1.5 2.2.9 2.6-.6.3-1.1.4-1.2.3-.1-.2-1.1-1.4-2.1-2.7-2.4-2.7-.4-3 2.4-.2zm17.8-.8c-.5 1.5-5.6 2.9-6.4 1.7-1-1.6.7-2.9 3.7-2.9 1.9 0 2.9.4 2.7 1.2zm5 8.1c.2 1.1-.6 2.1-2 2.6-3 1.1-3.8.6-3.8-2.5 0-2.1.4-2.4 2.8-2.1 1.5.2 2.8 1.1 3 2zm22.7 3.6c-.4.3-1-.1-1.4-.8-.5-.7-1.4-1.1-2-.7-.7.5-.9.1-.5-.9.6-1.4.8-1.4 2.5.1 1.1 1 1.7 2 1.4 2.3zm-19.9 9.6c.3 6.3.4 7.2 2.4 14.4 1.1 4.3.7 7.1-.6 3.5-.4-1-1.5-3.8-2.6-6.2-1-2.3-1.6-4.8-1.2-5.4.4-.6.3-.8-.3-.5-.6.4-1.3 0-1.7-.8-.3-.8 0-1.5.7-1.6.7 0 .2-.4-1-.9-1.3-.5-2.3-1.6-2.3-2.5 0-.8 0-1.8-.1-2.3 0-.4 1-.9 2.3-1.2 1.8-.5 2.2-1.2 2-3.5-.2-2.8-.2-2.8 1-1 .7 1.1 1.3 4.7 1.4 8zm4.1-2.3c-.3.8-.6.5-.6-.6-.1-1.1.2-1.7.5-1.3.3.3.4 1.2.1 1.9zm49.3-.7c.7.9.8 1.5.2 1.5-.5 0-1.2-.7-1.6-1.5-.3-.8-.4-1.5-.2-1.5s.9.7 1.6 1.5zm-47.1 14.3c.1.7-.3 1-.9.7-.5-.3-1-2.1-.9-3.8.1-3.1.1-3.1.9-.7.4 1.4.8 3.1.9 3.8zm56.3-4.1c1 .9 1.8 2 1.8 2.5 0 1.3-3.7-.9-4.4-2.7-.7-2 .3-1.9 2.6.2zm-8.4 4.8c-.3.3-.9-.2-1.2-1.2-.6-1.4-.5-1.5.5-.6.7.7 1 1.5.7 1.8zm-17.8-1.1c0 .3-.4.8-1 1.1-.5.3-1 .1-1-.4 0-.6.5-1.1 1-1.1.6 0 1 .2 1 .4zm58.4 3.2c.7 1.8 0 3.4-1.5 3.4-.5 0-.9-1.1-.9-2.5 0-2.8 1.5-3.4 2.4-.9zm-43.6 2.4c1 1.7 1 2-.5 2-.9 0-1.3-.3-1-.7.4-.3.2-1.2-.4-2-.6-.7-.7-1.3-.3-1.3.5 0 1.5.9 2.2 2zm18.8 1.4c1.6 1.7 1.8 2.6.4 2.6-.5 0-1.4-.9-2-2-1.2-2.3-.5-2.6 1.6-.6zm-61.6 2.5c0 1.1.3 2.8.6 3.8.5 1.2.4 1.5-.4.8-1.6-1.5-2.6-6.5-1.3-6.5.6 0 1.1.9 1.1 1.9zm35.6 2.8c-.4.4-1.3 0-2-1-.7-.9-1.9-1.7-2.7-1.7-1.1 0-1.1-.2.1-1 1.7-1.1 6 2.4 4.6 3.7zm17.4 5.5c0 1.5-3.3.8-4.5-.9-2.2-3-.6-4.6 2.1-2.1 1.3 1.3 2.4 2.6 2.4 3zm17 1.3c.7.9.8 1.5.2 1.5-.5 0-1.2-.7-1.6-1.5-.3-.8-.4-1.5-.2-1.5s.9.7 1.6 1.5zm-29.7.2c-1.9.7-1.6 2.1.3 1.9 2.3-.2 3 2.3.8 3.1-1 .4-2.2 0-3-1.1-1.6-2.2-.8-4.6 1.5-4.5 1 0 1.1.2.4.6zm20.2 6.5c1.4 2.1 1.4 2.4-.2 3.5-.9.7-1.9 1.3-2.2 1.3-1 0-4-5.8-3.3-6.4 1.3-1.3 4.2-.5 5.7 1.6zm32.5 2.7c0 1.8-2.3 3.5-3.3 2.4-.7-.6 1.5-4.3 2.5-4.3.5 0 .8.9.8 1.9zm-61.1 3.9c.7 1.4.5 2.1-1.1 3.1-1.9 1.2-2.3 1.1-3.5-.5-1.6-2.2-1.7-3.8-.2-2.8.8.4.9-.1.4-1.6-.6-2-.5-2.1 1.4-1.1 1.1.6 2.5 1.9 3 2.9zm18.5 2.7c-1 2.5-3.8 2.7-5.7.4-1.8-2.2-1.8-2.3.5-4.1 2.2-1.7 2.4-1.7 4 .3.9 1.1 1.5 2.6 1.2 3.4zm18.5 1.7c.9 2.3-.9 4.8-3.4 4.8-1.4 0-3.7-4.8-3-6.1 1.2-1.9 5.5-1 6.4 1.3zm-30.4 10.9c-1.1 1.6-2.4 1-3.9-1.8-1.2-2.4-1.2-2.9.3-4 1.4-1 1.8-.7 2.9 1.8.7 1.7 1 3.4.7 4zm19.5-1.7c0 .6-1 1.7-2.2 2.5-1.9 1.2-2.3 1.1-3.5-.5-1.7-2.3-1.6-3 .5-5.4l1.7-2.1 1.8 2.2c.9 1.2 1.7 2.6 1.7 3.3zm17.9 2.2c.6 1.5 1 2.8.9 2.9-.2.1-1.4.8-2.7 1.5-2.6 1.4-3.7.7-4.6-3.2-.6-2.2-.3-2.7 1.7-3.1 1.2-.2 2.6-.5 2.9-.6.3 0 1.1 1.1 1.8 2.5zm-45.9 5.5c0 .5-.4.9-1 .9-.5 0-1-.7-1-1.6 0-.8-.4-1.3-.8-1-.4.2-.8-.5-.8-1.6 0-1.9.1-1.9 1.8.2 1 1.2 1.8 2.6 1.8 3.1zm-16.2-2.9c.7.9.5 1.7-.6 2.8-1.4 1.3-1.5 1.2-1-.2.4-.8.1-2.1-.5-2.7-.8-.8-.8-1.1 0-1.1.6 0 1.5.6 2.1 1.2zm47.2 3.5c0-2.6 1.9-2 3.1 1 1.3 3.5.5 5.3-2.5 5.3-1.9 0-2.7-.9-4-4-2.1-5.4-2-5.8.9-3 2.1 1.9 2.5 2.1 2.5.7zm-18 1.3c0 .5-.2 1-.4 1-.3 0-.8-.5-1.1-1-.3-.6-.1-1 .4-1 .6 0 1.1.4 1.1 1zm39.5 5.1c1.5 2.8 1.5 3-1.1 4-3 1.1-4.7 0-5.8-3.7-.5-1.5-.1-2.3 1.6-3.1 2.8-1.3 3.4-1 5.3 2.8zm8-1.1c.3.5.1 1-.4 1-.6 0-1.1-.5-1.1-1 0-.6.2-1 .4-1 .3 0 .8.4 1.1 1zm-53.4 2.7c.7 1.6 1.5 3.2 1.7 3.7.3.4-.6.5-1.8.1-1.7-.5-2-.4-1.5.5.5.8.3 1.1-.6.8-.8-.3-1.4-1.5-1.3-2.7 0-1.1-.4-2.1-.9-2.1s-.4-.7.3-1.5c1.8-2.1 2.5-1.9 4.1 1.2zm-23.7 3.9c1 3.7.2 3.9-1.1.4-.6-1.7-.8-3-.3-3 .4 0 1.1 1.2 1.4 2.6zm56.8 2.4c.2 1.7-.2 2.4-1 2.2-.8-.1-1.1.2-.8.7 1.5 2.3-1.3 1.8-2.9-.5-1.3-2-1.4-2.8-.5-4 .7-.7 1.6-1.1 2.1-.8.5.3.9 0 .9-.7 0-2.3 1.9.5 2.2 3.1zm-40.2 2.7c0 .7-.7 1.3-1.6 1.3-1.1 0-1.5-.6-1.1-2 .3-1.1.1-2.3-.4-2.6-.5-.3-.9-1.1-.9-1.7.1-1.6 3.9 3.4 4 5zm57.2-1.3c1.4 2.1.8 3.4-1.9 4-1.6.5-2.9.3-3.3-.5-.5-.6-1.3-.8-2.1-.4-.9.6-1.1.3-.6-.9.4-1 .7-2.1.7-2.4 0-1.2 6.5-1 7.2.2zm-42.6 4.7c1.3 2.6 1.4 3.3.2 4-3.4 2.3-7.1-2.6-4.2-5.6 2-2 2.1-2 4 1.6zm16.7.9c.3 1.1.2 2-.3 2-.8 0-2-2.4-2-4.1 0-1.7 1.7-.1 2.3 2.1zm14.9 4.2c-.9.9-1.2.9-1.2-.1 0-.7-.4-1-1-.6-.5.3-.7 1.2-.3 2 .3.8.1 1.5-.5 1.5-1.9 0-2.3-3.3-.5-5.2 1.5-1.7 1.8-1.7 3.2-.3 1.2 1.2 1.3 1.8.3 2.7zm-43.3 1c-1.1 2.1-1.1 2.2.4 1 1.3-1.1 1.6-1 2.2.7.7 2.4-.1 4.1-2 4.1s-3.1-6-1.4-7.1c2-1.3 2.1-1.1.8 1.3zm34 5.5c1.6 3.5-.4 4.9-3.2 2.2-1.7-1.5-1.8-2.1-.7-3.4 1.8-2.1 2.5-1.9 3.9 1.2zm-15.8 1c.6 1.8.3 2.8-1.4 4.3l-2.2 2.1-1.4-3c-1.2-2.5-1.2-3.3-.1-4.6 1.7-2.1 4.1-1.5 5.1 1.2zm-30.4 6.3c-.1 1.7-1.2 1.8-1.2.2 0-.4-.4-1.3-.8-1.9-.6-.9-.3-1.1.7-.7.8.3 1.4 1.4 1.3 2.4zM118.3 594.5c0 .8.4 1.2.9.9.5-.3.6-1 .3-1.5-.9-1.3-1.2-1.1-1.2.6zM131.1 617.3c-.8 1-.9 1.7-.1 2.2.5.3 1 .4 1 0 0-.3.9-.1 1.9.5 1.3.7 2.2.7 2.6 0 .3-.5.1-1-.6-1-.6 0-1.7-.7-2.3-1.6-1.1-1.4-1.3-1.4-2.5-.1zM71.6 620c-1.7.6-1.8.7-.3 1.3.9.3 1.9.2 2.3-.4.9-1.5.2-1.8-2-.9zM89.5 628c-.3.6.1.7.9.4 1.8-.7 2.1-1.4.7-1.4-.6 0-1.3.4-1.6 1zM465.6 701.8c-.2.4-.1 1.4.3 2.1.6.9 1 .7 1.4-.8.5-2-.7-2.9-1.7-1.3zM388.4 705.8c.2.4.8 3.5 1.1 6.7.8 7.1 2 8.8 4.1 6.1.8-1.1 1.4-2.4 1.4-3 0-.5-.6-.1-1.4.9-1.3 1.9-1.5 1.7-2.2-2-.4-2.2-.7-5.2-.7-6.8 0-1.6-.6-2.7-1.4-2.7-.8 0-1.2.4-.9.8zM374.1 710.2c-.4 1.2-.5 3.7 0 5.6 1.1 5 1.7 4.9 1.2-.2-.4-2.9-.1-5.1.7-6.1.9-1.1.9-1.5.1-1.5-.6 0-1.5 1-2 2.2zM382.1 713.2c0 3.9.3 4.8.9 3.3.5-1.1.9-1.5.9-.9.1.5.8 1.9 1.6 3 1 1.3.8.1-.6-4.4-1.2-3.4-2.3-6.2-2.5-6.2-.2 0-.4 2.4-.3 5.2zM400 708.9c0 .6.4 1.2.8 1.5.4.2.9 2.4 1.1 4.8.3 5.5 1.1 6.3 1.1 1.2 0-2.1.3-4.9.6-6.2.5-1.8.2-2.2-1.5-2.2-1.1 0-2.1.4-2.1.9zM407.3 714c0 3.6.2 5 .4 3.2.2-1.7.2-4.7 0-6.5-.2-1.7-.4-.3-.4 3.3zM411.4 714c0 3.2.3 5.7.8 5.4 1-.6 1.1-11.4.1-11.4-.5 0-.8 2.7-.9 6zM416.4 714c.1 3.3.4 6 .8 6s.7-2.3.6-5.1c0-3.4.4-5.4 1.3-6 1.1-.7.9-.9-.7-.9-1.8 0-2 .6-2 6zM457 708.9c0 1 2.8 4.1 3.6 4.1.2 0-.3-1.1-1.2-2.5-1.7-2.6-2.4-3.1-2.4-1.6zM393 710c0 .5.5 1 1.1 1 .5 0 .7-.5.4-1-.3-.6-.8-1-1.1-1-.2 0-.4.4-.4 1zM468.2 711c0 1.4.2 1.9.5 1.2.2-.6.2-1.8 0-2.5-.3-.6-.5-.1-.5 1.3zM429 713.7c0 1.8.5 3.3 1 3.3.6 0 1 .7 1 1.5s.5 1.5 1 1.5c1.3 0 1.3-.1-1-5.1l-2-4.4v3.2zM438.1 712.6c0 1.1.3 1.4.6.6.3-.7.2-1.6-.1-1.9-.3-.4-.6.2-.5 1.3zM462.4 713.4c-.9 1-.7 1.9.7 3.7 1.9 2.5 2.3 1.4 1.1-2.7-.6-1.7-1-1.9-1.8-1zM434 713.9c0 .5-.3 1.7-.7 2.7-.4 1.1-.3 1.5.5 1.1.6-.4 1.3.1 1.5 1 .3 1 .5.1.6-2 0-2-.3-3.7-.9-3.7-.5 0-1 .4-1 .9zM447.4 716.1c-.3.6-.1 1.6.6 2.2 1 .9 1.1.9.5-.2-.4-.8-.2-1.7.6-2.2.9-.6 1-.9.2-.9-.6 0-1.5.5-1.9 1.1zM439.2 718c0 1.4.2 1.9.5 1.2.2-.6.2-1.8 0-2.5-.3-.6-.5-.1-.5 1.3z"/></svg>